Alegreya-Black.ufo
<glyph name="numbersign" format="2">
  <advance width="557"/>
  <unicode hex="0023"/>
  <outline>
    <contour>
      <point x="90" y="31" type="line"/>
      <point x="196" y="45" type="line"/>
      <point x="210" y="145" type="line"/>
      <point x="251" y="145" type="line"/>
      <point x="292" y="145" type="line"/>
      <point x="274" y="40" type="line"/>
      <point x="287" y="31" type="line"/>
      <point x="393" y="45" type="line"/>
      <point x="408" y="145" type="line"/>
      <point x="509" y="146" type="line"/>
      <point x="518" y="252" type="line"/>
      <point x="511" y="267" type="line"/>
      <point x="425" y="264" type="line"/>
      <point x="435" y="324" type="line"/>
      <point x="437" y="340" type="line"/>
      <point x="540" y="341" type="line"/>
      <point x="549" y="447" type="line"/>
      <point x="542" y="462" type="line"/>
      <point x="457" y="459" type="line"/>
      <point x="479" y="575" type="line"/>
      <point x="465" y="582" type="line"/>
      <point x="357" y="573" type="line"/>
      <point x="340" y="456" type="line"/>
      <point x="300" y="456" type="line"/>
      <point x="260" y="456" type="line"/>
      <point x="282" y="575" type="line"/>
      <point x="268" y="582" type="line"/>
      <point x="160" y="573" type="line"/>
      <point x="143" y="456" type="line"/>
      <point x="52" y="457" type="line"/>
      <point x="38" y="352" type="line"/>
      <point x="47" y="339" type="line"/>
      <point x="126" y="339" type="line"/>
      <point x="121" y="306" type="line"/>
      <point x="114" y="261" type="line"/>
      <point x="21" y="262" type="line"/>
      <point x="7" y="157" type="line"/>
      <point x="16" y="144" type="line"/>
      <point x="95" y="144" type="line"/>
      <point x="77" y="40" type="line"/>
    </contour>
    <contour>
      <point x="311" y="261" type="line"/>
      <point x="264" y="261" type="line"/>
      <point x="228" y="261" type="line"/>
      <point x="238" y="324" type="line"/>
      <point x="240" y="340" type="line"/>
      <point x="276" y="340" type="line"/>
      <point x="323" y="340" type="line"/>
      <point x="318" y="306" type="line"/>
    </contour>
  </outline>
</glyph>
<glyph name="dollar" format="2">
  <advance width="475"/>
  <unicode hex="0024"/>
  <anchor x="245" y="0" name="bottom"/>
  <anchor x="260" y="637" name="top"/>
  <outline>
    <contour>
      <point x="145" y="34" type="line"/>
      <point x="267" y="45" type="line"/>
      <point x="322" y="484" type="line"/>
      <point x="200" y="474" type="line"/>
    </contour>
    <contour>
      <point x="128" y="-164" type="line"/>
      <point x="242" y="-151" type="line"/>
      <point x="267" y="45" type="line"/>
      <point x="145" y="34" type="line"/>
      <point x="120" y="-158" type="line"/>
    </contour>
    <contour>
      <point x="200" y="474" type="line"/>
      <point x="322" y="484" type="line"/>
      <point x="343" y="649" type="line"/>
      <point x="337" y="658" type="line"/>
      <point x="221" y="644" type="line"/>
    </contour>
    <contour>
      <point x="194" y="-9" type="curve" smooth="yes"/>
      <point x="360" y="-9"/>
      <point x="460" y="52"/>
      <point x="460" y="155" type="curve" smooth="yes"/>
      <point x="460" y="244"/>
      <point x="386" y="279"/>
      <point x="320" y="304" type="curve" smooth="yes"/>
      <point x="266" y="324"/>
      <point x="216" y="337"/>
      <point x="216" y="367" type="curve" smooth="yes"/>
      <point x="216" y="384"/>
      <point x="235" y="395"/>
      <point x="262" y="395" type="curve" smooth="yes"/>
      <point x="296" y="395"/>
      <point x="318" y="377"/>
      <point x="318" y="344" type="curve" smooth="yes"/>
      <point x="318" y="343"/>
      <point x="318" y="336"/>
      <point x="318" y="336" type="curve"/>
      <point x="329" y="329" type="line"/>
      <point x="433" y="336" type="line"/>
      <point x="440" y="406"/>
      <point x="456" y="472"/>
      <point x="456" y="472" type="curve"/>
      <point x="445" y="491" type="line"/>
      <point x="445" y="491"/>
      <point x="376" y="513"/>
      <point x="283" y="513" type="curve" smooth="yes"/>
      <point x="123" y="513"/>
      <point x="19" y="447"/>
      <point x="19" y="343" type="curve" smooth="yes"/>
      <point x="19" y="260"/>
      <point x="82" y="223"/>
      <point x="145" y="197" type="curve" smooth="yes"/>
      <point x="204" y="173"/>
      <point x="262" y="159"/>
      <point x="262" y="128" type="curve" smooth="yes"/>
      <point x="262" y="114"/>
      <point x="245" y="105"/>
      <point x="215" y="105" type="curve" smooth="yes"/>
      <point x="173" y="105"/>
      <point x="147" y="129"/>
      <point x="147" y="175" type="curve"/>
      <point x="34" y="167" type="line"/>
      <point x="31" y="120"/>
      <point x="15" y="40"/>
      <point x="15" y="40" type="curve"/>
      <point x="26" y="25" type="line"/>
      <point x="26" y="25"/>
      <point x="94" y="-9"/>
    </contour>
  </outline>
</glyph>
<glyph name="ampersand" format="2">
  <advance width="741"/>
  <unicode hex="0026"/>
  <outline>
    <contour>
      <point x="573" y="-60" type="curve" smooth="yes"/>
      <point x="615" y="-33"/>
      <point x="652" y="-2"/>
      <point x="689" y="30" type="curve"/>
      <point x="689" y="47" type="line"/>
      <point x="555" y="160" type="line"/>
      <point x="583" y="205"/>
      <point x="596" y="244"/>
      <point x="596" y="292" type="curve" smooth="yes"/>
      <point x="596" y="305"/>
      <point x="595" y="328"/>
      <point x="592" y="342" type="curve"/>
      <point x="597" y="350" type="line"/>
      <point x="649" y="350" type="line" smooth="yes"/>
      <point x="685" y="350"/>
      <point x="710" y="363"/>
      <point x="718" y="386" type="curve"/>
      <point x="741" y="458" type="line"/>
      <point x="723" y="480" type="line"/>
      <point x="723" y="476"/>
      <point x="691" y="472"/>
      <point x="634" y="469" type="curve"/>
      <point x="431" y="457" type="line" smooth="yes"/>
      <point x="382" y="454"/>
      <point x="355" y="450"/>
      <point x="355" y="446" type="curve"/>
      <point x="371" y="347" type="line"/>
      <point x="382" y="348"/>
      <point x="439" y="353"/>
      <point x="452" y="353" type="curve" smooth="yes"/>
      <point x="476" y="353"/>
      <point x="487" y="336"/>
      <point x="487" y="290" type="curve" smooth="yes"/>
      <point x="487" y="267"/>
      <point x="484" y="249"/>
      <point x="477" y="226" type="curve"/>
      <point x="295" y="380" type="line" smooth="yes"/>
      <point x="253" y="415"/>
      <point x="235" y="446"/>
      <point x="235" y="486" type="curve" smooth="yes"/>
      <point x="235" y="527"/>
      <point x="254" y="545"/>
      <point x="299" y="545" type="curve" smooth="yes"/>
      <point x="338" y="545"/>
      <point x="375" y="531"/>
      <point x="402" y="507" type="curve"/>
      <point x="411" y="507"/>
      <point x="419" y="507"/>
      <point x="428" y="507" type="curve"/>
      <point x="478" y="617" type="line"/>
      <point x="474" y="637" type="line"/>
      <point x="430" y="651"/>
      <point x="374" y="659"/>
      <point x="319" y="659" type="curve" smooth="yes"/>
      <point x="156" y="659"/>
      <point x="66" y="590"/>
      <point x="66" y="487" type="curve" smooth="yes"/>
      <point x="66" y="429"/>
      <point x="94" y="387"/>
      <point x="142" y="335" type="curve"/>
      <point x="142" y="324" type="line"/>
      <point x="142" y="324"/>
      <point x="26" y="286"/>
      <point x="26" y="162" type="curve" smooth="yes"/>
      <point x="26" y="50"/>
      <point x="121" y="-12"/>
      <point x="258" y="-12" type="curve" smooth="yes"/>
      <point x="339" y="-12"/>
      <point x="392" y="10"/>
      <point x="449" y="52" type="curve"/>
      <point x="490" y="15"/>
      <point x="532" y="-23"/>
    </contour>
    <contour>
      <point x="297" y="98" type="curve" smooth="yes"/>
      <point x="217" y="98"/>
      <point x="184" y="126"/>
      <point x="184" y="194" type="curve" smooth="yes"/>
      <point x="184" y="222"/>
      <point x="191" y="244"/>
      <point x="208" y="269" type="curve"/>
      <point x="376" y="118" type="line"/>
      <point x="349" y="106"/>
      <point x="325" y="98"/>
    </contour>
  </outline>
</glyph>
<glyph name="parenleft" format="2">
  <advance width="309"/>
  <unicode hex="0028"/>
  <outline>
    <contour>
      <point x="220" y="-146" type="curve"/>
      <point x="232" y="-146" type="line"/>
      <point x="294" y="-86" type="line"/>
      <point x="294" y="-75" type="line"/>
      <point x="294" y="-75"/>
      <point x="211" y="-15"/>
      <point x="211" y="178" type="curve" smooth="yes"/>
      <point x="211" y="351" type="line" smooth="yes"/>
      <point x="211" y="527"/>
      <point x="291" y="576"/>
      <point x="291" y="576" type="curve"/>
      <point x="292" y="585" type="line"/>
      <point x="240" y="649" type="line"/>
      <point x="223" y="649" type="line"/>
      <point x="223" y="649"/>
      <point x="54" y="581"/>
      <point x="54" y="336" type="curve" smooth="yes"/>
      <point x="54" y="163" type="line"/>
      <point x="54" y="-79"/>
      <point x="220" y="-146"/>
    </contour>
  </outline>
</glyph>
<glyph name="asterisk" format="2">
  <advance width="364"/>
  <unicode hex="002A"/>
  <outline>
    <contour>
      <point x="115" y="412" type="curve" smooth="yes"/>
      <point x="115" y="412"/>
      <point x="145" y="462"/>
      <point x="177" y="510" type="curve"/>
      <point x="174" y="519" type="line"/>
      <point x="129" y="543" type="line"/>
      <point x="67" y="499"/>
      <point x="31" y="465"/>
      <point x="31" y="465" type="curve"/>
      <point x="30" y="453" type="line"/>
      <point x="63" y="428"/>
      <point x="115" y="412"/>
    </contour>
    <contour>
      <point x="124" y="555" type="curve"/>
      <point x="133" y="562" type="line"/>
      <point x="142" y="611" type="line"/>
      <point x="81" y="657"/>
      <point x="37" y="681"/>
      <point x="37" y="681" type="curve"/>
      <point x="26" y="678" type="line"/>
      <point x="12" y="639"/>
      <point x="12" y="585"/>
      <point x="12" y="585" type="curve" smooth="yes"/>
      <point x="12" y="585"/>
      <point x="69" y="571"/>
    </contour>
    <contour>
      <point x="245" y="388" type="line"/>
      <point x="280" y="411"/>
      <point x="311" y="456"/>
      <point x="311" y="456" type="curve" smooth="yes"/>
      <point x="311" y="456"/>
      <point x="272" y="501"/>
      <point x="238" y="546" type="curve"/>
      <point x="227" y="546" type="line"/>
      <point x="190" y="511" type="line"/>
      <point x="213" y="437"/>
      <point x="234" y="393"/>
      <point x="234" y="393" type="curve"/>
    </contour>
    <contour>
      <point x="160" y="615" type="line"/>
      <point x="210" y="620" type="line"/>
      <point x="234" y="693"/>
      <point x="245" y="742"/>
      <point x="245" y="742" type="curve"/>
      <point x="238" y="752" type="line"/>
      <point x="196" y="752"/>
      <point x="144" y="736"/>
      <point x="144" y="736" type="curve" smooth="yes"/>
      <point x="144" y="736"/>
      <point x="150" y="677"/>
      <point x="152" y="620" type="curve"/>
    </contour>
    <contour>
      <point x="240" y="558" type="line"/>
      <point x="317" y="557"/>
      <point x="366" y="564"/>
      <point x="366" y="564" type="curve"/>
      <point x="374" y="572" type="line"/>
      <point x="363" y="612"/>
      <point x="330" y="656"/>
      <point x="330" y="656" type="curve" smooth="yes"/>
      <point x="330" y="656"/>
      <point x="275" y="634"/>
      <point x="222" y="615" type="curve"/>
      <point x="218" y="604" type="line"/>
    </contour>
  </outline>
</glyph>
<glyph name="comma" format="2">
  <advance width="238"/>
  <unicode hex="002C"/>
  <outline>
    <contour>
      <point x="50" y="-122" type="line"/>
      <point x="153" y="-63"/>
      <point x="217" y="18"/>
      <point x="217" y="88" type="curve" smooth="yes"/>
      <point x="217" y="149"/>
      <point x="183" y="189"/>
      <point x="132" y="189" type="curve" smooth="yes"/>
      <point x="104" y="189"/>
      <point x="66" y="173"/>
      <point x="30" y="145" type="curve"/>
      <point x="27" y="131" type="line"/>
      <point x="44" y="112"/>
      <point x="56" y="82"/>
      <point x="56" y="55" type="curve" smooth="yes"/>
      <point x="56" y="19"/>
      <point x="31" y="-23"/>
      <point x="-8" y="-51" type="curve"/>
      <point x="-8" y="-76" type="line"/>
    </contour>
  </outline>
</glyph>
<glyph name="slash" format="2">
  <advance width="329"/>
  <unicode hex="002F"/>
  <outline>
    <contour>
      <point x="15" y="-110" type="line"/>
      <point x="141" y="-110" type="line"/>
      <point x="141" y="-110"/>
      <point x="182" y="50"/>
      <point x="224" y="215" type="curve" smooth="yes"/>
      <point x="267" y="377"/>
      <point x="344" y="655"/>
      <point x="344" y="655" type="curve"/>
      <point x="327" y="675" type="line"/>
      <point x="208" y="675" type="line"/>
      <point x="93" y="226" type="line" smooth="yes"/>
      <point x="54" y="74"/>
      <point x="4" y="-95"/>
      <point x="4" y="-95" type="curve"/>
    </contour>
  </outline>
</glyph>
<glyph name="zero" format="2">
  <advance width="467"/>
  <unicode hex="0030"/>
  <outline>
    <contour>
      <point x="223" y="-12" type="curve" smooth="yes"/>
      <point x="368" y="-12"/>
      <point x="454" y="91"/>
      <point x="454" y="264" type="curve" smooth="yes"/>
      <point x="454" y="426"/>
      <point x="380" y="515"/>
      <point x="246" y="515" type="curve" smooth="yes"/>
      <point x="101" y="515"/>
      <point x="13" y="411"/>
      <point x="13" y="239" type="curve" smooth="yes"/>
      <point x="13" y="78"/>
      <point x="88" y="-12"/>
    </contour>
    <contour>
      <point x="238" y="179" type="curve" smooth="yes"/>
      <point x="161" y="179"/>
      <point x="121" y="204"/>
      <point x="121" y="252" type="curve" smooth="yes"/>
      <point x="121" y="298"/>
      <point x="155" y="320"/>
      <point x="227" y="320" type="curve" smooth="yes"/>
      <point x="306" y="320"/>
      <point x="345" y="295"/>
      <point x="345" y="246" type="curve" smooth="yes"/>
      <point x="345" y="200"/>
      <point x="312" y="179"/>
    </contour>
  </outline>
</glyph>
<glyph name="one" format="2">
  <advance width="377"/>
  <unicode hex="0031"/>
  <outline>
    <contour>
      <point x="12" y="-10" type="line"/>
      <point x="12" y="-11"/>
      <point x="125" y="0"/>
      <point x="199" y="0" type="curve" smooth="yes"/>
      <point x="252" y="0"/>
      <point x="354" y="-6"/>
      <point x="354" y="-6" type="curve"/>
      <point x="368" y="84" type="line"/>
      <point x="364" y="90" type="line"/>
      <point x="364" y="90"/>
      <point x="344" y="88"/>
      <point x="320" y="88" type="curve" smooth="yes"/>
      <point x="293" y="88"/>
      <point x="281" y="108"/>
      <point x="281" y="153" type="curve" smooth="yes"/>
      <point x="281" y="288"/>
      <point x="285" y="351"/>
      <point x="296" y="400" type="curve"/>
      <point x="304" y="436"/>
      <point x="315" y="456"/>
      <point x="336" y="472" type="curve"/>
      <point x="320" y="515" type="line"/>
      <point x="319" y="516"/>
      <point x="242" y="503"/>
      <point x="146" y="493" type="curve" smooth="yes"/>
      <point x="104" y="488"/>
      <point x="59" y="483"/>
      <point x="14" y="479" type="curve"/>
      <point x="6" y="404" type="line"/>
      <point x="15" y="394" type="line"/>
      <point x="15" y="394"/>
      <point x="44" y="397"/>
      <point x="62" y="397" type="curve" smooth="yes"/>
      <point x="100" y="397"/>
      <point x="109" y="386"/>
      <point x="109" y="340" type="curve" smooth="yes"/>
      <point x="109" y="139" type="line" smooth="yes"/>
      <point x="109" y="97"/>
      <point x="83" y="77"/>
      <point x="21" y="71" type="curve"/>
    </contour>
  </outline>
</glyph>
<glyph name="two" format="2">
  <advance width="493"/>
  <unicode hex="0032"/>
  <outline>
    <contour>
      <point x="2" y="44" type="line"/>
      <point x="7" y="-6" type="line"/>
      <point x="82" y="0" type="line"/>
      <point x="185" y="0"/>
      <point x="443" y="-12"/>
      <point x="443" y="-12" type="curve"/>
      <point x="460" y="6" type="line"/>
      <point x="465" y="95"/>
      <point x="487" y="228"/>
      <point x="487" y="228" type="curve"/>
      <point x="371" y="219" type="line"/>
      <point x="365" y="153"/>
      <point x="344" y="128"/>
      <point x="293" y="128" type="curve" smooth="yes"/>
      <point x="259" y="128" type="line"/>
      <point x="254" y="137" type="line"/>
      <point x="383" y="266"/>
      <point x="413" y="311"/>
      <point x="413" y="376" type="curve" smooth="yes"/>
      <point x="413" y="459"/>
      <point x="341" y="515"/>
      <point x="236" y="515" type="curve" smooth="yes"/>
      <point x="157" y="515"/>
      <point x="83" y="479"/>
      <point x="13" y="408" type="curve"/>
      <point x="38" y="304" type="line"/>
      <point x="56" y="304" type="line"/>
      <point x="87" y="344"/>
      <point x="123" y="367"/>
      <point x="156" y="367" type="curve" smooth="yes"/>
      <point x="188" y="367"/>
      <point x="204" y="352"/>
      <point x="204" y="322" type="curve" smooth="yes"/>
      <point x="205" y="285"/>
      <point x="176" y="242"/>
      <point x="72" y="121" type="curve" smooth="yes"/>
    </contour>
  </outline>
</glyph>
<glyph name="three" format="2">
  <advance width="448"/>
  <unicode hex="0033"/>
  <outline>
    <contour>
      <point x="101" y="-95" type="curve" smooth="yes"/>
      <point x="265" y="-95"/>
      <point x="427" y="8"/>
      <point x="427" y="112" type="curve" smooth="yes"/>
      <point x="427" y="175"/>
      <point x="376" y="225"/>
      <point x="284" y="252" type="curve"/>
      <point x="284" y="263" type="line"/>
      <point x="352" y="284"/>
      <point x="395" y="335"/>
      <point x="395" y="394" type="curve" smooth="yes"/>
      <point x="395" y="467"/>
      <point x="328" y="515"/>
      <point x="227" y="515" type="curve" smooth="yes"/>
      <point x="165" y="515"/>
      <point x="76" y="482"/>
      <point x="19" y="438" type="curve"/>
      <point x="51" y="335" type="line"/>
      <point x="56" y="335"/>
      <point x="61" y="336"/>
      <point x="66" y="336" type="curve"/>
      <point x="105" y="367"/>
      <point x="142" y="384"/>
      <point x="170" y="384" type="curve" smooth="yes"/>
      <point x="197" y="384"/>
      <point x="214" y="369"/>
      <point x="214" y="346" type="curve" smooth="yes"/>
      <point x="214" y="315"/>
      <point x="193" y="289"/>
      <point x="156" y="274" type="curve"/>
      <point x="91" y="261" type="line"/>
      <point x="101" y="171" type="line"/>
      <point x="114" y="156" type="line"/>
      <point x="194" y="156"/>
      <point x="228" y="139"/>
      <point x="228" y="99" type="curve" smooth="yes"/>
      <point x="228" y="66"/>
      <point x="183" y="44"/>
      <point x="116" y="44" type="curve" smooth="yes"/>
      <point x="78" y="44"/>
      <point x="48" y="50"/>
      <point x="24" y="62" type="curve"/>
      <point x="2" y="39" type="line"/>
      <point x="10" y="-60"/>
      <point x="32" y="-95"/>
    </contour>
  </outline>
</glyph>
<glyph name="four" format="2">
  <advance width="490"/>
  <unicode hex="0034"/>
  <outline>
    <contour>
      <point x="236" y="-95" type="line"/>
      <point x="400" y="-83" type="line"/>
      <point x="411" y="-72" type="line"/>
      <point x="411" y="-72"/>
      <point x="407" y="-16"/>
      <point x="405" y="47" type="curve"/>
      <point x="446" y="46"/>
      <point x="473" y="45"/>
      <point x="473" y="45" type="curve"/>
      <point x="484" y="158" type="line"/>
      <point x="473" y="173" type="line"/>
      <point x="404" y="173" type="line"/>
      <point x="404" y="503" type="line"/>
      <point x="264" y="515" type="line"/>
      <point x="262" y="515"/>
      <point x="257" y="513"/>
      <point x="255" y="513" type="curve"/>
      <point x="1" y="155" type="line"/>
      <point x="1" y="122"/>
      <point x="0" y="88"/>
      <point x="0" y="55" type="curve"/>
      <point x="66" y="55"/>
      <point x="152" y="54"/>
      <point x="232" y="52" type="curve"/>
      <point x="230" y="-14"/>
      <point x="226" y="-83"/>
      <point x="226" y="-83" type="curve"/>
    </contour>
    <contour>
      <point x="136" y="173" type="line"/>
      <point x="222" y="300" type="line"/>
      <point x="233" y="300" type="line"/>
      <point x="233" y="173" type="line"/>
    </contour>
  </outline>
</glyph>
<glyph name="five" format="2">
  <advance width="423"/>
  <unicode hex="0035"/>
  <outline>
    <contour>
      <point x="83" y="-95" type="curve" smooth="yes"/>
      <point x="248" y="-95"/>
      <point x="404" y="16"/>
      <point x="404" y="133" type="curve" smooth="yes"/>
      <point x="404" y="223"/>
      <point x="339" y="269"/>
      <point x="170" y="298" type="curve"/>
      <point x="178" y="348" type="line"/>
      <point x="278" y="348"/>
      <point x="357" y="340"/>
      <point x="357" y="340" type="curve"/>
      <point x="376" y="359" type="line"/>
      <point x="405" y="538" type="line"/>
      <point x="326" y="533" type="line"/>
      <point x="316" y="503"/>
      <point x="301" y="494"/>
      <point x="263" y="493" type="curve" smooth="yes"/>
      <point x="65" y="487" type="line"/>
      <point x="57" y="479" type="line"/>
      <point x="57" y="479"/>
      <point x="50" y="325"/>
      <point x="34" y="180" type="curve"/>
      <point x="43" y="169" type="line"/>
      <point x="166" y="157"/>
      <point x="210" y="139"/>
      <point x="210" y="100" type="curve" smooth="yes"/>
      <point x="210" y="67"/>
      <point x="163" y="44"/>
      <point x="98" y="44" type="curve" smooth="yes"/>
      <point x="65" y="44"/>
      <point x="33" y="49"/>
      <point x="6" y="62" type="curve"/>
      <point x="-16" y="39" type="line"/>
      <point x="-9" y="-60"/>
      <point x="16" y="-95"/>
    </contour>
  </outline>
</glyph>
<glyph name="seven" format="2">
  <advance width="435"/>
  <unicode hex="0037"/>
  <outline>
    <contour>
      <point x="208" y="-95" type="line"/>
      <point x="235" y="-95" type="line"/>
      <point x="273" y="48" type="line"/>
      <point x="333" y="200"/>
      <point x="360" y="263"/>
      <point x="438" y="433" type="curve"/>
      <point x="381" y="503" type="line"/>
      <point x="158" y="503" type="line" smooth="yes"/>
      <point x="96" y="503"/>
      <point x="36" y="507"/>
      <point x="36" y="507" type="curve"/>
      <point x="30" y="502" type="line"/>
      <point x="25" y="396"/>
      <point x="10" y="263"/>
      <point x="10" y="263" type="curve"/>
      <point x="93" y="269" type="line"/>
      <point x="104" y="334"/>
      <point x="116" y="345"/>
      <point x="175" y="351" type="curve" smooth="yes"/>
      <point x="267" y="360" type="line"/>
      <point x="72" y="-29" type="line"/>
      <point x="84" y="-57" type="line"/>
    </contour>
  </outline>
</glyph>
<glyph name="at" format="2">
  <advance width="897"/>
  <unicode hex="0040"/>
  <outline>
    <contour>
      <point x="493" y="-240" type="curve"/>
      <point x="530" y="-176" type="line"/>
      <point x="530" y="-167"/>
      <point x="531" y="-158"/>
      <point x="531" y="-149" type="curve"/>
      <point x="267" y="-149"/>
      <point x="123" y="-25"/>
      <point x="123" y="203" type="curve" smooth="yes"/>
      <point x="123" y="411"/>
      <point x="272" y="567"/>
      <point x="473" y="568" type="curve" smooth="yes"/>
      <point x="661" y="568"/>
      <point x="776" y="470"/>
      <point x="776" y="310" type="curve" smooth="yes"/>
      <point x="776" y="191"/>
      <point x="709" y="104"/>
      <point x="617" y="104" type="curve"/>
      <point x="610" y="112" type="line"/>
      <point x="631" y="240"/>
      <point x="679" y="449"/>
      <point x="679" y="449" type="curve"/>
      <point x="671" y="472" type="line"/>
      <point x="537" y="484" type="line"/>
      <point x="518" y="472" type="line"/>
      <point x="513" y="452" type="line"/>
      <point x="441" y="472" type="line"/>
      <point x="319" y="472"/>
      <point x="187" y="302"/>
      <point x="187" y="145" type="curve" smooth="yes"/>
      <point x="187" y="46"/>
      <point x="243" y="-12"/>
      <point x="338" y="-12" type="curve"/>
      <point x="379" y="16"/>
      <point x="416" y="63"/>
      <point x="471" y="158" type="curve"/>
      <point x="481" y="158" type="line"/>
      <point x="460" y="68"/>
      <point x="457" y="55"/>
      <point x="457" y="42" type="curve" smooth="yes"/>
      <point x="457" y="10"/>
      <point x="479" y="-12"/>
      <point x="511" y="-12" type="curve" smooth="yes"/>
      <point x="739" y="-12"/>
      <point x="883" y="129"/>
      <point x="883" y="350" type="curve" smooth="yes"/>
      <point x="883" y="550"/>
      <point x="739" y="673"/>
      <point x="504" y="673" type="curve" smooth="yes"/>
      <point x="244" y="673"/>
      <point x="14" y="437"/>
      <point x="14" y="169" type="curve" smooth="yes"/>
      <point x="14" y="-86"/>
      <point x="194" y="-240"/>
    </contour>
    <contour>
      <point x="384" y="143" type="curve" smooth="yes"/>
      <point x="376" y="143"/>
      <point x="370" y="170"/>
      <point x="370" y="207" type="curve" smooth="yes"/>
      <point x="370" y="281"/>
      <point x="392" y="367"/>
      <point x="411" y="367" type="curve" smooth="yes"/>
      <point x="447" y="367"/>
      <point x="485" y="341"/>
      <point x="485" y="341" type="curve"/>
      <point x="459" y="246"/>
      <point x="406" y="143"/>
    </contour>
  </outline>
</glyph>
<glyph name="D" format="2">
  <advance width="682"/>
  <unicode hex="0044"/>
  <anchor x="318" y="0" name="bottom"/>
  <anchor x="341" y="324" name="center"/>
  <anchor x="347" y="647" name="top"/>
  <outline>
    <contour>
      <point x="319" y="-12" type="curve"/>
      <point x="533" y="-12"/>
      <point x="667" y="128"/>
      <point x="667" y="352" type="curve" smooth="yes"/>
      <point x="667" y="551"/>
      <point x="560" y="653"/>
      <point x="350" y="653" type="curve" smooth="yes"/>
      <point x="350" y="653"/>
      <point x="230" y="647"/>
      <point x="184" y="647" type="curve" smooth="yes"/>
      <point x="143" y="647"/>
      <point x="32" y="650"/>
      <point x="32" y="650" type="curve"/>
      <point x="23" y="569" type="line"/>
      <point x="33" y="555" type="line"/>
      <point x="33" y="555"/>
      <point x="50" y="557"/>
      <point x="65" y="557" type="curve" smooth="yes"/>
      <point x="84" y="557"/>
      <point x="90" y="545"/>
      <point x="90" y="503" type="curve" smooth="yes"/>
      <point x="90" y="168" type="line" smooth="yes"/>
      <point x="90" y="112"/>
      <point x="75" y="93"/>
      <point x="25" y="85" type="curve"/>
      <point x="17" y="-8" type="line"/>
      <point x="17" y="-8"/>
      <point x="104" y="0"/>
      <point x="160" y="0" type="curve" smooth="yes"/>
      <point x="223" y="0"/>
      <point x="319" y="-12"/>
    </contour>
    <contour>
      <point x="314" y="526" type="curve" smooth="yes"/>
      <point x="409" y="526"/>
      <point x="438" y="477"/>
      <point x="438" y="314" type="curve" smooth="yes"/>
      <point x="438" y="168"/>
      <point x="405" y="113"/>
      <point x="319" y="113" type="curve" smooth="yes"/>
      <point x="291" y="113"/>
      <point x="283" y="123"/>
      <point x="283" y="162" type="curve" smooth="yes"/>
      <point x="283" y="298"/>
      <point x="286" y="399"/>
      <point x="293" y="499" type="curve" smooth="yes"/>
      <point x="294" y="519"/>
      <point x="299" y="526"/>
    </contour>
  </outline>
</glyph>
<glyph name="F" format="2">
  <advance width="554"/>
  <unicode hex="0046"/>
  <anchor x="182" y="0" name="bottom"/>
  <anchor x="318" y="647" name="top"/>
  <outline>
    <contour>
      <point x="13" y="-10" type="line"/>
      <point x="13" y="-10"/>
      <point x="121" y="0"/>
      <point x="224" y="0" type="curve" smooth="yes"/>
      <point x="271" y="0"/>
      <point x="387" y="-3"/>
      <point x="387" y="-3" type="curve"/>
      <point x="400" y="105" type="line"/>
      <point x="384" y="123" type="line"/>
      <point x="384" y="123"/>
      <point x="356" y="115"/>
      <point x="326" y="115" type="curve" smooth="yes"/>
      <point x="292" y="115"/>
      <point x="284" y="127"/>
      <point x="284" y="175" type="curve"/>
      <point x="285" y="243" type="line"/>
      <point x="302" y="245"/>
      <point x="331" y="249"/>
      <point x="360" y="249" type="curve" smooth="yes"/>
      <point x="404" y="249"/>
      <point x="475" y="246"/>
      <point x="475" y="246" type="curve"/>
      <point x="489" y="361" type="line"/>
      <point x="477" y="375" type="line"/>
      <point x="477" y="375"/>
      <point x="401" y="369"/>
      <point x="372" y="369" type="curve" smooth="yes"/>
      <point x="289" y="370" type="line"/>
      <point x="296" y="500" type="line"/>
      <point x="296" y="522"/>
      <point x="302" y="527"/>
      <point x="330" y="527" type="curve" smooth="yes"/>
      <point x="389" y="527"/>
      <point x="405" y="515"/>
      <point x="405" y="472" type="curve" smooth="yes"/>
      <point x="405" y="460"/>
      <point x="403" y="436"/>
      <point x="403" y="436" type="curve"/>
      <point x="541" y="444" type="line"/>
      <point x="545" y="536"/>
      <point x="559" y="643"/>
      <point x="559" y="643" type="curve"/>
      <point x="546" y="659" type="line"/>
      <point x="495" y="652"/>
      <point x="379" y="647"/>
      <point x="265" y="647" type="curve" smooth="yes"/>
      <point x="174" y="647"/>
      <point x="32" y="650"/>
      <point x="32" y="650" type="curve"/>
      <point x="23" y="571" type="line"/>
      <point x="35" y="557" type="line"/>
      <point x="35" y="557"/>
      <point x="50" y="559"/>
      <point x="61" y="559" type="curve" smooth="yes"/>
      <point x="83" y="559"/>
      <point x="88" y="548"/>
      <point x="88" y="505" type="curve" smooth="yes"/>
      <point x="87" y="170" type="line" smooth="yes"/>
      <point x="87" y="110"/>
      <point x="72" y="90"/>
      <point x="22" y="82" type="curve"/>
    </contour>
  </outline>
</glyph>
<glyph name="H" format="2">
  <advance width="739"/>
  <unicode hex="0048"/>
  <anchor x="370" y="0" name="bottom"/>
  <anchor x="654" y="172" name="bottomright"/>
  <anchor x="370" y="324" name="center"/>
  <anchor x="370" y="647" name="top"/>
  <anchor x="20" y="647" name="topleft"/>
  <outline>
    <contour>
      <point x="15" y="-5" type="line"/>
      <point x="85" y="-2"/>
      <point x="148" y="0"/>
      <point x="181" y="0" type="curve" smooth="yes"/>
      <point x="211" y="0"/>
      <point x="290" y="-2"/>
      <point x="343" y="-4" type="curve"/>
      <point x="352" y="80" type="line"/>
      <point x="344" y="90" type="line"/>
      <point x="337" y="88"/>
      <point x="326" y="87"/>
      <point x="317" y="87" type="curve" smooth="yes"/>
      <point x="291" y="87"/>
      <point x="285" y="100"/>
      <point x="285" y="156" type="curve" smooth="yes"/>
      <point x="285" y="256" type="line"/>
      <point x="332" y="261"/>
      <point x="384" y="265"/>
      <point x="398" y="265" type="curve" smooth="yes"/>
      <point x="416" y="265"/>
      <point x="442" y="264"/>
      <point x="457" y="264" type="curve"/>
      <point x="457" y="162" type="line" smooth="yes"/>
      <point x="457" y="108"/>
      <point x="439" y="87"/>
      <point x="391" y="86" type="curve"/>
      <point x="383" y="-1" type="line"/>
      <point x="435" y="-1"/>
      <point x="515" y="0"/>
      <point x="549" y="0" type="curve" smooth="yes"/>
      <point x="603" y="0"/>
      <point x="677" y="-1"/>
      <point x="720" y="-2" type="curve"/>
      <point x="729" y="81" type="line"/>
      <point x="721" y="92" type="line"/>
      <point x="715" y="91"/>
      <point x="704" y="89"/>
      <point x="693" y="89" type="curve" smooth="yes"/>
      <point x="663" y="89"/>
      <point x="654" y="108"/>
      <point x="654" y="172" type="curve" smooth="yes"/>
      <point x="654" y="293"/>
      <point x="658" y="434"/>
      <point x="664" y="510" type="curve" smooth="yes"/>
      <point x="666" y="547"/>
      <point x="676" y="556"/>
      <point x="724" y="564" type="curve"/>
      <point x="731" y="652" type="line"/>
      <point x="637" y="649"/>
      <point x="577" y="647"/>
      <point x="555" y="647" type="curve" smooth="yes"/>
      <point x="516" y="647"/>
      <point x="440" y="647"/>
      <point x="394" y="647" type="curve"/>
      <point x="386" y="572" type="line"/>
      <point x="395" y="558" type="line"/>
      <point x="402" y="558"/>
      <point x="414" y="559"/>
      <point x="422" y="559" type="curve" smooth="yes"/>
      <point x="450" y="559"/>
      <point x="457" y="548"/>
      <point x="457" y="508" type="curve" smooth="yes"/>
      <point x="457" y="389" type="line"/>
      <point x="434" y="387"/>
      <point x="411" y="386"/>
      <point x="373" y="386" type="curve"/>
      <point x="288" y="389" type="line"/>
      <point x="294" y="510" type="line" smooth="yes"/>
      <point x="296" y="546"/>
      <point x="304" y="554"/>
      <point x="347" y="562" type="curve"/>
      <point x="354" y="652" type="line"/>
      <point x="258" y="649"/>
      <point x="186" y="647"/>
      <point x="155" y="647" type="curve" smooth="yes"/>
      <point x="124" y="647"/>
      <point x="63" y="647"/>
      <point x="26" y="647" type="curve"/>
      <point x="18" y="572" type="line"/>
      <point x="27" y="558" type="line"/>
      <point x="33" y="558"/>
      <point x="45" y="559"/>
      <point x="53" y="559" type="curve" smooth="yes"/>
      <point x="81" y="559"/>
      <point x="88" y="549"/>
      <point x="88" y="508" type="curve" smooth="yes"/>
      <point x="88" y="162" type="line" smooth="yes"/>
      <point x="88" y="106"/>
      <point x="76" y="91"/>
      <point x="23" y="80" type="curve"/>
    </contour>
  </outline>
</glyph>
<glyph name="I" format="2">
  <advance width="370"/>
  <unicode hex="0049"/>
  <anchor x="185" y="0" name="bottom"/>
  <anchor x="281" y="40" name="ogonek"/>
  <anchor x="185" y="647" name="top"/>
  <anchor x="20" y="647" name="topleft"/>
  <outline>
    <contour>
      <point x="15" y="-5" type="line"/>
      <point x="82" y="-2"/>
      <point x="147" y="0"/>
      <point x="181" y="0" type="curve" smooth="yes"/>
      <point x="211" y="0"/>
      <point x="293" y="-2"/>
      <point x="348" y="-4" type="curve"/>
      <point x="357" y="80" type="line"/>
      <point x="349" y="90" type="line"/>
      <point x="340" y="88"/>
      <point x="327" y="87"/>
      <point x="317" y="87" type="curve" smooth="yes"/>
      <point x="291" y="87"/>
      <point x="285" y="100"/>
      <point x="285" y="156" type="curve" smooth="yes"/>
      <point x="285" y="275"/>
      <point x="289" y="406"/>
      <point x="295" y="510" type="curve" smooth="yes"/>
      <point x="298" y="547"/>
      <point x="306" y="555"/>
      <point x="352" y="562" type="curve"/>
      <point x="359" y="652" type="line"/>
      <point x="270" y="649"/>
      <point x="209" y="647"/>
      <point x="187" y="647" type="curve" smooth="yes"/>
      <point x="133" y="647"/>
      <point x="80" y="647"/>
      <point x="26" y="647" type="curve"/>
      <point x="18" y="572" type="line"/>
      <point x="27" y="558" type="line"/>
      <point x="33" y="558"/>
      <point x="45" y="559"/>
      <point x="53" y="559" type="curve" smooth="yes"/>
      <point x="81" y="559"/>
      <point x="88" y="549"/>
      <point x="88" y="508" type="curve" smooth="yes"/>
      <point x="88" y="162" type="line" smooth="yes"/>
      <point x="88" y="107"/>
      <point x="77" y="92"/>
      <point x="23" y="80" type="curve"/>
    </contour>
  </outline>
</glyph>
<glyph name="J" format="2">
  <advance width="339"/>
  <unicode hex="004A"/>
  <anchor x="143" y="0" name="bottom"/>
  <anchor x="168" y="647" name="top"/>
  <outline>
    <contour>
      <point x="35" y="-164" type="line"/>
      <point x="202" y="-120"/>
      <point x="275" y="-43"/>
      <point x="275" y="85" type="curve" smooth="yes"/>
      <point x="275" y="222"/>
      <point x="281" y="418"/>
      <point x="287" y="510" type="curve" smooth="yes"/>
      <point x="290" y="547"/>
      <point x="295" y="553"/>
      <point x="334" y="562" type="curve"/>
      <point x="342" y="655" type="line"/>
      <point x="342" y="655"/>
      <point x="249" y="649"/>
      <point x="152" y="648" type="curve" smooth="yes"/>
      <point x="11" y="647" type="line"/>
      <point x="3" y="571" type="line"/>
      <point x="12" y="557" type="line"/>
      <point x="12" y="557"/>
      <point x="33" y="559"/>
      <point x="48" y="559" type="curve" smooth="yes"/>
      <point x="74" y="559"/>
      <point x="80" y="549"/>
      <point x="80" y="508" type="curve" smooth="yes"/>
      <point x="80" y="132" type="line" smooth="yes"/>
      <point x="80" y="2"/>
      <point x="65" y="-39"/>
      <point x="-3" y="-101" type="curve"/>
      <point x="-5" y="-116" type="line"/>
    </contour>
  </outline>
</glyph>
<glyph name="M" format="2">
  <advance width="834"/>
  <unicode hex="004D"/>
  <anchor x="402" y="0" name="bottom"/>
  <anchor x="418" y="647" name="top"/>
  <outline>
    <contour>
      <point x="339" y="-12" type="curve"/>
      <point x="460" y="-2" type="line"/>
      <point x="514" y="194"/>
      <point x="570" y="362"/>
      <point x="572" y="369" type="curve"/>
      <point x="585" y="369" type="line"/>
      <point x="589" y="219"/>
      <point x="590" y="153"/>
      <point x="590" y="130" type="curve" smooth="yes"/>
      <point x="590" y="98"/>
      <point x="576" y="85"/>
      <point x="539" y="81" type="curve"/>
      <point x="527" y="-8" type="line"/>
      <point x="536" y="-6"/>
      <point x="671" y="0"/>
      <point x="716" y="0" type="curve" smooth="yes"/>
      <point x="750" y="0"/>
      <point x="798" y="-2"/>
      <point x="825" y="-3" type="curve"/>
      <point x="834" y="81" type="line"/>
      <point x="827" y="89" type="line"/>
      <point x="820" y="88"/>
      <point x="808" y="87"/>
      <point x="798" y="87" type="curve" smooth="yes"/>
      <point x="768" y="87"/>
      <point x="757" y="107"/>
      <point x="751" y="175" type="curve"/>
      <point x="741" y="269"/>
      <point x="729" y="452"/>
      <point x="729" y="511" type="curve" smooth="yes"/>
      <point x="729" y="551"/>
      <point x="741" y="560"/>
      <point x="796" y="563" type="curve"/>
      <point x="804" y="649" type="line"/>
      <point x="797" y="653" type="line"/>
      <point x="777" y="652"/>
      <point x="737" y="649"/>
      <point x="703" y="647" type="curve" smooth="yes"/>
      <point x="642" y="643"/>
      <point x="582" y="647"/>
      <point x="522" y="647" type="curve"/>
      <point x="500" y="557"/>
      <point x="462" y="420"/>
      <point x="434" y="326" type="curve"/>
      <point x="422" y="326" type="line"/>
      <point x="395" y="423"/>
      <point x="362" y="560"/>
      <point x="344" y="651" type="curve"/>
      <point x="299" y="649"/>
      <point x="229" y="647"/>
      <point x="193" y="647" type="curve" smooth="yes"/>
      <point x="171" y="647"/>
      <point x="122" y="649"/>
      <point x="48" y="652" type="curve"/>
      <point x="38" y="568" type="line"/>
      <point x="46" y="560" type="line"/>
      <point x="106" y="553"/>
      <point x="109" y="551"/>
      <point x="109" y="514" type="curve" smooth="yes"/>
      <point x="109" y="499"/>
      <point x="75" y="155"/>
      <point x="73" y="147" type="curve" smooth="yes"/>
      <point x="62" y="98"/>
      <point x="50" y="84"/>
      <point x="16" y="80" type="curve"/>
      <point x="8" y="-8" type="line"/>
      <point x="8" y="-6"/>
      <point x="96" y="0"/>
      <point x="124" y="0" type="curve" smooth="yes"/>
      <point x="148" y="0"/>
      <point x="219" y="-2"/>
      <point x="265" y="-4" type="curve"/>
      <point x="277" y="80" type="line"/>
      <point x="268" y="88" type="line"/>
      <point x="260" y="87"/>
      <point x="247" y="86"/>
      <point x="242" y="86" type="curve" smooth="yes"/>
      <point x="219" y="86"/>
      <point x="209" y="97"/>
      <point x="209" y="120" type="curve" smooth="yes"/>
      <point x="209" y="141"/>
      <point x="213" y="290"/>
      <point x="215" y="369" type="curve"/>
      <point x="228" y="369" type="line"/>
      <point x="230" y="362"/>
      <point x="282" y="198"/>
    </contour>
  </outline>
</glyph>
<glyph name="N" format="2">
  <advance width="739"/>
  <unicode hex="004E"/>
  <anchor x="370" y="0" name="bottom"/>
  <anchor x="370" y="647" name="top"/>
  <outline>
    <contour>
      <point x="475" y="-12" type="curve"/>
      <point x="663" y="0" type="line"/>
      <point x="676" y="497" type="line" smooth="yes"/>
      <point x="677" y="538"/>
      <point x="691" y="554"/>
      <point x="734" y="560" type="curve"/>
      <point x="739" y="650" type="line"/>
      <point x="739" y="649"/>
      <point x="656" y="647"/>
      <point x="600" y="647" type="curve" smooth="yes"/>
      <point x="544" y="647"/>
      <point x="434" y="651"/>
      <point x="434" y="651" type="curve"/>
      <point x="429" y="570" type="line"/>
      <point x="434" y="559" type="line"/>
      <point x="444" y="559"/>
      <point x="455" y="559"/>
      <point x="465" y="559" type="curve" smooth="yes"/>
      <point x="489" y="559"/>
      <point x="496" y="550"/>
      <point x="498" y="516" type="curve" smooth="yes"/>
      <point x="502" y="333" type="line"/>
      <point x="487" y="333" type="line"/>
      <point x="487" y="333"/>
      <point x="385" y="489"/>
      <point x="295" y="651" type="curve"/>
      <point x="295" y="651"/>
      <point x="221" y="647"/>
      <point x="167" y="647" type="curve" smooth="yes"/>
      <point x="94" y="647"/>
      <point x="19" y="652"/>
      <point x="19" y="652" type="curve"/>
      <point x="13" y="571" type="line"/>
      <point x="25" y="557" type="line"/>
      <point x="88" y="550"/>
      <point x="100" y="540"/>
      <point x="100" y="494" type="curve"/>
      <point x="88" y="145" type="line" smooth="yes"/>
      <point x="87" y="105"/>
      <point x="70" y="87"/>
      <point x="31" y="82" type="curve"/>
      <point x="21" y="-8" type="line"/>
      <point x="21" y="-8"/>
      <point x="106" y="0"/>
      <point x="175" y="0" type="curve" smooth="yes"/>
      <point x="218" y="0"/>
      <point x="329" y="-4"/>
      <point x="329" y="-4" type="curve"/>
      <point x="340" y="81" type="line"/>
      <point x="331" y="90" type="line"/>
      <point x="331" y="90"/>
      <point x="309" y="86"/>
      <point x="297" y="86" type="curve" smooth="yes"/>
      <point x="268" y="86"/>
      <point x="259" y="99"/>
      <point x="258" y="137" type="curve" smooth="yes"/>
      <point x="255" y="315" type="line"/>
      <point x="270" y="315" type="line"/>
      <point x="270" y="315"/>
      <point x="363" y="174"/>
    </contour>
  </outline>
</glyph>
<glyph name="O" format="2">
  <advance width="655"/>
  <unicode hex="004F"/>
  <anchor x="328" y="0" name="bottom"/>
  <anchor x="328" y="324" name="center"/>
  <anchor x="589" y="10" name="ogonek"/>
  <anchor x="328" y="647" name="top"/>
  <anchor x="20" y="647" name="topleft"/>
  <anchor x="635" y="647" name="topright"/>
  <outline>
    <contour>
      <point x="313" y="-12" type="curve" smooth="yes"/>
      <point x="522" y="-12"/>
      <point x="640" y="115"/>
      <point x="640" y="340" type="curve" smooth="yes"/>
      <point x="640" y="551"/>
      <point x="540" y="659"/>
      <point x="342" y="659" type="curve" smooth="yes"/>
      <point x="130" y="659"/>
      <point x="15" y="536"/>
      <point x="15" y="312" type="curve" smooth="yes"/>
      <point x="15" y="103"/>
      <point x="120" y="-12"/>
    </contour>
    <contour>
      <point x="332" y="114" type="curve" smooth="yes"/>
      <point x="267" y="114"/>
      <point x="244" y="179"/>
      <point x="244" y="361" type="curve" smooth="yes"/>
      <point x="244" y="478"/>
      <point x="265" y="522"/>
      <point x="321" y="522" type="curve" smooth="yes"/>
      <point x="388" y="522"/>
      <point x="411" y="459"/>
      <point x="411" y="277" type="curve" smooth="yes"/>
      <point x="411" y="159"/>
      <point x="389" y="114"/>
    </contour>
  </outline>
</glyph>
<glyph name="R" format="2">
  <advance width="678"/>
  <unicode hex="0052"/>
  <anchor x="339" y="0" name="bottom"/>
  <anchor x="329" y="647" name="top"/>
  <outline>
    <contour>
      <point x="517" y="-16" type="curve"/>
      <point x="672" y="-5" type="line"/>
      <point x="681" y="68" type="line"/>
      <point x="670" y="84" type="line"/>
      <point x="641" y="84"/>
      <point x="607" y="115"/>
      <point x="573" y="172" type="curve" smooth="yes"/>
      <point x="511" y="276" type="line"/>
      <point x="590" y="323"/>
      <point x="631" y="387"/>
      <point x="631" y="465" type="curve" smooth="yes"/>
      <point x="631" y="591"/>
      <point x="539" y="653"/>
      <point x="355" y="653" type="curve" smooth="yes"/>
      <point x="355" y="653"/>
      <point x="218" y="647"/>
      <point x="170" y="647" type="curve" smooth="yes"/>
      <point x="129" y="647"/>
      <point x="28" y="648"/>
      <point x="28" y="648" type="curve"/>
      <point x="17" y="569" type="line"/>
      <point x="27" y="557" type="line"/>
      <point x="27" y="557"/>
      <point x="47" y="559"/>
      <point x="62" y="559" type="curve" smooth="yes"/>
      <point x="82" y="559"/>
      <point x="88" y="548"/>
      <point x="88" y="515" type="curve" smooth="yes"/>
      <point x="88" y="168" type="line" smooth="yes"/>
      <point x="88" y="112"/>
      <point x="72" y="91"/>
      <point x="23" y="83" type="curve"/>
      <point x="14" y="-9" type="line"/>
      <point x="14" y="-9"/>
      <point x="113" y="0"/>
      <point x="187" y="0" type="curve" smooth="yes"/>
      <point x="229" y="0"/>
      <point x="351" y="-4"/>
      <point x="351" y="-4" type="curve"/>
      <point x="361" y="80" type="line"/>
      <point x="356" y="88" type="line"/>
      <point x="292" y="91"/>
      <point x="285" y="98"/>
      <point x="285" y="160" type="curve" smooth="yes"/>
      <point x="285" y="228" type="line"/>
      <point x="341" y="228" type="line"/>
      <point x="403" y="75" type="line" smooth="yes"/>
      <point x="429" y="9"/>
      <point x="461" y="-16"/>
    </contour>
    <contour>
      <point x="364" y="344" type="curve"/>
      <point x="288" y="354" type="line"/>
      <point x="289" y="405"/>
      <point x="291" y="455"/>
      <point x="295" y="506" type="curve" smooth="yes"/>
      <point x="296" y="525"/>
      <point x="298" y="528"/>
      <point x="312" y="528" type="curve" smooth="yes"/>
      <point x="390" y="528"/>
      <point x="425" y="502"/>
      <point x="425" y="445" type="curve" smooth="yes"/>
      <point x="425" y="388"/>
      <point x="409" y="363"/>
    </contour>
  </outline>
</glyph>
<glyph name="S" format="2">
  <advance width="551"/>
  <unicode hex="0053"/>
  <anchor x="254" y="0" name="bottom"/>
  <anchor x="286" y="647" name="top"/>
  <outline>
    <contour>
      <point x="222" y="-12" type="curve" smooth="yes"/>
      <point x="416" y="-12"/>
      <point x="535" y="67"/>
      <point x="535" y="197" type="curve" smooth="yes"/>
      <point x="535" y="308"/>
      <point x="445" y="353"/>
      <point x="364" y="387" type="curve" smooth="yes"/>
      <point x="298" y="415"/>
      <point x="238" y="435"/>
      <point x="238" y="476" type="curve" smooth="yes"/>
      <point x="238" y="503"/>
      <point x="264" y="521"/>
      <point x="301" y="521" type="curve" smooth="yes"/>
      <point x="348" y="521"/>
      <point x="374" y="498"/>
      <point x="374" y="451" type="curve" smooth="yes"/>
      <point x="374" y="446"/>
      <point x="374" y="435"/>
      <point x="374" y="435" type="curve"/>
      <point x="386" y="427" type="line"/>
      <point x="502" y="435" type="line"/>
      <point x="510" y="525"/>
      <point x="529" y="609"/>
      <point x="529" y="609" type="curve"/>
      <point x="517" y="631" type="line"/>
      <point x="517" y="631"/>
      <point x="436" y="659"/>
      <point x="326" y="659" type="curve" smooth="yes"/>
      <point x="141" y="659"/>
      <point x="18" y="574"/>
      <point x="18" y="445" type="curve" smooth="yes"/>
      <point x="18" y="341"/>
      <point x="95" y="293"/>
      <point x="171" y="259" type="curve" smooth="yes"/>
      <point x="243" y="226"/>
      <point x="314" y="206"/>
      <point x="314" y="162" type="curve" smooth="yes"/>
      <point x="314" y="137"/>
      <point x="289" y="121"/>
      <point x="248" y="121" type="curve" smooth="yes"/>
      <point x="191" y="121"/>
      <point x="160" y="151"/>
      <point x="160" y="223" type="curve"/>
      <point x="34" y="214" type="line"/>
      <point x="31" y="148"/>
      <point x="13" y="49"/>
      <point x="13" y="49" type="curve"/>
      <point x="25" y="31" type="line"/>
      <point x="25" y="31"/>
      <point x="105" y="-12"/>
    </contour>
  </outline>
</glyph>
<glyph name="V" format="2">
  <advance width="641"/>
  <unicode hex="0056"/>
  <anchor x="312" y="0" name="bottom"/>
  <anchor x="346" y="647" name="top"/>
  <outline>
    <contour>
      <point x="175" y="-13" type="curve"/>
      <point x="450" y="4" type="line"/>
      <point x="599" y="506" type="line"/>
      <point x="611" y="544"/>
      <point x="618" y="554"/>
      <point x="640" y="561" type="curve"/>
      <point x="647" y="648" type="line"/>
      <point x="647" y="648"/>
      <point x="581" y="647"/>
      <point x="524" y="647" type="curve" smooth="yes"/>
      <point x="463" y="647"/>
      <point x="370" y="650"/>
      <point x="370" y="650" type="curve"/>
      <point x="362" y="567" type="line"/>
      <point x="370" y="557" type="line"/>
      <point x="396" y="557" type="line" smooth="yes"/>
      <point x="422" y="557"/>
      <point x="427" y="554"/>
      <point x="427" y="537" type="curve" smooth="yes"/>
      <point x="427" y="504"/>
      <point x="345" y="168"/>
      <point x="345" y="168" type="curve"/>
      <point x="323" y="168" type="line"/>
      <point x="323" y="168"/>
      <point x="269" y="485"/>
      <point x="269" y="525" type="curve" smooth="yes"/>
      <point x="269" y="550"/>
      <point x="271" y="551"/>
      <point x="333" y="559" type="curve"/>
      <point x="339" y="643" type="line"/>
      <point x="331" y="652" type="line"/>
      <point x="331" y="652"/>
      <point x="235" y="647"/>
      <point x="140" y="647" type="curve" smooth="yes"/>
      <point x="87" y="647"/>
      <point x="3" y="649"/>
      <point x="3" y="649" type="curve"/>
      <point x="-5" y="570" type="line"/>
      <point x="2" y="560" type="line"/>
      <point x="30" y="556"/>
      <point x="45" y="538"/>
      <point x="57" y="493" type="curve" smooth="yes"/>
      <point x="85" y="385"/>
      <point x="175" y="-13"/>
    </contour>
  </outline>
</glyph>
<glyph name="W" format="2">
  <advance width="998"/>
  <unicode hex="0057"/>
  <anchor x="495" y="0" name="bottom"/>
  <anchor x="518" y="647" name="top"/>
  <outline>
    <contour>
      <point x="168" y="-13" type="curve"/>
      <point x="433" y="4" type="line"/>
      <point x="496" y="272" type="line"/>
      <point x="510" y="272" type="line"/>
      <point x="525" y="177"/>
      <point x="539" y="82"/>
      <point x="554" y="-13" type="curve"/>
      <point x="819" y="4" type="line"/>
      <point x="957" y="506" type="line"/>
      <point x="969" y="544"/>
      <point x="976" y="554"/>
      <point x="997" y="561" type="curve"/>
      <point x="1004" y="648" type="line"/>
      <point x="1004" y="648"/>
      <point x="941" y="647"/>
      <point x="886" y="647" type="curve" smooth="yes"/>
      <point x="828" y="647"/>
      <point x="738" y="650"/>
      <point x="738" y="650" type="curve"/>
      <point x="730" y="567" type="line"/>
      <point x="737" y="557" type="line"/>
      <point x="762" y="557" type="line" smooth="yes"/>
      <point x="787" y="557"/>
      <point x="792" y="554"/>
      <point x="792" y="537" type="curve" smooth="yes"/>
      <point x="792" y="504"/>
      <point x="713" y="168"/>
      <point x="713" y="168" type="curve"/>
      <point x="692" y="168" type="line"/>
      <point x="692" y="168"/>
      <point x="641" y="485"/>
      <point x="641" y="525" type="curve" smooth="yes"/>
      <point x="641" y="551"/>
      <point x="642" y="551"/>
      <point x="702" y="559" type="curve"/>
      <point x="709" y="643" type="line"/>
      <point x="701" y="652" type="line"/>
      <point x="701" y="652"/>
      <point x="609" y="647"/>
      <point x="518" y="647" type="curve" smooth="yes"/>
      <point x="459" y="647"/>
      <point x="356" y="649"/>
      <point x="356" y="649" type="curve"/>
      <point x="347" y="570" type="line"/>
      <point x="354" y="560" type="line"/>
      <point x="400" y="560"/>
      <point x="410" y="555"/>
      <point x="410" y="529" type="curve" smooth="yes"/>
      <point x="410" y="524"/>
      <point x="409" y="515"/>
      <point x="407" y="502" type="curve"/>
      <point x="392" y="414"/>
      <point x="331" y="168"/>
      <point x="331" y="168" type="curve"/>
      <point x="310" y="168" type="line"/>
      <point x="310" y="168"/>
      <point x="258" y="485"/>
      <point x="258" y="525" type="curve" smooth="yes"/>
      <point x="258" y="550"/>
      <point x="260" y="551"/>
      <point x="320" y="559" type="curve"/>
      <point x="326" y="643" type="line"/>
      <point x="319" y="652" type="line"/>
      <point x="319" y="652"/>
      <point x="226" y="647"/>
      <point x="135" y="647" type="curve" smooth="yes"/>
      <point x="84" y="647"/>
      <point x="4" y="649"/>
      <point x="4" y="649" type="curve"/>
      <point x="-5" y="570" type="line"/>
      <point x="-3" y="567"/>
      <point x="0" y="563"/>
      <point x="2" y="560" type="curve"/>
      <point x="29" y="556"/>
      <point x="43" y="538"/>
      <point x="55" y="493" type="curve" smooth="yes"/>
      <point x="81" y="385"/>
      <point x="168" y="-13"/>
    </contour>
  </outline>
</glyph>
<glyph name="Z" format="2">
  <advance width="594"/>
  <unicode hex="005A"/>
  <anchor x="313" y="0" name="bottom"/>
  <anchor x="331" y="647" name="top"/>
  <outline>
    <contour>
      <point x="39" y="-7" type="line"/>
      <point x="121" y="3" type="line"/>
      <point x="550" y="-3" type="line"/>
      <point x="571" y="19" type="line"/>
      <point x="573" y="119"/>
      <point x="594" y="275"/>
      <point x="594" y="275" type="curve"/>
      <point x="468" y="266" type="line"/>
      <point x="459" y="173"/>
      <point x="433" y="136"/>
      <point x="369" y="124" type="curve"/>
      <point x="264" y="109" type="line"/>
      <point x="319" y="194"/>
      <point x="448" y="396"/>
      <point x="597" y="595" type="curve"/>
      <point x="572" y="649" type="line"/>
      <point x="241" y="649" type="line"/>
      <point x="60" y="660" type="line"/>
      <point x="49" y="649" type="line"/>
      <point x="46" y="556"/>
      <point x="34" y="409"/>
      <point x="34" y="409" type="curve"/>
      <point x="160" y="418" type="line"/>
      <point x="163" y="503"/>
      <point x="175" y="517"/>
      <point x="252" y="532" type="curve"/>
      <point x="329" y="542" type="line"/>
      <point x="3" y="51" type="line"/>
    </contour>
  </outline>
</glyph>
<glyph name="bracketleft" format="2">
  <advance width="326"/>
  <unicode hex="005B"/>
  <outline>
    <contour>
      <point x="315" y="-127" type="line"/>
      <point x="323" y="-44" type="line"/>
      <point x="319" y="-33" type="line"/>
      <point x="223" y="-16" type="line"/>
      <point x="223" y="539" type="line"/>
      <point x="315" y="556" type="line"/>
      <point x="323" y="640" type="line"/>
      <point x="319" y="650" type="line"/>
      <point x="65" y="639" type="line"/>
      <point x="65" y="639"/>
      <point x="76" y="360"/>
      <point x="76" y="260" type="curve" smooth="yes"/>
      <point x="76" y="160"/>
      <point x="65" y="-116"/>
      <point x="65" y="-116" type="curve"/>
    </contour>
  </outline>
</glyph>
<glyph name="a" format="2">
  <advance width="503"/>
  <unicode hex="0061"/>
  <anchor x="229" y="0" name="bottom"/>
  <anchor x="420" y="41" name="ogonek"/>
  <anchor x="241" y="474" name="top"/>
  <outline>
    <contour>
      <point x="394" y="-12" type="curve"/>
      <point x="428" y="-5"/>
      <point x="476" y="61"/>
      <point x="502" y="109" type="curve"/>
      <point x="485" y="136" type="line"/>
      <point x="477" y="133"/>
      <point x="463" y="128"/>
      <point x="451" y="128" type="curve" smooth="yes"/>
      <point x="434" y="128"/>
      <point x="422" y="142"/>
      <point x="422" y="162" type="curve" smooth="yes"/>
      <point x="422" y="190"/>
      <point x="444" y="307"/>
      <point x="444" y="339" type="curve" smooth="yes"/>
      <point x="444" y="412"/>
      <point x="397" y="484"/>
      <point x="245" y="484" type="curve" smooth="yes"/>
      <point x="207" y="484"/>
      <point x="104" y="437"/>
      <point x="37" y="401" type="curve"/>
      <point x="62" y="321" type="line"/>
      <point x="74" y="315" type="line"/>
      <point x="101" y="333"/>
      <point x="151" y="358"/>
      <point x="189" y="358" type="curve" smooth="yes"/>
      <point x="240" y="358"/>
      <point x="271" y="331"/>
      <point x="271" y="286" type="curve"/>
      <point x="271" y="285" type="line"/>
      <point x="75" y="249" type="line" smooth="yes"/>
      <point x="37" y="241"/>
      <point x="11" y="206"/>
      <point x="11" y="162" type="curve" smooth="yes"/>
      <point x="11" y="67"/>
      <point x="76" y="-8"/>
      <point x="158" y="-8" type="curve" smooth="yes"/>
      <point x="189" y="-8"/>
      <point x="238" y="34"/>
      <point x="269" y="66" type="curve"/>
      <point x="281" y="61" type="line"/>
      <point x="287" y="14"/>
      <point x="328" y="-12"/>
    </contour>
    <contour>
      <point x="219" y="120" type="curve" smooth="yes"/>
      <point x="194" y="120"/>
      <point x="179" y="143"/>
      <point x="179" y="174" type="curve" smooth="yes"/>
      <point x="179" y="188"/>
      <point x="183" y="193"/>
      <point x="197" y="196" type="curve" smooth="yes"/>
      <point x="269" y="212" type="line"/>
      <point x="268" y="126" type="line"/>
      <point x="254" y="123"/>
      <point x="234" y="120"/>
    </contour>
  </outline>
</glyph>
<glyph name="b" format="2">
  <advance width="520"/>
  <unicode hex="0062"/>
  <anchor x="252" y="0" name="bottom"/>
  <anchor x="215" y="463" name="top"/>
  <outline>
    <contour>
      <point x="250" y="-7" type="curve" smooth="yes"/>
      <point x="408" y="-7"/>
      <point x="506" y="92"/>
      <point x="506" y="251" type="curve" smooth="yes"/>
      <point x="506" y="396"/>
      <point x="438" y="479"/>
      <point x="319" y="479" type="curve" smooth="yes"/>
      <point x="308" y="479"/>
      <point x="269" y="452"/>
      <point x="224" y="420" type="curve" smooth="yes"/>
      <point x="229" y="599"/>
      <point x="239" y="701"/>
      <point x="255" y="716" type="curve" smooth="yes"/>
      <point x="246" y="742" type="line" smooth="yes"/>
      <point x="246" y="742"/>
      <point x="96" y="721"/>
      <point x="-22" y="706" type="curve" smooth="yes"/>
      <point x="-30" y="631" type="line"/>
      <point x="-25" y="624" type="line"/>
      <point x="-17" y="624"/>
      <point x="-8" y="624"/>
      <point x="0" y="624" type="curve" smooth="yes"/>
      <point x="39" y="624"/>
      <point x="48" y="613"/>
      <point x="48" y="565" type="curve"/>
      <point x="48" y="25" type="line"/>
      <point x="58" y="12" type="line" smooth="yes"/>
      <point x="58" y="12"/>
      <point x="156" y="-7"/>
    </contour>
    <contour>
      <point x="266" y="106" type="curve" smooth="yes"/>
      <point x="241" y="106"/>
      <point x="220" y="115"/>
      <point x="220" y="115" type="curve" smooth="yes"/>
      <point x="222" y="344" type="line" smooth="yes"/>
      <point x="226" y="347"/>
      <point x="238" y="353"/>
      <point x="258" y="353" type="curve" smooth="yes"/>
      <point x="299" y="353"/>
      <point x="318" y="308"/>
      <point x="318" y="210" type="curve" smooth="yes"/>
      <point x="318" y="139"/>
      <point x="301" y="106"/>
    </contour>
  </outline>
</glyph>
<glyph name="e" format="2">
  <advance width="479"/>
  <unicode hex="0065"/>
  <anchor x="261" y="0" name="bottom"/>
  <anchor x="392" y="41" name="ogonek"/>
  <anchor x="255" y="472" name="top"/>
  <outline>
    <contour>
      <point x="259" y="-12" type="curve" smooth="yes"/>
      <point x="323" y="-12"/>
      <point x="406" y="34"/>
      <point x="451" y="69" type="curve"/>
      <point x="429" y="143" type="line"/>
      <point x="420" y="148" type="line"/>
      <point x="293" y="93"/>
      <point x="211" y="115"/>
      <point x="203" y="208" type="curve"/>
      <point x="440" y="208" type="line"/>
      <point x="451" y="218" type="line"/>
      <point x="454" y="232"/>
      <point x="459" y="260"/>
      <point x="459" y="284" type="curve" smooth="yes"/>
      <point x="459" y="418"/>
      <point x="396" y="484"/>
      <point x="269" y="484" type="curve" smooth="yes"/>
      <point x="114" y="484"/>
      <point x="14" y="384"/>
      <point x="14" y="230" type="curve" smooth="yes"/>
      <point x="14" y="75"/>
      <point x="102" y="-12"/>
    </contour>
    <contour>
      <point x="198" y="284" type="line"/>
      <point x="198" y="348"/>
      <point x="213" y="373"/>
      <point x="253" y="373" type="curve" smooth="yes"/>
      <point x="280" y="373"/>
      <point x="293" y="352"/>
      <point x="293" y="308" type="curve" smooth="yes"/>
      <point x="293" y="294"/>
      <point x="291" y="291"/>
      <point x="281" y="290" type="curve" smooth="yes"/>
    </contour>
  </outline>
</glyph>
<glyph name="f" format="2">
  <advance width="355"/>
  <unicode hex="0066"/>
  <anchor x="157" y="0" name="bottom"/>
  <anchor x="265" y="749" name="top"/>
  <outline>
    <contour>
      <point x="14" y="-8" type="line"/>
      <point x="14" y="-8"/>
      <point x="112" y="0"/>
      <point x="169" y="0" type="curve" smooth="yes"/>
      <point x="217" y="0"/>
      <point x="336" y="-5"/>
      <point x="336" y="-5" type="curve"/>
      <point x="348" y="89" type="line"/>
      <point x="343" y="94" type="line"/>
      <point x="343" y="94"/>
      <point x="306" y="92"/>
      <point x="281" y="92" type="curve" smooth="yes"/>
      <point x="260" y="92"/>
      <point x="250" y="104"/>
      <point x="250" y="129" type="curve" smooth="yes"/>
      <point x="251" y="365" type="line"/>
      <point x="322" y="364"/>
      <point x="363" y="362"/>
      <point x="363" y="362" type="curve"/>
      <point x="374" y="447" type="line"/>
      <point x="369" y="454" type="line"/>
      <point x="369" y="454"/>
      <point x="324" y="451"/>
      <point x="252" y="451" type="curve"/>
      <point x="252" y="493" type="line" smooth="yes"/>
      <point x="252" y="592"/>
      <point x="267" y="616"/>
      <point x="329" y="616" type="curve" smooth="yes"/>
      <point x="384" y="616"/>
      <point x="423" y="577"/>
      <point x="423" y="577" type="curve"/>
      <point x="437" y="581" type="line"/>
      <point x="457" y="642"/>
      <point x="476" y="696"/>
      <point x="476" y="696" type="curve"/>
      <point x="469" y="719" type="line"/>
      <point x="469" y="719"/>
      <point x="422" y="742"/>
      <point x="352" y="742" type="curve" smooth="yes"/>
      <point x="185" y="742"/>
      <point x="77" y="634"/>
      <point x="77" y="465" type="curve" smooth="yes"/>
      <point x="77" y="451" type="line"/>
      <point x="14" y="442" type="line"/>
      <point x="6" y="372" type="line"/>
      <point x="10" y="366" type="line"/>
      <point x="62" y="363"/>
      <point x="75" y="357"/>
      <point x="77" y="326" type="curve"/>
      <point x="77" y="134" type="line" smooth="yes"/>
      <point x="77" y="97"/>
      <point x="63" y="83"/>
      <point x="23" y="79" type="curve"/>
    </contour>
  </outline>
</glyph>
<glyph name="g" format="2">
  <advance width="522"/>
  <unicode hex="0067"/>
  <anchor x="246" y="-215" name="bottom"/>
  <anchor x="265" y="472" name="top"/>
  <outline>
    <contour>
      <point x="231" y="-242" type="curve" smooth="yes"/>
      <point x="381" y="-242"/>
      <point x="518" y="-148"/>
      <point x="518" y="-44" type="curve" smooth="yes"/>
      <point x="518" y="121"/>
      <point x="174" y="49"/>
      <point x="174" y="113" type="curve" smooth="yes"/>
      <point x="174" y="122"/>
      <point x="181" y="133"/>
      <point x="199" y="151" type="curve"/>
      <point x="110" y="173" type="line"/>
      <point x="110" y="147" type="line"/>
      <point x="80" y="126"/>
      <point x="54" y="103"/>
      <point x="30" y="76" type="curve"/>
      <point x="36" y="19"/>
      <point x="70" y="-20"/>
      <point x="126" y="-31" type="curve"/>
      <point x="126" y="-38" type="line"/>
      <point x="82" y="-58"/>
      <point x="39" y="-81"/>
      <point x="25" y="-92" type="curve"/>
      <point x="25" y="-180"/>
      <point x="110" y="-242"/>
    </contour>
    <contour>
      <point x="274" y="-138" type="curve" smooth="yes"/>
      <point x="225" y="-138"/>
      <point x="202" y="-123"/>
      <point x="202" y="-92" type="curve" smooth="yes"/>
      <point x="202" y="-79"/>
      <point x="206" y="-64"/>
      <point x="212" y="-50" type="curve"/>
      <point x="333" y="-66"/>
      <point x="349" y="-71"/>
      <point x="349" y="-94" type="curve" smooth="yes"/>
      <point x="349" y="-123"/>
      <point x="324" y="-138"/>
    </contour>
    <contour>
      <point x="261" y="217" type="curve" smooth="yes"/>
      <point x="227" y="217"/>
      <point x="213" y="244"/>
      <point x="213" y="303" type="curve" smooth="yes"/>
      <point x="213" y="360"/>
      <point x="226" y="384"/>
      <point x="258" y="384" type="curve" smooth="yes"/>
      <point x="292" y="384"/>
      <point x="308" y="358"/>
      <point x="308" y="298" type="curve" smooth="yes"/>
      <point x="308" y="242"/>
      <point x="294" y="217"/>
    </contour>
    <contour>
      <point x="250" y="124" type="curve" smooth="yes"/>
      <point x="391" y="124"/>
      <point x="486" y="196"/>
      <point x="486" y="302" type="curve" smooth="yes"/>
      <point x="486" y="341"/>
      <point x="473" y="372"/>
      <point x="447" y="399" type="curve"/>
      <point x="451" y="405" type="line"/>
      <point x="469" y="405"/>
      <point x="491" y="406"/>
      <point x="511" y="408" type="curve"/>
      <point x="525" y="509" type="line"/>
      <point x="517" y="515" type="line"/>
      <point x="460" y="495"/>
      <point x="401" y="479"/>
      <point x="373" y="477" type="curve"/>
      <point x="337" y="477"/>
      <point x="313" y="486"/>
      <point x="264" y="486" type="curve" smooth="yes"/>
      <point x="123" y="486"/>
      <point x="33" y="412"/>
      <point x="33" y="298" type="curve" smooth="yes"/>
      <point x="33" y="189"/>
      <point x="115" y="124"/>
    </contour>
  </outline>
</glyph>
<glyph name="k" format="2">
  <advance width="542"/>
  <unicode hex="006B"/>
  <anchor x="282" y="0" name="bottom"/>
  <anchor x="119" y="687" name="top"/>
  <outline>
    <contour>
      <point x="14" y="81" type="curve"/>
      <point x="3" y="-5" type="line"/>
      <point x="3" y="-5"/>
      <point x="71" y="0"/>
      <point x="129" y="0" type="curve" smooth="yes"/>
      <point x="171" y="0"/>
      <point x="257" y="-6"/>
      <point x="257" y="-6" type="curve"/>
      <point x="270" y="76" type="line"/>
      <point x="267" y="83" type="line"/>
      <point x="267" y="83"/>
      <point x="255" y="82"/>
      <point x="251" y="82" type="curve" smooth="yes"/>
      <point x="234" y="82"/>
      <point x="228" y="90"/>
      <point x="228" y="114" type="curve" smooth="yes"/>
      <point x="228" y="486"/>
      <point x="240" y="694"/>
      <point x="263" y="716" type="curve"/>
      <point x="254" y="742" type="line"/>
      <point x="254" y="742"/>
      <point x="104" y="721"/>
      <point x="-14" y="706" type="curve"/>
      <point x="-22" y="631" type="line" smooth="yes"/>
      <point x="-20" y="629"/>
      <point x="-19" y="626"/>
      <point x="-17" y="624" type="curve" smooth="yes"/>
      <point x="4" y="624"/>
      <point x="26" y="624"/>
      <point x="38" y="619" type="curve" smooth="yes"/>
      <point x="52" y="612"/>
      <point x="56" y="597"/>
      <point x="56" y="565" type="curve" smooth="yes"/>
      <point x="56" y="133" type="line" smooth="yes"/>
      <point x="56" y="97"/>
      <point x="47" y="85"/>
    </contour>
    <contour>
      <point x="233" y="233" type="line"/>
      <point x="313" y="65" type="line" smooth="yes"/>
      <point x="340" y="7"/>
      <point x="364" y="-12"/>
      <point x="413" y="-16" type="curve" smooth="yes"/>
      <point x="422" y="-16"/>
      <point x="444" y="-14"/>
      <point x="467" y="-12" type="curve" smooth="yes"/>
      <point x="502" y="-9"/>
      <point x="539" y="-5"/>
      <point x="539" y="-5" type="curve"/>
      <point x="548" y="69" type="line"/>
      <point x="542" y="80" type="line"/>
      <point x="506" y="87"/>
      <point x="480" y="108"/>
      <point x="462" y="146" type="curve" smooth="yes"/>
      <point x="400" y="270" type="line"/>
      <point x="441" y="311"/>
      <point x="484" y="358"/>
      <point x="537" y="385" type="curve"/>
      <point x="547" y="470" type="line"/>
      <point x="544" y="475" type="line"/>
      <point x="544" y="475"/>
      <point x="478" y="472"/>
      <point x="423" y="472" type="curve" smooth="yes"/>
      <point x="357" y="472"/>
      <point x="279" y="474"/>
      <point x="279" y="474" type="curve"/>
      <point x="270" y="401" type="line"/>
      <point x="273" y="396" type="line"/>
      <point x="309" y="396"/>
      <point x="322" y="391"/>
      <point x="322" y="376" type="curve" smooth="yes"/>
      <point x="322" y="366"/>
      <point x="318" y="358"/>
      <point x="305" y="344" type="curve" smooth="yes"/>
      <point x="236" y="265" type="line"/>
    </contour>
  </outline>
</glyph>
<glyph name="m" format="2">
  <advance width="846"/>
  <unicode hex="006D"/>
  <anchor x="438" y="0" name="bottom"/>
  <anchor x="435" y="463" name="top"/>
  <outline>
    <contour>
      <point x="311" y="84" type="curve"/>
      <point x="302" y="-3" type="line"/>
      <point x="302" y="-3"/>
      <point x="388" y="0"/>
      <point x="424" y="0" type="curve" smooth="yes"/>
      <point x="464" y="0"/>
      <point x="548" y="-4"/>
      <point x="548" y="-4" type="curve"/>
      <point x="561" y="80" type="line"/>
      <point x="559" y="84" type="line"/>
      <point x="559" y="84"/>
      <point x="549" y="83"/>
      <point x="539" y="83" type="curve" smooth="yes"/>
      <point x="520" y="83"/>
      <point x="514" y="92"/>
      <point x="514" y="120" type="curve"/>
      <point x="528" y="318" type="line"/>
      <point x="541" y="328"/>
      <point x="558" y="339"/>
      <point x="573" y="339" type="curve" smooth="yes"/>
      <point x="606" y="339"/>
      <point x="617" y="322"/>
      <point x="616" y="271" type="curve" smooth="yes"/>
      <point x="614" y="130" type="line"/>
      <point x="612" y="96"/>
      <point x="605" y="86"/>
      <point x="582" y="84" type="curve"/>
      <point x="574" y="-3" type="line"/>
      <point x="574" y="-3"/>
      <point x="657" y="0"/>
      <point x="693" y="0" type="curve" smooth="yes"/>
      <point x="733" y="0"/>
      <point x="823" y="-4"/>
      <point x="823" y="-4" type="curve"/>
      <point x="834" y="80" type="line"/>
      <point x="832" y="84" type="line"/>
      <point x="832" y="84"/>
      <point x="817" y="83"/>
      <point x="807" y="83" type="curve" smooth="yes"/>
      <point x="787" y="83"/>
      <point x="780" y="92"/>
      <point x="780" y="120" type="curve" smooth="yes"/>
      <point x="780" y="160"/>
      <point x="803" y="310"/>
      <point x="803" y="354" type="curve" smooth="yes"/>
      <point x="803" y="438"/>
      <point x="745" y="484"/>
      <point x="637" y="484" type="curve" smooth="yes"/>
      <point x="624" y="484"/>
      <point x="567" y="437"/>
      <point x="525" y="396" type="curve"/>
      <point x="508" y="455"/>
      <point x="456" y="484"/>
      <point x="368" y="484" type="curve" smooth="yes"/>
      <point x="355" y="484"/>
      <point x="299" y="437"/>
      <point x="256" y="396" type="curve"/>
      <point x="252" y="399" type="line"/>
      <point x="255" y="433"/>
      <point x="264" y="472"/>
      <point x="264" y="472" type="curve"/>
      <point x="252" y="484" type="line"/>
      <point x="252" y="484"/>
      <point x="132" y="463"/>
      <point x="16" y="447" type="curve"/>
      <point x="8" y="372" type="line"/>
      <point x="13" y="365" type="line"/>
      <point x="29" y="365" type="line"/>
      <point x="68" y="365"/>
      <point x="77" y="354"/>
      <point x="77" y="307" type="curve" smooth="yes"/>
      <point x="77" y="134" type="line"/>
      <point x="77" y="96"/>
      <point x="65" y="84"/>
      <point x="26" y="82" type="curve"/>
      <point x="14" y="-5" type="line"/>
      <point x="14" y="-5"/>
      <point x="93" y="0"/>
      <point x="156" y="0" type="curve" smooth="yes"/>
      <point x="198" y="0"/>
      <point x="278" y="-4"/>
      <point x="278" y="-4" type="curve"/>
      <point x="290" y="82" type="line"/>
      <point x="287" y="87" type="line"/>
      <point x="287" y="87"/>
      <point x="275" y="86"/>
      <point x="271" y="86" type="curve" smooth="yes"/>
      <point x="252" y="86"/>
      <point x="247" y="93"/>
      <point x="247" y="118" type="curve" smooth="yes"/>
      <point x="247" y="134"/>
      <point x="253" y="241"/>
      <point x="258" y="317" type="curve"/>
      <point x="272" y="327"/>
      <point x="289" y="339"/>
      <point x="304" y="339" type="curve" smooth="yes"/>
      <point x="337" y="339"/>
      <point x="348" y="322"/>
      <point x="347" y="271" type="curve" smooth="yes"/>
      <point x="345" y="130" type="line"/>
      <point x="344" y="99"/>
      <point x="334" y="87"/>
    </contour>
  </outline>
</glyph>
<glyph name="o" format="2">
  <advance width="538"/>
  <unicode hex="006F"/>
  <anchor x="269" y="0" name="bottom"/>
  <anchor x="269" y="236" name="center"/>
  <anchor x="339" y="41" name="ogonek"/>
  <anchor x="269" y="472" name="top"/>
  <anchor x="518" y="472" name="topright"/>
  <outline>
    <contour>
      <point x="258" y="-12" type="curve" smooth="yes"/>
      <point x="416" y="-12"/>
      <point x="509" y="85"/>
      <point x="509" y="248" type="curve" smooth="yes"/>
      <point x="509" y="400"/>
      <point x="428" y="484"/>
      <point x="280" y="484" type="curve" smooth="yes"/>
      <point x="122" y="484"/>
      <point x="28" y="388"/>
      <point x="28" y="225" type="curve" smooth="yes"/>
      <point x="28" y="78"/>
      <point x="116" y="-12"/>
    </contour>
    <contour>
      <point x="270" y="95" type="curve" smooth="yes"/>
      <point x="230" y="95"/>
      <point x="218" y="135"/>
      <point x="218" y="271" type="curve" smooth="yes"/>
      <point x="218" y="342"/>
      <point x="229" y="364"/>
      <point x="264" y="364" type="curve" smooth="yes"/>
      <point x="304" y="364"/>
      <point x="316" y="325"/>
      <point x="316" y="191" type="curve" smooth="yes"/>
      <point x="316" y="117"/>
      <point x="305" y="95"/>
    </contour>
  </outline>
</glyph>
<glyph name="q" format="2">
  <advance width="518"/>
  <unicode hex="0071"/>
  <anchor x="149" y="0" name="bottom"/>
  <anchor x="272" y="472" name="top"/>
  <outline>
    <contour>
      <point x="210" y="-234" type="line"/>
      <point x="210" y="-234"/>
      <point x="301" y="-230"/>
      <point x="352" y="-230" type="curve" smooth="yes"/>
      <point x="519" y="-230" type="line"/>
      <point x="526" y="-144" type="line"/>
      <point x="523" y="-140" type="line"/>
      <point x="523" y="-140"/>
      <point x="511" y="-141"/>
      <point x="497" y="-141" type="curve" smooth="yes"/>
      <point x="476" y="-141"/>
      <point x="471" y="-132"/>
      <point x="471" y="-96" type="curve" smooth="yes"/>
      <point x="471" y="215"/>
      <point x="481" y="458"/>
      <point x="495" y="484" type="curve"/>
      <point x="480" y="499" type="line"/>
      <point x="480" y="499"/>
      <point x="446" y="485"/>
      <point x="401" y="468" type="curve"/>
      <point x="347" y="475"/>
      <point x="303" y="479"/>
      <point x="270" y="479" type="curve" smooth="yes"/>
      <point x="112" y="479"/>
      <point x="14" y="380"/>
      <point x="14" y="221" type="curve" smooth="yes"/>
      <point x="14" y="76"/>
      <point x="82" y="-7"/>
      <point x="201" y="-7" type="curve" smooth="yes"/>
      <point x="210" y="-7"/>
      <point x="243" y="14"/>
      <point x="300" y="58" type="curve"/>
      <point x="296" y="-84" type="line" smooth="yes"/>
      <point x="295" y="-135"/>
      <point x="281" y="-144"/>
      <point x="218" y="-147" type="curve"/>
    </contour>
    <contour>
      <point x="262" y="119" type="curve" smooth="yes"/>
      <point x="221" y="119"/>
      <point x="202" y="164"/>
      <point x="202" y="262" type="curve" smooth="yes"/>
      <point x="202" y="332"/>
      <point x="219" y="366"/>
      <point x="254" y="366" type="curve" smooth="yes"/>
      <point x="279" y="366"/>
      <point x="300" y="356"/>
      <point x="300" y="356" type="curve"/>
      <point x="300" y="129" type="line"/>
      <point x="300" y="129"/>
      <point x="287" y="119"/>
    </contour>
  </outline>
</glyph>
<glyph name="r" format="2">
  <advance width="445"/>
  <unicode hex="0072"/>
  <anchor x="172" y="0" name="bottom"/>
  <anchor x="243" y="472" name="top"/>
  <outline>
    <contour>
      <point x="26" y="82" type="curve" smooth="yes"/>
      <point x="14" y="-5" type="line" smooth="yes"/>
      <point x="14" y="-5"/>
      <point x="100" y="0"/>
      <point x="163" y="0" type="curve" smooth="yes"/>
      <point x="220" y="0"/>
      <point x="325" y="-6"/>
      <point x="325" y="-6" type="curve" smooth="yes"/>
      <point x="339" y="87" type="line"/>
      <point x="333" y="95" type="line" smooth="yes"/>
      <point x="333" y="95"/>
      <point x="299" y="90"/>
      <point x="276" y="90" type="curve" smooth="yes"/>
      <point x="256" y="90"/>
      <point x="247" y="100"/>
      <point x="247" y="122" type="curve" smooth="yes"/>
      <point x="247" y="136"/>
      <point x="258" y="302"/>
      <point x="258" y="302" type="curve"/>
      <point x="270" y="312"/>
      <point x="283" y="318"/>
      <point x="295" y="318" type="curve" smooth="yes"/>
      <point x="319" y="318"/>
      <point x="325" y="300"/>
      <point x="325" y="226" type="curve" smooth="yes"/>
      <point x="419" y="231" type="line" smooth="yes"/>
      <point x="425" y="336"/>
      <point x="444" y="459"/>
      <point x="444" y="459" type="curve" smooth="yes"/>
      <point x="439" y="471" type="line" smooth="yes"/>
      <point x="439" y="471"/>
      <point x="417" y="474"/>
      <point x="400" y="474" type="curve" smooth="yes"/>
      <point x="348" y="474"/>
      <point x="304" y="446"/>
      <point x="260" y="385" type="curve" smooth="yes"/>
      <point x="252" y="389" type="line" smooth="yes"/>
      <point x="255" y="428"/>
      <point x="264" y="472"/>
      <point x="264" y="472" type="curve" smooth="yes"/>
      <point x="252" y="484" type="line" smooth="yes"/>
      <point x="252" y="484"/>
      <point x="132" y="463"/>
      <point x="16" y="447" type="curve" smooth="yes"/>
      <point x="8" y="372" type="line"/>
      <point x="13" y="365" type="line"/>
      <point x="13" y="365"/>
      <point x="24" y="365"/>
      <point x="29" y="365" type="curve" smooth="yes"/>
      <point x="69" y="365"/>
      <point x="77" y="355"/>
      <point x="77" y="307" type="curve" smooth="yes"/>
      <point x="77" y="134" type="line" smooth="yes"/>
      <point x="77" y="96"/>
      <point x="65" y="84"/>
    </contour>
  </outline>
</glyph>
<glyph name="s" format="2">
  <advance width="416"/>
  <unicode hex="0073"/>
  <anchor x="208" y="0" name="bottom"/>
  <anchor x="208" y="472" name="top"/>
  <outline>
    <contour>
      <point x="168" y="-12" type="curve" smooth="yes"/>
      <point x="303" y="-12"/>
      <point x="399" y="53"/>
      <point x="399" y="145" type="curve" smooth="yes"/>
      <point x="399" y="216"/>
      <point x="368" y="250"/>
      <point x="243" y="302" type="curve" smooth="yes"/>
      <point x="210" y="316"/>
      <point x="196" y="329"/>
      <point x="196" y="346" type="curve" smooth="yes"/>
      <point x="196" y="365"/>
      <point x="211" y="376"/>
      <point x="235" y="376" type="curve" smooth="yes"/>
      <point x="271" y="376"/>
      <point x="289" y="355"/>
      <point x="290" y="309" type="curve" smooth="yes"/>
      <point x="290" y="308"/>
      <point x="290" y="305"/>
      <point x="290" y="305" type="curve"/>
      <point x="370" y="309" type="line"/>
      <point x="376" y="377"/>
      <point x="388" y="447"/>
      <point x="388" y="447" type="curve"/>
      <point x="379" y="464" type="line"/>
      <point x="379" y="464"/>
      <point x="331" y="484"/>
      <point x="254" y="484" type="curve" smooth="yes"/>
      <point x="112" y="484"/>
      <point x="20" y="419"/>
      <point x="20" y="318" type="curve" smooth="yes"/>
      <point x="20" y="252"/>
      <point x="56" y="209"/>
      <point x="140" y="175" type="curve" smooth="yes"/>
      <point x="207" y="148"/>
      <point x="221" y="138"/>
      <point x="221" y="118" type="curve" smooth="yes"/>
      <point x="221" y="102"/>
      <point x="205" y="92"/>
      <point x="181" y="92" type="curve" smooth="yes"/>
      <point x="138" y="92"/>
      <point x="104" y="127"/>
      <point x="103" y="171" type="curve"/>
      <point x="23" y="165" type="line"/>
      <point x="19" y="121"/>
      <point x="13" y="71"/>
      <point x="8" y="36" type="curve"/>
      <point x="18" y="22" type="line"/>
      <point x="18" y="22"/>
      <point x="79" y="-12"/>
    </contour>
  </outline>
</glyph>
<glyph name="t" format="2">
  <advance width="334"/>
  <unicode hex="0074"/>
  <anchor x="185" y="0" name="bottom"/>
  <anchor x="167" y="236" name="center"/>
  <anchor x="177" y="503" name="top"/>
  <outline>
    <contour>
      <point x="205" y="-12" type="curve" smooth="yes"/>
      <point x="244" y="-12"/>
      <point x="337" y="90"/>
      <point x="337" y="90" type="curve"/>
      <point x="321" y="130" type="line"/>
      <point x="321" y="130"/>
      <point x="294" y="121"/>
      <point x="272" y="121" type="curve" smooth="yes"/>
      <point x="240" y="121"/>
      <point x="224" y="143"/>
      <point x="224" y="187" type="curve" smooth="yes"/>
      <point x="224" y="257"/>
      <point x="226" y="314"/>
      <point x="229" y="365" type="curve"/>
      <point x="315" y="362" type="line"/>
      <point x="326" y="447" type="line"/>
      <point x="321" y="454" type="line"/>
      <point x="237" y="451" type="line"/>
      <point x="244" y="513"/>
      <point x="252" y="551"/>
      <point x="252" y="551" type="curve"/>
      <point x="214" y="573" type="line"/>
      <point x="214" y="573"/>
      <point x="106" y="498"/>
      <point x="-6" y="447" type="curve"/>
      <point x="-14" y="376" type="line"/>
      <point x="2" y="367" type="line"/>
      <point x="44" y="367"/>
      <point x="53" y="357"/>
      <point x="53" y="309" type="curve" smooth="yes"/>
      <point x="53" y="114" type="line" smooth="yes"/>
      <point x="53" y="32"/>
      <point x="106" y="-12"/>
    </contour>
  </outline>
</glyph>
<glyph name="u" format="2">
  <advance width="553"/>
  <unicode hex="0075"/>
  <anchor x="273" y="0" name="bottom"/>
  <anchor x="480" y="41" name="ogonek"/>
  <anchor x="271" y="472" name="top"/>
  <outline>
    <contour>
      <point x="56" y="325" type="curve" smooth="yes"/>
      <point x="47" y="126" type="line"/>
      <point x="47" y="37"/>
      <point x="110" y="-10"/>
      <point x="229" y="-10" type="curve" smooth="yes"/>
      <point x="242" y="-10"/>
      <point x="273" y="20"/>
      <point x="310" y="67" type="curve"/>
      <point x="321" y="61" type="line"/>
      <point x="330" y="12"/>
      <point x="369" y="-12"/>
      <point x="438" y="-12" type="curve" smooth="yes"/>
      <point x="502" y="12"/>
      <point x="561" y="110"/>
      <point x="561" y="110" type="curve"/>
      <point x="544" y="136" type="line"/>
      <point x="544" y="136"/>
      <point x="527" y="128"/>
      <point x="511" y="128" type="curve" smooth="yes"/>
      <point x="494" y="128"/>
      <point x="482" y="142"/>
      <point x="482" y="163" type="curve" smooth="yes"/>
      <point x="482" y="302"/>
      <point x="496" y="427"/>
      <point x="515" y="458" type="curve"/>
      <point x="501" y="480" type="line"/>
      <point x="501" y="480"/>
      <point x="381" y="461"/>
      <point x="278" y="448" type="curve"/>
      <point x="265" y="366" type="line"/>
      <point x="268" y="366"/>
      <point x="271" y="366"/>
      <point x="274" y="366" type="curve" smooth="yes"/>
      <point x="306" y="364"/>
      <point x="310" y="360"/>
      <point x="310" y="323" type="curve" smooth="yes"/>
      <point x="310" y="150" type="line"/>
      <point x="292" y="140"/>
      <point x="275" y="134"/>
      <point x="264" y="134" type="curve" smooth="yes"/>
      <point x="235" y="134"/>
      <point x="221" y="154"/>
      <point x="221" y="196" type="curve" smooth="yes"/>
      <point x="221" y="316"/>
      <point x="233" y="431"/>
      <point x="249" y="462" type="curve"/>
      <point x="236" y="484" type="line"/>
      <point x="236" y="484"/>
      <point x="118" y="462"/>
      <point x="9" y="449" type="curve"/>
      <point x="1" y="366" type="line"/>
      <point x="1" y="366"/>
      <point x="14" y="367"/>
      <point x="27" y="367" type="curve" smooth="yes"/>
      <point x="49" y="367"/>
      <point x="56" y="357"/>
    </contour>
  </outline>
</glyph>
<glyph name="y" format="2">
  <advance width="486"/>
  <unicode hex="0079"/>
  <anchor x="423" y="0" name="bottom"/>
  <anchor x="243" y="472" name="top"/>
  <outline>
    <contour>
      <point x="72" y="-242" type="curve" smooth="yes"/>
      <point x="162" y="-242"/>
      <point x="262" y="-137"/>
      <point x="330" y="31" type="curve" smooth="yes"/>
      <point x="457" y="345" type="line"/>
      <point x="467" y="371"/>
      <point x="474" y="376"/>
      <point x="502" y="384" type="curve"/>
      <point x="511" y="472" type="line"/>
      <point x="477" y="472"/>
      <point x="444" y="472"/>
      <point x="410" y="472" type="curve" smooth="yes"/>
      <point x="368" y="472"/>
      <point x="299" y="474"/>
      <point x="299" y="474" type="curve"/>
      <point x="288" y="390" type="line"/>
      <point x="292" y="383" type="line"/>
      <point x="308" y="383" type="line" smooth="yes"/>
      <point x="326" y="383"/>
      <point x="329" y="381"/>
      <point x="329" y="368" type="curve" smooth="yes"/>
      <point x="329" y="353"/>
      <point x="302" y="272"/>
      <point x="267" y="176" type="curve"/>
      <point x="249" y="176" type="line"/>
      <point x="249" y="176"/>
      <point x="203" y="334"/>
      <point x="203" y="363" type="curve" smooth="yes"/>
      <point x="203" y="378"/>
      <point x="210" y="383"/>
      <point x="240" y="386" type="curve"/>
      <point x="251" y="474" type="line"/>
      <point x="249" y="479" type="line"/>
      <point x="249" y="477"/>
      <point x="138" y="472"/>
      <point x="61" y="472" type="curve" smooth="yes"/>
      <point x="37" y="472"/>
      <point x="13" y="472"/>
      <point x="-11" y="472" type="curve"/>
      <point x="-19" y="388" type="line"/>
      <point x="-17" y="383" type="line"/>
      <point x="5" y="381"/>
      <point x="19" y="373"/>
      <point x="34" y="345" type="curve" smooth="yes"/>
      <point x="63" y="291"/>
      <point x="141" y="82"/>
      <point x="180" y="-18" type="curve"/>
      <point x="137" y="-68"/>
      <point x="67" y="-100"/>
      <point x="-29" y="-115" type="curve"/>
      <point x="-39" y="-134" type="line"/>
      <point x="-39" y="-164"/>
      <point x="42" y="-242"/>
    </contour>
  </outline>
</glyph>
<glyph name="z" format="2">
  <advance width="456"/>
  <unicode hex="007A"/>
  <anchor x="210" y="0" name="bottom"/>
  <anchor x="245" y="472" name="top"/>
  <outline>
    <contour>
      <point x="2" y="35" type="line"/>
      <point x="28" y="-7" type="line"/>
      <point x="88" y="0" type="line"/>
      <point x="407" y="-4" type="line"/>
      <point x="422" y="12" type="line"/>
      <point x="422" y="88"/>
      <point x="439" y="221"/>
      <point x="439" y="221" type="curve"/>
      <point x="373" y="216" type="line"/>
      <point x="363" y="142"/>
      <point x="337" y="112"/>
      <point x="275" y="103" type="curve" smooth="yes"/>
      <point x="216" y="94" type="line"/>
      <point x="261" y="164"/>
      <point x="351" y="299"/>
      <point x="447" y="432" type="curve"/>
      <point x="429" y="472" type="line"/>
      <point x="172" y="472" type="line"/>
      <point x="40" y="480" type="line"/>
      <point x="32" y="472" type="line"/>
      <point x="30" y="404"/>
      <point x="21" y="282"/>
      <point x="21" y="282" type="curve"/>
      <point x="86" y="287" type="line"/>
      <point x="89" y="350"/>
      <point x="105" y="364"/>
      <point x="180" y="372" type="curve"/>
      <point x="232" y="379" type="line"/>
    </contour>
  </outline>
</glyph>
<glyph name="bar" format="2">
  <advance width="293"/>
  <unicode hex="007C"/>
  <outline>
    <contour>
      <point x="93" y="-269" type="line"/>
      <point x="210" y="-258" type="line"/>
      <point x="210" y="-258"/>
      <point x="209" y="119"/>
      <point x="209" y="291" type="curve" smooth="yes"/>
      <point x="209" y="457"/>
      <point x="215" y="791"/>
      <point x="215" y="791" type="curve"/>
      <point x="194" y="807" type="line"/>
      <point x="80" y="796" type="line"/>
      <point x="79" y="276" type="line" smooth="yes"/>
      <point x="78" y="97"/>
      <point x="78" y="-253"/>
      <point x="78" y="-253" type="curve"/>
    </contour>
  </outline>
</glyph>
<glyph name="cent" format="2">
  <advance width="440"/>
  <unicode hex="00A2"/>
  <anchor x="248" y="0" name="bottom"/>
  <anchor x="355" y="130" name="bottomright"/>
  <anchor x="260" y="472" name="top"/>
  <outline>
    <contour>
      <point x="340" y="658" type="line"/>
      <point x="224" y="644" type="line"/>
      <point x="123" y="-158" type="line"/>
      <point x="131" y="-164" type="line"/>
      <point x="245" y="-151" type="line"/>
      <point x="346" y="649" type="line"/>
    </contour>
    <contour>
      <point x="247" y="-12" type="curve" smooth="yes"/>
      <point x="320" y="-12"/>
      <point x="414" y="71"/>
      <point x="414" y="71" type="curve"/>
      <point x="392" y="146" type="line"/>
      <point x="382" y="151" type="line"/>
      <point x="382" y="151"/>
      <point x="338" y="125"/>
      <point x="284" y="125" type="curve" smooth="yes"/>
      <point x="228" y="125"/>
      <point x="203" y="171"/>
      <point x="203" y="273" type="curve" smooth="yes"/>
      <point x="203" y="335"/>
      <point x="222" y="366"/>
      <point x="260" y="366" type="curve" smooth="yes"/>
      <point x="289" y="366"/>
      <point x="300" y="350"/>
      <point x="300" y="308" type="curve" smooth="yes"/>
      <point x="300" y="272" type="line"/>
      <point x="392" y="277" type="line"/>
      <point x="399" y="367"/>
      <point x="415" y="451"/>
      <point x="415" y="451" type="curve"/>
      <point x="410" y="462" type="line"/>
      <point x="410" y="462"/>
      <point x="359" y="484"/>
      <point x="272" y="484" type="curve" smooth="yes"/>
      <point x="115" y="484"/>
      <point x="14" y="384"/>
      <point x="14" y="230" type="curve" smooth="yes"/>
      <point x="14" y="78"/>
      <point x="100" y="-12"/>
    </contour>
  </outline>
</glyph>
<glyph name="currency" format="2">
  <advance width="495"/>
  <unicode hex="00A4"/>
  <outline>
    <contour>
      <point x="111" y="105" type="line"/>
      <point x="111" y="105"/>
      <point x="147" y="144"/>
      <point x="181" y="184" type="curve"/>
      <point x="202" y="175"/>
      <point x="225" y="170"/>
      <point x="249" y="170" type="curve" smooth="yes"/>
      <point x="271" y="170"/>
      <point x="292" y="174"/>
      <point x="311" y="181" type="curve"/>
      <point x="376" y="107" type="line"/>
      <point x="481" y="184" type="line"/>
      <point x="485" y="207" type="line"/>
      <point x="485" y="207"/>
      <point x="447" y="241"/>
      <point x="408" y="274" type="curve"/>
      <point x="417" y="295"/>
      <point x="422" y="318"/>
      <point x="422" y="342" type="curve" smooth="yes"/>
      <point x="422" y="365"/>
      <point x="417" y="387"/>
      <point x="409" y="408" type="curve"/>
      <point x="483" y="472" type="line"/>
      <point x="406" y="577" type="line"/>
      <point x="383" y="581" type="line"/>
      <point x="383" y="581"/>
      <point x="348" y="541"/>
      <point x="314" y="502" type="curve"/>
      <point x="294" y="510"/>
      <point x="272" y="515"/>
      <point x="249" y="515" type="curve" smooth="yes"/>
      <point x="226" y="515"/>
      <point x="204" y="510"/>
      <point x="184" y="502" type="curve"/>
      <point x="162" y="528"/>
      <point x="140" y="553"/>
      <point x="118" y="579" type="curve"/>
      <point x="13" y="502" type="line"/>
      <point x="9" y="479" type="line"/>
      <point x="9" y="479"/>
      <point x="49" y="442"/>
      <point x="89" y="407" type="curve"/>
      <point x="81" y="387"/>
      <point x="77" y="365"/>
      <point x="77" y="342" type="curve" smooth="yes"/>
      <point x="77" y="320"/>
      <point x="81" y="299"/>
      <point x="88" y="280" type="curve"/>
      <point x="62" y="258"/>
      <point x="37" y="236"/>
      <point x="11" y="214" type="curve"/>
      <point x="88" y="109" type="line"/>
    </contour>
    <contour>
      <point x="249" y="268" type="curve" smooth="yes"/>
      <point x="208" y="268"/>
      <point x="175" y="301"/>
      <point x="175" y="342" type="curve" smooth="yes"/>
      <point x="175" y="383"/>
      <point x="208" y="417"/>
      <point x="249" y="417" type="curve" smooth="yes"/>
      <point x="290" y="417"/>
      <point x="324" y="383"/>
      <point x="324" y="342" type="curve" smooth="yes"/>
      <point x="324" y="301"/>
      <point x="290" y="268"/>
    </contour>
  </outline>
</glyph>
<glyph name="yen" format="2">
  <advance width="626"/>
  <unicode hex="00A5"/>
  <outline>
    <contour>
      <point x="129" y="-7" type="line"/>
      <point x="129" y="-7"/>
      <point x="251" y="0"/>
      <point x="306" y="0" type="curve" smooth="yes"/>
      <point x="354" y="0"/>
      <point x="483" y="-5"/>
      <point x="483" y="-5" type="curve"/>
      <point x="490" y="75" type="line"/>
      <point x="485" y="80" type="line"/>
      <point x="485" y="80"/>
      <point x="464" y="77"/>
      <point x="443" y="77" type="curve" smooth="yes"/>
      <point x="436" y="77"/>
      <point x="429" y="78"/>
      <point x="424" y="79" type="curve" smooth="yes"/>
      <point x="413" y="82"/>
      <point x="407" y="88"/>
      <point x="403" y="98" type="curve" smooth="yes"/>
      <point x="401" y="103"/>
      <point x="399" y="108"/>
      <point x="399" y="115" type="curve"/>
      <point x="575" y="115" type="line"/>
      <point x="581" y="201" type="line"/>
      <point x="573" y="211" type="line"/>
      <point x="573" y="211"/>
      <point x="499" y="209"/>
      <point x="422" y="208" type="curve"/>
      <point x="425" y="213"/>
      <point x="428" y="218"/>
      <point x="431" y="223" type="curve"/>
      <point x="448" y="254" type="line"/>
      <point x="578" y="254" type="line"/>
      <point x="584" y="340" type="line"/>
      <point x="576" y="350" type="line"/>
      <point x="576" y="350"/>
      <point x="544" y="349"/>
      <point x="502" y="348" type="curve"/>
      <point x="507" y="357" type="line"/>
      <point x="524" y="388"/>
      <point x="541" y="403"/>
      <point x="582" y="425" type="curve"/>
      <point x="589" y="500" type="line"/>
      <point x="585" y="506" type="line"/>
      <point x="585" y="506"/>
      <point x="534" y="503"/>
      <point x="489" y="503" type="curve" smooth="yes"/>
      <point x="444" y="503"/>
      <point x="403" y="502"/>
      <point x="353" y="502" type="curve"/>
      <point x="349" y="468" type="line" smooth="yes"/>
      <point x="348" y="457"/>
      <point x="347" y="446"/>
      <point x="346" y="435" type="curve"/>
      <point x="358" y="411"/>
      <point x="378" y="442"/>
      <point x="378" y="420" type="curve" smooth="yes"/>
      <point x="378" y="418"/>
      <point x="377" y="414"/>
      <point x="376" y="410" type="curve" smooth="yes"/>
      <point x="341" y="312" type="line"/>
      <point x="329" y="312" type="line"/>
      <point x="322" y="329"/>
      <point x="315" y="345"/>
      <point x="309" y="359" type="curve"/>
      <point x="297" y="386"/>
      <point x="288" y="406"/>
      <point x="288" y="415" type="curve" smooth="yes"/>
      <point x="288" y="424"/>
      <point x="294" y="429"/>
      <point x="318" y="429" type="curve"/>
      <point x="326" y="499" type="line"/>
      <point x="320" y="509" type="line"/>
      <point x="311" y="506"/>
      <point x="136" y="503"/>
      <point x="148" y="503" type="curve" smooth="yes"/>
      <point x="109" y="503"/>
      <point x="38" y="505"/>
      <point x="38" y="505" type="curve"/>
      <point x="36" y="492"/>
      <point x="34" y="479"/>
      <point x="33" y="466" type="curve"/>
      <point x="31" y="453"/>
      <point x="30" y="440"/>
      <point x="29" y="427" type="curve"/>
      <point x="39" y="404"/>
      <point x="112" y="362"/>
      <point x="123" y="346" type="curve"/>
      <point x="62" y="346" type="line"/>
      <point x="50" y="261" type="line"/>
      <point x="60" y="253" type="line"/>
      <point x="60" y="253"/>
      <point x="114" y="253"/>
      <point x="180" y="254" type="curve"/>
      <point x="195" y="227" type="line" smooth="yes"/>
      <point x="199" y="220"/>
      <point x="202" y="214"/>
      <point x="206" y="207" type="curve"/>
      <point x="59" y="207" type="line"/>
      <point x="47" y="122" type="line"/>
      <point x="57" y="114" type="line"/>
      <point x="57" y="114"/>
      <point x="136" y="114"/>
      <point x="220" y="115" type="curve"/>
      <point x="215" y="83"/>
      <point x="196" y="75"/>
      <point x="136" y="71" type="curve"/>
    </contour>
  </outline>
</glyph>
<glyph name="brokenbar" format="2">
  <advance width="293"/>
  <unicode hex="00A6"/>
  <outline>
    <contour>
      <point x="92" y="358" type="line"/>
      <point x="209" y="374" type="line"/>
      <point x="210" y="548"/>
      <point x="215" y="791"/>
      <point x="215" y="791" type="curve"/>
      <point x="194" y="807" type="line"/>
      <point x="80" y="796" type="line"/>
      <point x="80" y="654"/>
      <point x="79" y="511"/>
      <point x="79" y="369" type="curve"/>
    </contour>
    <contour>
      <point x="93" y="-269" type="line"/>
      <point x="210" y="-258" type="line"/>
      <point x="210" y="-258"/>
      <point x="209" y="-37"/>
      <point x="209" y="150" type="curve"/>
      <point x="191" y="167" type="line"/>
      <point x="79" y="150" type="line"/>
      <point x="78" y="-34"/>
      <point x="78" y="-253"/>
      <point x="78" y="-253" type="curve"/>
    </contour>
  </outline>
</glyph>
<glyph name="copyright" format="2">
  <advance width="699"/>
  <unicode hex="00A9"/>
  <outline>
    <contour>
      <point x="349" y="-12" type="curve" smooth="yes"/>
      <point x="517" y="-12"/>
      <point x="654" y="124"/>
      <point x="654" y="293" type="curve" smooth="yes"/>
      <point x="654" y="461"/>
      <point x="517" y="598"/>
      <point x="349" y="598" type="curve" smooth="yes"/>
      <point x="181" y="598"/>
      <point x="45" y="462"/>
      <point x="45" y="293" type="curve" smooth="yes"/>
      <point x="45" y="124"/>
      <point x="181" y="-12"/>
    </contour>
    <contour>
      <point x="335" y="127" type="curve" smooth="yes"/>
      <point x="405" y="127"/>
      <point x="465" y="145"/>
      <point x="465" y="145" type="curve"/>
      <point x="473" y="155" type="line"/>
      <point x="472" y="205"/>
      <point x="477" y="268"/>
      <point x="477" y="268" type="curve"/>
      <point x="388" y="261" type="line"/>
      <point x="386" y="221"/>
      <point x="376" y="206"/>
      <point x="352" y="206" type="curve" smooth="yes"/>
      <point x="321" y="206"/>
      <point x="309" y="236"/>
      <point x="309" y="309" type="curve" smooth="yes"/>
      <point x="309" y="373"/>
      <point x="317" y="389"/>
      <point x="349" y="389" type="curve" smooth="yes"/>
      <point x="374" y="389"/>
      <point x="382" y="380"/>
      <point x="382" y="352" type="curve" smooth="yes"/>
      <point x="382" y="337"/>
      <point x="381" y="324"/>
      <point x="381" y="324" type="curve"/>
      <point x="471" y="328" type="line"/>
      <point x="474" y="393"/>
      <point x="487" y="441"/>
      <point x="487" y="441" type="curve"/>
      <point x="482" y="452" type="line"/>
      <point x="482" y="452"/>
      <point x="413" y="465"/>
      <point x="366" y="465" type="curve" smooth="yes"/>
      <point x="241" y="465"/>
      <point x="177" y="406"/>
      <point x="177" y="291" type="curve" smooth="yes"/>
      <point x="177" y="187"/>
      <point x="234" y="127"/>
    </contour>
    <contour>
      <point x="349" y="47" type="curve" smooth="yes"/>
      <point x="214" y="47"/>
      <point x="105" y="157"/>
      <point x="105" y="293" type="curve" smooth="yes"/>
      <point x="105" y="429"/>
      <point x="214" y="539"/>
      <point x="349" y="539" type="curve" smooth="yes"/>
      <point x="484" y="539"/>
      <point x="594" y="429"/>
      <point x="594" y="293" type="curve" smooth="yes"/>
      <point x="594" y="157"/>
      <point x="484" y="47"/>
    </contour>
  </outline>
</glyph>
<glyph name="threesuperior" format="2">
  <advance width="329"/>
  <unicode hex="00B3"/>
  <outline>
    <contour>
      <point x="85" y="319" type="curve" smooth="yes"/>
      <point x="201" y="319"/>
      <point x="307" y="381"/>
      <point x="307" y="449" type="curve" smooth="yes"/>
      <point x="307" y="496"/>
      <point x="278" y="526"/>
      <point x="208" y="550" type="curve"/>
      <point x="208" y="558" type="line"/>
      <point x="255" y="571"/>
      <point x="285" y="605"/>
      <point x="285" y="646" type="curve" smooth="yes"/>
      <point x="285" y="696"/>
      <point x="237" y="728"/>
      <point x="165" y="728" type="curve" smooth="yes"/>
      <point x="124" y="728"/>
      <point x="62" y="711"/>
      <point x="18" y="681" type="curve"/>
      <point x="42" y="607" type="line"/>
      <point x="53" y="607" type="line"/>
      <point x="81" y="625"/>
      <point x="105" y="634"/>
      <point x="124" y="634" type="curve" smooth="yes"/>
      <point x="141" y="634"/>
      <point x="151" y="625"/>
      <point x="151" y="612" type="curve" smooth="yes"/>
      <point x="151" y="591"/>
      <point x="138" y="575"/>
      <point x="114" y="566" type="curve"/>
      <point x="69" y="558" type="line"/>
      <point x="77" y="492" type="line"/>
      <point x="86" y="481" type="line"/>
      <point x="137" y="481"/>
      <point x="159" y="472"/>
      <point x="159" y="453" type="curve" smooth="yes"/>
      <point x="159" y="431"/>
      <point x="134" y="418"/>
      <point x="94" y="418" type="curve" smooth="yes"/>
      <point x="69" y="418"/>
      <point x="48" y="423"/>
      <point x="30" y="431" type="curve"/>
      <point x="13" y="414" type="line"/>
      <point x="19" y="344"/>
      <point x="36" y="319"/>
    </contour>
  </outline>
</glyph>
<glyph name="micro" format="2">
  <advance width="541"/>
  <unicode hex="00B5"/>
  <outline>
    <contour>
      <point x="245" y="-4" type="curve"/>
      <point x="264" y="-4"/>
      <point x="311" y="57"/>
      <point x="346" y="132" type="curve"/>
      <point x="367" y="126" type="line"/>
      <point x="415" y="218"/>
      <point x="453" y="326"/>
      <point x="491" y="446" type="curve"/>
      <point x="438" y="463"/>
      <point x="387" y="472"/>
      <point x="334" y="477" type="curve"/>
      <point x="315" y="455" type="line"/>
      <point x="313" y="418"/>
      <point x="314" y="375"/>
      <point x="316" y="324" type="curve"/>
      <point x="269" y="233"/>
      <point x="235" y="190"/>
      <point x="200" y="190" type="curve" smooth="yes"/>
      <point x="184" y="190"/>
      <point x="164" y="204"/>
      <point x="142" y="232" type="curve"/>
      <point x="78" y="9" type="line"/>
      <point x="162" y="53" type="line"/>
      <point x="185" y="27"/>
      <point x="212" y="8"/>
    </contour>
    <contour>
      <point x="52" y="-237" type="line"/>
      <point x="105" y="-239"/>
      <point x="161" y="-234"/>
      <point x="219" y="-220" type="curve"/>
      <point x="183" y="-128"/>
      <point x="158" y="-35"/>
      <point x="146" y="57" type="curve"/>
      <point x="214" y="457" type="line"/>
      <point x="86" y="483" type="line"/>
      <point x="72" y="483" type="line"/>
      <point x="50" y="470" type="line"/>
      <point x="27" y="356"/>
      <point x="35" y="278"/>
      <point x="78" y="150" type="curve"/>
      <point x="72" y="289" type="line"/>
      <point x="35" y="-226" type="line"/>
    </contour>
    <contour>
      <point x="462" y="-6" type="curve"/>
      <point x="510" y="36"/>
      <point x="538" y="86"/>
      <point x="548" y="150" type="curve"/>
      <point x="533" y="166" type="line"/>
      <point x="431" y="136"/>
      <point x="410" y="143"/>
      <point x="410" y="220" type="curve" smooth="yes"/>
      <point x="410" y="292" type="line"/>
      <point x="355" y="211" type="line"/>
      <point x="361" y="115" type="line" smooth="yes"/>
      <point x="367" y="24"/>
      <point x="393" y="-6"/>
    </contour>
  </outline>
</glyph>
<glyph name="periodcentered" format="2">
  <advance width="238"/>
  <unicode hex="00B7"/>
  <outline>
    <contour>
      <point x="115" y="154" type="curve" smooth="yes"/>
      <point x="177" y="154"/>
      <point x="216" y="194"/>
      <point x="216" y="258" type="curve" smooth="yes"/>
      <point x="216" y="318"/>
      <point x="182" y="353"/>
      <point x="123" y="353" type="curve" smooth="yes"/>
      <point x="60" y="353"/>
      <point x="21" y="313"/>
      <point x="21" y="249" type="curve" smooth="yes"/>
      <point x="21" y="188"/>
      <point x="54" y="154"/>
    </contour>
  </outline>
</glyph>
<glyph name="onesuperior" format="2">
  <advance width="283"/>
  <unicode hex="00B9"/>
  <outline>
    <contour>
      <point x="15" y="320" type="line"/>
      <point x="15" y="320"/>
      <point x="95" y="327"/>
      <point x="149" y="327" type="curve" smooth="yes"/>
      <point x="186" y="327"/>
      <point x="258" y="323"/>
      <point x="258" y="323" type="curve"/>
      <point x="268" y="387" type="line"/>
      <point x="265" y="391" type="line"/>
      <point x="265" y="391"/>
      <point x="252" y="390"/>
      <point x="236" y="390" type="curve" smooth="yes"/>
      <point x="218" y="390"/>
      <point x="210" y="404"/>
      <point x="210" y="433" type="curve" smooth="yes"/>
      <point x="210" y="557"/>
      <point x="213" y="628"/>
      <point x="219" y="649" type="curve"/>
      <point x="225" y="672"/>
      <point x="233" y="686"/>
      <point x="247" y="696" type="curve"/>
      <point x="235" y="728" type="line"/>
      <point x="234" y="728"/>
      <point x="174" y="719"/>
      <point x="110" y="713" type="curve" smooth="yes"/>
      <point x="82" y="710"/>
      <point x="52" y="706"/>
      <point x="17" y="703" type="curve"/>
      <point x="12" y="650" type="line"/>
      <point x="18" y="643" type="line"/>
      <point x="18" y="643"/>
      <point x="38" y="644"/>
      <point x="50" y="644" type="curve" smooth="yes"/>
      <point x="77" y="644"/>
      <point x="82" y="637"/>
      <point x="82" y="606" type="curve" smooth="yes"/>
      <point x="82" y="422" type="line" smooth="yes"/>
      <point x="82" y="396"/>
      <point x="64" y="382"/>
      <point x="21" y="378" type="curve"/>
    </contour>
  </outline>
</glyph>
<glyph name="AE" format="2">
  <advance width="938"/>
  <unicode hex="00C6"/>
  <anchor x="499" y="647" name="top"/>
  <outline>
    <contour>
      <point x="339" y="87" type="curve"/>
      <point x="333" y="3" type="line"/>
      <point x="340" y="-6" type="line"/>
      <point x="340" y="-6"/>
      <point x="426" y="-1"/>
      <point x="511" y="0" type="curve" smooth="yes"/>
      <point x="553" y="0" type="line" smooth="yes"/>
      <point x="708" y="0"/>
      <point x="874" y="-7"/>
      <point x="874" y="-7" type="curve"/>
      <point x="889" y="9" type="line"/>
      <point x="899" y="118"/>
      <point x="917" y="215"/>
      <point x="917" y="215" type="curve"/>
      <point x="905" y="230" type="line"/>
      <point x="777" y="221" type="line"/>
      <point x="765" y="131"/>
      <point x="749" y="114"/>
      <point x="672" y="114" type="curve" smooth="yes"/>
      <point x="642" y="114"/>
      <point x="624" y="136"/>
      <point x="617" y="181" type="curve" smooth="yes"/>
      <point x="606" y="254" type="line"/>
      <point x="671" y="266" type="line"/>
      <point x="767" y="278" type="line"/>
      <point x="779" y="394" type="line"/>
      <point x="762" y="411" type="line"/>
      <point x="661" y="385" type="line"/>
      <point x="588" y="372" type="line"/>
      <point x="569" y="503" type="line"/>
      <point x="569" y="522"/>
      <point x="576" y="527"/>
      <point x="603" y="527" type="curve" smooth="yes"/>
      <point x="684" y="527"/>
      <point x="701" y="517"/>
      <point x="701" y="472" type="curve" smooth="yes"/>
      <point x="701" y="459"/>
      <point x="699" y="435"/>
      <point x="699" y="435" type="curve"/>
      <point x="837" y="444" type="line"/>
      <point x="842" y="538"/>
      <point x="860" y="643"/>
      <point x="860" y="643" type="curve"/>
      <point x="847" y="659" type="line"/>
      <point x="809" y="654"/>
      <point x="649" y="648"/>
      <point x="502" y="647" type="curve" smooth="yes"/>
      <point x="333" y="647"/>
      <point x="170" y="650"/>
      <point x="170" y="650" type="curve"/>
      <point x="161" y="571" type="line"/>
      <point x="173" y="557" type="line"/>
      <point x="173" y="557"/>
      <point x="188" y="559"/>
      <point x="199" y="559" type="curve" smooth="yes"/>
      <point x="215" y="559"/>
      <point x="222" y="552"/>
      <point x="225" y="531" type="curve"/>
      <point x="59" y="140" type="line" smooth="yes"/>
      <point x="45" y="109"/>
      <point x="27" y="91"/>
      <point x="2" y="85" type="curve"/>
      <point x="5" y="-2" type="line"/>
      <point x="5" y="-2"/>
      <point x="42" y="-1"/>
      <point x="85" y="-1" type="curve" smooth="yes"/>
      <point x="133" y="-1"/>
      <point x="280" y="-3"/>
      <point x="282" y="-4" type="curve"/>
      <point x="289" y="79" type="line"/>
      <point x="282" y="89" type="line" smooth="yes"/>
      <point x="236" y="89"/>
      <point x="227" y="88"/>
      <point x="227" y="104" type="curve" smooth="yes"/>
      <point x="227" y="108"/>
      <point x="229" y="117"/>
      <point x="233" y="130" type="curve" smooth="yes"/>
      <point x="249" y="183" type="line"/>
      <point x="326" y="206" type="line"/>
      <point x="401" y="219" type="line"/>
      <point x="406" y="162" type="line" smooth="yes"/>
      <point x="407" y="147"/>
      <point x="407" y="140"/>
      <point x="407" y="130" type="curve" smooth="yes"/>
      <point x="407" y="101"/>
      <point x="395" y="93"/>
    </contour>
    <contour>
      <point x="341" y="328" type="line"/>
      <point x="298" y="324" type="line"/>
      <point x="355" y="478" type="line"/>
      <point x="377" y="478" type="line"/>
      <point x="391" y="337" type="line"/>
    </contour>
  </outline>
</glyph>
<glyph name="Eth" format="2">
  <advance width="704"/>
  <unicode hex="00D0"/>
  <outline>
    <contour>
      <point x="342" y="-12" type="curve"/>
      <point x="556" y="-12"/>
      <point x="690" y="128"/>
      <point x="690" y="352" type="curve" smooth="yes"/>
      <point x="690" y="551"/>
      <point x="583" y="653"/>
      <point x="373" y="653" type="curve" smooth="yes"/>
      <point x="373" y="653"/>
      <point x="241" y="647"/>
      <point x="207" y="647" type="curve" smooth="yes"/>
      <point x="166" y="647"/>
      <point x="55" y="650"/>
      <point x="55" y="650" type="curve"/>
      <point x="46" y="569" type="line"/>
      <point x="56" y="555" type="line"/>
      <point x="56" y="555"/>
      <point x="73" y="557"/>
      <point x="88" y="557" type="curve" smooth="yes"/>
      <point x="107" y="557"/>
      <point x="113" y="545"/>
      <point x="113" y="503" type="curve" smooth="yes"/>
      <point x="113" y="363" type="line"/>
      <point x="20" y="363" type="line"/>
      <point x="7" y="274" type="line"/>
      <point x="17" y="266" type="line"/>
      <point x="113" y="266" type="line"/>
      <point x="113" y="168" type="line" smooth="yes"/>
      <point x="113" y="112"/>
      <point x="98" y="93"/>
      <point x="48" y="85" type="curve"/>
      <point x="40" y="-8" type="line"/>
      <point x="40" y="-8"/>
      <point x="127" y="0"/>
      <point x="183" y="0" type="curve" smooth="yes"/>
      <point x="246" y="0"/>
      <point x="342" y="-12"/>
    </contour>
    <contour>
      <point x="309" y="364" type="line"/>
      <point x="316" y="499" type="line" smooth="yes"/>
      <point x="317" y="519"/>
      <point x="322" y="526"/>
      <point x="337" y="526" type="curve" smooth="yes"/>
      <point x="432" y="526"/>
      <point x="461" y="477"/>
      <point x="461" y="314" type="curve" smooth="yes"/>
      <point x="461" y="168"/>
      <point x="428" y="113"/>
      <point x="342" y="113" type="curve" smooth="yes"/>
      <point x="314" y="113"/>
      <point x="306" y="123"/>
      <point x="306" y="162" type="curve" smooth="yes"/>
      <point x="306" y="267" type="line"/>
      <point x="385" y="267" type="line"/>
      <point x="392" y="357" type="line"/>
      <point x="384" y="367" type="line"/>
    </contour>
  </outline>
</glyph>
<glyph name="Thorn" format="2">
  <advance width="605"/>
  <unicode hex="00DE"/>
  <outline>
    <contour>
      <point x="15" y="-5" type="line"/>
      <point x="15" y="-5"/>
      <point x="119" y="0"/>
      <point x="181" y="0" type="curve" smooth="yes"/>
      <point x="226" y="0"/>
      <point x="358" y="-4"/>
      <point x="358" y="-4" type="curve"/>
      <point x="367" y="80" type="line"/>
      <point x="359" y="90" type="line"/>
      <point x="359" y="90"/>
      <point x="345" y="87"/>
      <point x="317" y="87" type="curve" smooth="yes"/>
      <point x="291" y="87"/>
      <point x="285" y="92"/>
      <point x="285" y="116" type="curve" smooth="yes"/>
      <point x="285" y="139" type="line"/>
      <point x="356" y="139" type="line" smooth="yes"/>
      <point x="504" y="139"/>
      <point x="605" y="217"/>
      <point x="605" y="331" type="curve" smooth="yes"/>
      <point x="605" y="461"/>
      <point x="528" y="522"/>
      <point x="363" y="522" type="curve" smooth="yes"/>
      <point x="294" y="522" type="line"/>
      <point x="294" y="523"/>
      <point x="295" y="525"/>
      <point x="295" y="527" type="curve"/>
      <point x="298" y="549"/>
      <point x="303" y="552"/>
      <point x="352" y="562" type="curve"/>
      <point x="359" y="652" type="line"/>
      <point x="359" y="652"/>
      <point x="230" y="647"/>
      <point x="187" y="647" type="curve" smooth="yes"/>
      <point x="133" y="647"/>
      <point x="80" y="647"/>
      <point x="26" y="647" type="curve"/>
      <point x="18" y="572" type="line"/>
      <point x="27" y="558" type="line"/>
      <point x="27" y="558"/>
      <point x="42" y="559"/>
      <point x="53" y="559" type="curve" smooth="yes"/>
      <point x="81" y="559"/>
      <point x="88" y="549"/>
      <point x="88" y="508" type="curve" smooth="yes"/>
      <point x="88" y="162" type="line" smooth="yes"/>
      <point x="88" y="106"/>
      <point x="76" y="91"/>
      <point x="23" y="80" type="curve"/>
    </contour>
    <contour>
      <point x="350" y="246" type="curve"/>
      <point x="339" y="246"/>
      <point x="313" y="250"/>
      <point x="286" y="256" type="curve"/>
      <point x="286" y="290"/>
      <point x="288" y="358"/>
      <point x="288" y="385" type="curve" smooth="yes"/>
      <point x="288" y="401"/>
      <point x="294" y="407"/>
      <point x="308" y="407" type="curve" smooth="yes"/>
      <point x="371" y="407"/>
      <point x="399" y="384"/>
      <point x="399" y="331" type="curve" smooth="yes"/>
      <point x="399" y="283"/>
      <point x="383" y="255"/>
    </contour>
  </outline>
</glyph>
<glyph name="germandbls" format="2">
  <advance width="692"/>
  <unicode hex="00DF"/>
  <outline>
    <contour>
      <point x="469" y="-12" type="curve" smooth="yes"/>
      <point x="599" y="-12"/>
      <point x="692" y="62"/>
      <point x="692" y="165" type="curve" smooth="yes"/>
      <point x="692" y="331"/>
      <point x="482" y="321"/>
      <point x="482" y="399" type="curve" smooth="yes"/>
      <point x="482" y="458"/>
      <point x="578" y="494"/>
      <point x="578" y="580" type="curve" smooth="yes"/>
      <point x="578" y="682"/>
      <point x="494" y="742"/>
      <point x="352" y="742" type="curve" smooth="yes"/>
      <point x="180" y="742"/>
      <point x="77" y="633"/>
      <point x="77" y="451" type="curve" smooth="yes"/>
      <point x="14" y="442" type="line"/>
      <point x="6" y="372" type="line"/>
      <point x="10" y="366" type="line" smooth="yes"/>
      <point x="64" y="363"/>
      <point x="74" y="356"/>
      <point x="77" y="326" type="curve" smooth="yes"/>
      <point x="77" y="134" type="line" smooth="yes"/>
      <point x="77" y="97"/>
      <point x="63" y="83"/>
      <point x="23" y="79" type="curve" smooth="yes"/>
      <point x="14" y="-8" type="line" smooth="yes"/>
      <point x="14" y="-6"/>
      <point x="131" y="0"/>
      <point x="169" y="0" type="curve" smooth="yes"/>
      <point x="211" y="0"/>
      <point x="296" y="-5"/>
      <point x="296" y="-5" type="curve" smooth="yes"/>
      <point x="308" y="89" type="line"/>
      <point x="303" y="94" type="line" smooth="yes"/>
      <point x="303" y="94"/>
      <point x="293" y="92"/>
      <point x="277" y="92" type="curve" smooth="yes"/>
      <point x="259" y="92"/>
      <point x="250" y="104"/>
      <point x="250" y="129" type="curve" smooth="yes"/>
      <point x="252" y="493" type="line" smooth="yes"/>
      <point x="252" y="591"/>
      <point x="268" y="616"/>
      <point x="331" y="616" type="curve" smooth="yes"/>
      <point x="372" y="616"/>
      <point x="403" y="587"/>
      <point x="403" y="547" type="curve" smooth="yes"/>
      <point x="403" y="479"/>
      <point x="307" y="446"/>
      <point x="307" y="358" type="curve" smooth="yes"/>
      <point x="307" y="208"/>
      <point x="507" y="219"/>
      <point x="507" y="144" type="curve" smooth="yes"/>
      <point x="507" y="120"/>
      <point x="492" y="106"/>
      <point x="466" y="106" type="curve" smooth="yes"/>
      <point x="429" y="106"/>
      <point x="398" y="141"/>
      <point x="393" y="188" type="curve"/>
      <point x="366" y="190" type="line"/>
      <point x="343" y="159"/>
      <point x="320" y="93"/>
      <point x="317" y="53" type="curve" smooth="yes"/>
      <point x="333" y="16"/>
      <point x="398" y="-12"/>
    </contour>
  </outline>
</glyph>
<glyph name="ae" format="2">
  <advance width="689"/>
  <unicode hex="00E6"/>
  <anchor x="350" y="472" name="top"/>
  <outline>
    <contour>
      <point x="494" y="-12" type="curve" smooth="yes"/>
      <point x="573" y="-12"/>
      <point x="675" y="69"/>
      <point x="675" y="69" type="curve"/>
      <point x="653" y="143" type="line"/>
      <point x="644" y="148" type="line"/>
      <point x="644" y="148"/>
      <point x="590" y="119"/>
      <point x="526" y="119" type="curve" smooth="yes"/>
      <point x="459" y="119"/>
      <point x="431" y="145"/>
      <point x="420" y="216" type="curve"/>
      <point x="659" y="238" type="line"/>
      <point x="671" y="248" type="line"/>
      <point x="671" y="248"/>
      <point x="673" y="265"/>
      <point x="673" y="288" type="curve" smooth="yes"/>
      <point x="673" y="411"/>
      <point x="609" y="484"/>
      <point x="500" y="484" type="curve" smooth="yes"/>
      <point x="438" y="484"/>
      <point x="389" y="468"/>
      <point x="352" y="436" type="curve"/>
      <point x="316" y="467"/>
      <point x="273" y="484"/>
      <point x="228" y="484" type="curve" smooth="yes"/>
      <point x="176" y="484"/>
      <point x="20" y="401"/>
      <point x="20" y="401" type="curve"/>
      <point x="45" y="321" type="line"/>
      <point x="57" y="315" type="line"/>
      <point x="57" y="315"/>
      <point x="120" y="358"/>
      <point x="172" y="358" type="curve" smooth="yes"/>
      <point x="223" y="358"/>
      <point x="254" y="331"/>
      <point x="254" y="286" type="curve" smooth="yes"/>
      <point x="254" y="277" type="line"/>
      <point x="83" y="254" type="line" smooth="yes"/>
      <point x="36" y="247"/>
      <point x="6" y="208"/>
      <point x="6" y="157" type="curve" smooth="yes"/>
      <point x="6" y="65"/>
      <point x="71" y="-8"/>
      <point x="153" y="-8" type="curve" smooth="yes"/>
      <point x="181" y="-8"/>
      <point x="233" y="23"/>
      <point x="294" y="77" type="curve"/>
      <point x="333" y="19"/>
      <point x="402" y="-12"/>
    </contour>
    <contour>
      <point x="214" y="120" type="curve" smooth="yes"/>
      <point x="189" y="120"/>
      <point x="174" y="138"/>
      <point x="174" y="168" type="curve" smooth="yes"/>
      <point x="174" y="187"/>
      <point x="180" y="194"/>
      <point x="199" y="197" type="curve" smooth="yes"/>
      <point x="254" y="205" type="line"/>
      <point x="255" y="179"/>
      <point x="260" y="153"/>
      <point x="268" y="131" type="curve"/>
      <point x="252" y="124"/>
      <point x="230" y="120"/>
    </contour>
    <contour>
      <point x="414" y="288" type="line"/>
      <point x="414" y="317" type="line" smooth="yes"/>
      <point x="415" y="352"/>
      <point x="431" y="370"/>
      <point x="464" y="370" type="curve" smooth="yes"/>
      <point x="490" y="370"/>
      <point x="505" y="348"/>
      <point x="505" y="312" type="curve" smooth="yes"/>
      <point x="505" y="305"/>
      <point x="500" y="301"/>
      <point x="490" y="300" type="curve" smooth="yes"/>
    </contour>
  </outline>
</glyph>
<glyph name="dcroat" format="2">
  <advance width="536"/>
  <unicode hex="0111"/>
  <outline>
    <contour>
      <point x="205" y="508" type="line"/>
      <point x="375" y="509" type="line"/>
      <point x="552" y="510" type="line"/>
      <point x="557" y="565" type="line"/>
      <point x="542" y="580" type="line"/>
      <point x="401" y="575" type="line"/>
      <point x="202" y="576" type="line"/>
      <point x="194" y="518" type="line"/>
    </contour>
    <component base="d"/>
  </outline>
</glyph>
<glyph name="Hbar" format="2">
  <advance width="739"/>
  <unicode hex="0126"/>
  <anchor x="378" y="0" name="bottom"/>
  <anchor x="370" y="324" name="center"/>
  <anchor x="373" y="647" name="top"/>
  <outline>
    <contour>
      <point x="6" y="436" type="line"/>
      <point x="6" y="436"/>
      <point x="210" y="437"/>
      <point x="376" y="437" type="curve" smooth="yes"/>
      <point x="743" y="438" type="line"/>
      <point x="748" y="493" type="line"/>
      <point x="733" y="508" type="line"/>
      <point x="733" y="508"/>
      <point x="543" y="503"/>
      <point x="402" y="503" type="curve" smooth="yes"/>
      <point x="237" y="503"/>
      <point x="3" y="504"/>
      <point x="3" y="504" type="curve"/>
      <point x="-5" y="446" type="line"/>
    </contour>
    <component base="H"/>
  </outline>
</glyph>
<glyph name="imacron" format="2">
  <advance width="305"/>
  <unicode hex="012B"/>
  <outline>
    <contour>
      <point x="7" y="-10" type="line"/>
      <point x="7" y="-10"/>
      <point x="93" y="0"/>
      <point x="152" y="0" type="curve" smooth="yes"/>
      <point x="198" y="0"/>
      <point x="287" y="-4"/>
      <point x="287" y="-4" type="curve"/>
      <point x="299" y="81" type="line"/>
      <point x="296" y="86" type="line"/>
      <point x="296" y="86"/>
      <point x="282" y="84"/>
      <point x="273" y="84" type="curve" smooth="yes"/>
      <point x="254" y="84"/>
      <point x="248" y="91"/>
      <point x="248" y="114" type="curve" smooth="yes"/>
      <point x="248" y="315"/>
      <point x="256" y="432"/>
      <point x="272" y="462" type="curve"/>
      <point x="259" y="484" type="line"/>
      <point x="259" y="484"/>
      <point x="134" y="461"/>
      <point x="14" y="447" type="curve"/>
      <point x="6" y="364" type="line"/>
      <point x="6" y="364"/>
      <point x="22" y="367"/>
      <point x="28" y="367" type="curve" smooth="yes"/>
      <point x="67" y="367"/>
      <point x="76" y="356"/>
      <point x="76" y="309" type="curve" smooth="yes"/>
      <point x="76" y="138" type="line" smooth="yes"/>
      <point x="76" y="100"/>
      <point x="58" y="82"/>
      <point x="19" y="79" type="curve"/>
    </contour>
    <contour>
      <point x="26" y="564" type="line"/>
      <point x="26" y="564"/>
      <point x="101" y="565"/>
      <point x="160" y="565" type="curve" smooth="yes"/>
      <point x="300" y="566" type="line"/>
      <point x="318" y="675" type="line"/>
      <point x="307" y="693" type="line"/>
      <point x="307" y="693"/>
      <point x="233" y="687"/>
      <point x="183" y="687" type="curve" smooth="yes"/>
      <point x="124" y="687"/>
      <point x="29" y="688"/>
      <point x="29" y="688" type="curve"/>
      <point x="10" y="579" type="line"/>
    </contour>
  </outline>
</glyph>
<glyph name="idotless" format="2">
  <advance width="305"/>
  <unicode hex="0131"/>
  <anchor x="159" y="0" name="bottom"/>
  <anchor x="238" y="49" name="ogonek"/>
  <anchor x="155" y="472" name="top"/>
  <outline>
    <contour>
      <point x="7" y="-10" type="line"/>
      <point x="7" y="-10"/>
      <point x="93" y="0"/>
      <point x="152" y="0" type="curve" smooth="yes"/>
      <point x="198" y="0"/>
      <point x="287" y="-4"/>
      <point x="287" y="-4" type="curve"/>
      <point x="299" y="81" type="line"/>
      <point x="296" y="86" type="line"/>
      <point x="296" y="86"/>
      <point x="282" y="84"/>
      <point x="273" y="84" type="curve" smooth="yes"/>
      <point x="254" y="84"/>
      <point x="248" y="91"/>
      <point x="248" y="114" type="curve" smooth="yes"/>
      <point x="248" y="315"/>
      <point x="256" y="432"/>
      <point x="272" y="462" type="curve"/>
      <point x="259" y="484" type="line"/>
      <point x="259" y="484"/>
      <point x="134" y="461"/>
      <point x="14" y="447" type="curve"/>
      <point x="6" y="364" type="line"/>
      <point x="6" y="364"/>
      <point x="22" y="367"/>
      <point x="28" y="367" type="curve" smooth="yes"/>
      <point x="67" y="367"/>
      <point x="76" y="356"/>
      <point x="76" y="309" type="curve" smooth="yes"/>
      <point x="76" y="138" type="line" smooth="yes"/>
      <point x="76" y="100"/>
      <point x="58" y="82"/>
      <point x="19" y="79" type="curve"/>
    </contour>
  </outline>
</glyph>
<glyph name="Lcaron" format="2">
  <advance width="570"/>
  <unicode hex="013D"/>
  <outline>
    <contour>
      <point x="459" y="389" type="line"/>
      <point x="532" y="414" type="line"/>
      <point x="558" y="526"/>
      <point x="574" y="635"/>
      <point x="574" y="635" type="curve"/>
      <point x="565" y="647" type="line"/>
      <point x="431" y="633" type="line"/>
      <point x="431" y="633"/>
      <point x="442" y="515"/>
      <point x="440" y="395" type="curve"/>
    </contour>
    <component base="L"/>
  </outline>
</glyph>
<glyph name="eng" format="2">
  <advance width="565"/>
  <unicode hex="014B"/>
  <anchor x="291" y="0" name="bottom"/>
  <anchor x="308" y="472" name="top"/>
  <outline>
    <contour>
      <point x="273" y="-164" type="line"/>
      <point x="437" y="-122"/>
      <point x="499" y="-55"/>
      <point x="512" y="89" type="curve" smooth="yes"/>
      <point x="533" y="354" type="line"/>
      <point x="533" y="439"/>
      <point x="475" y="484"/>
      <point x="367" y="484" type="curve" smooth="yes"/>
      <point x="350" y="484"/>
      <point x="311" y="452"/>
      <point x="259" y="395" type="curve"/>
      <point x="252" y="399" type="line"/>
      <point x="255" y="433"/>
      <point x="264" y="472"/>
      <point x="264" y="472" type="curve"/>
      <point x="252" y="484" type="line"/>
      <point x="252" y="484"/>
      <point x="132" y="463"/>
      <point x="16" y="447" type="curve"/>
      <point x="8" y="372" type="line"/>
      <point x="13" y="365" type="line"/>
      <point x="29" y="365" type="line" smooth="yes"/>
      <point x="68" y="365"/>
      <point x="77" y="354"/>
      <point x="77" y="307" type="curve" smooth="yes"/>
      <point x="77" y="134" type="line" smooth="yes"/>
      <point x="77" y="96"/>
      <point x="65" y="84"/>
      <point x="26" y="82" type="curve"/>
      <point x="14" y="-5" type="line"/>
      <point x="14" y="-5"/>
      <point x="93" y="0"/>
      <point x="156" y="0" type="curve" smooth="yes"/>
      <point x="198" y="0"/>
      <point x="278" y="-4"/>
      <point x="278" y="-4" type="curve"/>
      <point x="290" y="82" type="line"/>
      <point x="287" y="87" type="line"/>
      <point x="287" y="87"/>
      <point x="275" y="86"/>
      <point x="271" y="86" type="curve" smooth="yes"/>
      <point x="252" y="86"/>
      <point x="247" y="93"/>
      <point x="247" y="118" type="curve" smooth="yes"/>
      <point x="247" y="129"/>
      <point x="250" y="176"/>
      <point x="259" y="318" type="curve"/>
      <point x="277" y="332"/>
      <point x="292" y="339"/>
      <point x="304" y="339" type="curve" smooth="yes"/>
      <point x="337" y="339"/>
      <point x="348" y="322"/>
      <point x="347" y="271" type="curve" smooth="yes"/>
      <point x="347" y="130" type="line" smooth="yes"/>
      <point x="345" y="2"/>
      <point x="325" y="-38"/>
      <point x="235" y="-101" type="curve"/>
      <point x="233" y="-116" type="line"/>
    </contour>
  </outline>
</glyph>
<glyph name="OE" format="2">
  <advance width="915"/>
  <unicode hex="0152"/>
  <anchor x="508" y="647" name="top"/>
  <outline>
    <contour>
      <point x="318" y="-10" type="curve" smooth="yes"/>
      <point x="373" y="-10"/>
      <point x="458" y="3"/>
      <point x="533" y="3" type="curve" smooth="yes"/>
      <point x="688" y="3"/>
      <point x="857" y="-7"/>
      <point x="857" y="-7" type="curve"/>
      <point x="872" y="9" type="line"/>
      <point x="882" y="118"/>
      <point x="900" y="215"/>
      <point x="900" y="215" type="curve"/>
      <point x="888" y="230" type="line"/>
      <point x="760" y="221" type="line"/>
      <point x="749" y="132"/>
      <point x="731" y="115"/>
      <point x="644" y="115" type="curve" smooth="yes"/>
      <point x="602" y="115"/>
      <point x="596" y="123"/>
      <point x="596" y="175" type="curve" smooth="yes"/>
      <point x="597" y="260" type="line"/>
      <point x="672" y="266" type="line" smooth="yes"/>
      <point x="718" y="266"/>
      <point x="792" y="263"/>
      <point x="792" y="263" type="curve"/>
      <point x="806" y="378" type="line"/>
      <point x="794" y="392" type="line"/>
      <point x="794" y="392"/>
      <point x="714" y="386"/>
      <point x="684" y="386" type="curve" smooth="yes"/>
      <point x="602" y="387" type="line"/>
      <point x="608" y="500" type="line" smooth="yes"/>
      <point x="608" y="522"/>
      <point x="614" y="527"/>
      <point x="642" y="527" type="curve" smooth="yes"/>
      <point x="723" y="527"/>
      <point x="740" y="517"/>
      <point x="740" y="472" type="curve" smooth="yes"/>
      <point x="740" y="459"/>
      <point x="738" y="435"/>
      <point x="738" y="435" type="curve"/>
      <point x="876" y="444" type="line"/>
      <point x="881" y="538"/>
      <point x="899" y="643"/>
      <point x="899" y="643" type="curve"/>
      <point x="886" y="659" type="line"/>
      <point x="830" y="652"/>
      <point x="692" y="638"/>
      <point x="566" y="638" type="curve" smooth="yes"/>
      <point x="475" y="638"/>
      <point x="402" y="650"/>
      <point x="337" y="650" type="curve" smooth="yes"/>
      <point x="125" y="650"/>
      <point x="15" y="536"/>
      <point x="15" y="312" type="curve" smooth="yes"/>
      <point x="15" y="103"/>
      <point x="125" y="-10"/>
    </contour>
    <contour>
      <point x="332" y="108" type="curve" smooth="yes"/>
      <point x="265" y="108"/>
      <point x="242" y="175"/>
      <point x="242" y="362" type="curve" smooth="yes"/>
      <point x="242" y="483"/>
      <point x="263" y="528"/>
      <point x="322" y="528" type="curve" smooth="yes"/>
      <point x="372" y="528"/>
      <point x="405" y="506"/>
      <point x="405" y="439" type="curve" smooth="yes"/>
      <point x="404" y="196" type="line"/>
      <point x="404" y="135"/>
      <point x="378" y="108"/>
    </contour>
  </outline>
</glyph>
<glyph name="tcaron" format="2">
  <advance width="396"/>
  <unicode hex="0165"/>
  <outline>
    <contour>
      <point x="295" y="502" type="line"/>
      <point x="368" y="527" type="line"/>
      <point x="394" y="639"/>
      <point x="410" y="748"/>
      <point x="410" y="748" type="curve"/>
      <point x="401" y="760" type="line"/>
      <point x="267" y="746" type="line"/>
      <point x="267" y="746"/>
      <point x="278" y="628"/>
      <point x="276" y="508" type="curve"/>
    </contour>
    <component base="t"/>
  </outline>
</glyph>
<glyph name="Uogonek" format="2">
  <advance width="627"/>
  <unicode hex="0172"/>
  <outline>
    <contour>
      <point x="429" y="-242" type="curve"/>
      <point x="458" y="-238"/>
      <point x="494" y="-214"/>
      <point x="542" y="-167" type="curve"/>
      <point x="509" y="-115" type="line"/>
      <point x="488" y="-129"/>
      <point x="466" y="-138"/>
      <point x="450" y="-138" type="curve" smooth="yes"/>
      <point x="436" y="-138"/>
      <point x="428" y="-130"/>
      <point x="428" y="-116" type="curve" smooth="yes"/>
      <point x="428" y="-92"/>
      <point x="457" y="-42"/>
      <point x="513" y="54" type="curve" smooth="yes"/>
      <point x="547" y="112"/>
      <point x="572" y="162"/>
      <point x="572" y="234" type="curve" smooth="yes"/>
      <point x="572" y="516" type="line" smooth="yes"/>
      <point x="572" y="540"/>
      <point x="578" y="546"/>
      <point x="620" y="560" type="curve"/>
      <point x="628" y="650" type="line"/>
      <point x="628" y="650"/>
      <point x="545" y="647"/>
      <point x="484" y="647" type="curve" smooth="yes"/>
      <point x="447" y="647"/>
      <point x="364" y="650"/>
      <point x="364" y="650" type="curve"/>
      <point x="353" y="561" type="line"/>
      <point x="356" y="557" type="line"/>
      <point x="356" y="557"/>
      <point x="369" y="559"/>
      <point x="379" y="559" type="curve" smooth="yes"/>
      <point x="399" y="559"/>
      <point x="405" y="546"/>
      <point x="405" y="505" type="curve" smooth="yes"/>
      <point x="406" y="203" type="line" smooth="yes"/>
      <point x="406" y="141"/>
      <point x="384" y="115"/>
      <point x="334" y="115" type="curve" smooth="yes"/>
      <point x="286" y="115"/>
      <point x="257" y="154"/>
      <point x="257" y="220" type="curve" smooth="yes"/>
      <point x="263" y="509" type="line" smooth="yes"/>
      <point x="264" y="541"/>
      <point x="277" y="555"/>
      <point x="311" y="558" type="curve"/>
      <point x="321" y="651" type="line"/>
      <point x="321" y="651"/>
      <point x="226" y="647"/>
      <point x="187" y="647" type="curve" smooth="yes"/>
      <point x="108" y="647"/>
      <point x="10" y="650"/>
      <point x="10" y="650" type="curve"/>
      <point x="0" y="561" type="line"/>
      <point x="2" y="557" type="line"/>
      <point x="2" y="557"/>
      <point x="21" y="559"/>
      <point x="31" y="559" type="curve" smooth="yes"/>
      <point x="54" y="559"/>
      <point x="59" y="549"/>
      <point x="59" y="505" type="curve" smooth="yes"/>
      <point x="59" y="199" type="line" smooth="yes"/>
      <point x="59" y="52"/>
      <point x="134" y="-12"/>
      <point x="305" y="-12" type="curve" smooth="yes"/>
      <point x="333.905" y="-12"/>
      <point x="357.594" y="-10.261"/>
      <point x="380.12" y="-5.973" type="curve"/>
      <point x="316.124" y="-82.377"/>
      <point x="304" y="-105.909"/>
      <point x="304" y="-138" type="curve" smooth="yes"/>
      <point x="304" y="-199"/>
      <point x="356" y="-242"/>
    </contour>
  </outline>
</glyph>
<glyph name="uogonek" format="2">
  <advance width="553"/>
  <unicode hex="0173"/>
  <outline>
    <contour>
      <point x="9" y="449" type="curve"/>
      <point x="1" y="366" type="line"/>
      <point x="1" y="366"/>
      <point x="14" y="367"/>
      <point x="27" y="367" type="curve" smooth="yes"/>
      <point x="49" y="367"/>
      <point x="56" y="357"/>
      <point x="56" y="325" type="curve" smooth="yes"/>
      <point x="47" y="126" type="line"/>
      <point x="47" y="37"/>
      <point x="110" y="-10"/>
      <point x="229" y="-10" type="curve" smooth="yes"/>
      <point x="242" y="-10"/>
      <point x="271" y="18"/>
      <point x="310" y="67" type="curve"/>
      <point x="321" y="61" type="line"/>
      <point x="330" y="12"/>
      <point x="369" y="-12"/>
      <point x="438" y="-12" type="curve"/>
      <point x="564" y="106" type="line"/>
      <point x="544" y="136" type="line"/>
      <point x="544" y="136"/>
      <point x="527" y="128"/>
      <point x="511" y="128" type="curve" smooth="yes"/>
      <point x="494" y="128"/>
      <point x="482" y="142"/>
      <point x="482" y="163" type="curve" smooth="yes"/>
      <point x="482" y="302"/>
      <point x="496" y="427"/>
      <point x="515" y="458" type="curve"/>
      <point x="501" y="480" type="line"/>
      <point x="501" y="480"/>
      <point x="381" y="461"/>
      <point x="278" y="448" type="curve"/>
      <point x="265" y="366" type="line"/>
      <point x="268" y="366"/>
      <point x="271" y="366"/>
      <point x="274" y="366" type="curve" smooth="yes"/>
      <point x="307" y="362"/>
      <point x="310" y="359"/>
      <point x="310" y="323" type="curve" smooth="yes"/>
      <point x="310" y="150" type="line"/>
      <point x="292" y="140"/>
      <point x="275" y="134"/>
      <point x="264" y="134" type="curve" smooth="yes"/>
      <point x="235" y="134"/>
      <point x="221" y="154"/>
      <point x="221" y="196" type="curve" smooth="yes"/>
      <point x="221" y="316"/>
      <point x="233" y="431"/>
      <point x="249" y="462" type="curve"/>
      <point x="236" y="484" type="line"/>
      <point x="236" y="484"/>
      <point x="118" y="462"/>
    </contour>
    <contour>
      <point x="454" y="-242" type="curve"/>
      <point x="483" y="-238"/>
      <point x="519" y="-214"/>
      <point x="567" y="-167" type="curve"/>
      <point x="534" y="-115" type="line"/>
      <point x="513" y="-129"/>
      <point x="491" y="-138"/>
      <point x="475" y="-138" type="curve" smooth="yes"/>
      <point x="461" y="-138"/>
      <point x="453" y="-130"/>
      <point x="453" y="-116" type="curve" smooth="yes"/>
      <point x="453" y="-82"/>
      <point x="480" y="-29"/>
      <point x="564" y="106" type="curve"/>
      <point x="446" y="42" type="line"/>
      <point x="346" y="-74"/>
      <point x="329" y="-100"/>
      <point x="329" y="-138" type="curve" smooth="yes"/>
      <point x="329" y="-199"/>
      <point x="381" y="-242"/>
    </contour>
  </outline>
</glyph>
<glyph name="longs" format="2">
  <advance width="324"/>
  <unicode hex="017F"/>
  <outline>
    <contour>
      <point x="14" y="-8" type="line"/>
      <point x="90" y="-3"/>
      <point x="140" y="0"/>
      <point x="169" y="0" type="curve" smooth="yes"/>
      <point x="194" y="0"/>
      <point x="246" y="-2"/>
      <point x="308" y="-5" type="curve"/>
      <point x="316" y="89" type="line"/>
      <point x="314" y="94" type="line"/>
      <point x="301" y="93"/>
      <point x="290" y="92"/>
      <point x="278" y="92" type="curve" smooth="yes"/>
      <point x="259" y="92"/>
      <point x="250" y="104"/>
      <point x="250" y="129" type="curve"/>
      <point x="252" y="493" type="line"/>
      <point x="252" y="592"/>
      <point x="267" y="616"/>
      <point x="329" y="616" type="curve" smooth="yes"/>
      <point x="361" y="616"/>
      <point x="400" y="600"/>
      <point x="423" y="577" type="curve"/>
      <point x="437" y="581" type="line"/>
      <point x="450" y="621"/>
      <point x="467" y="670"/>
      <point x="476" y="696" type="curve"/>
      <point x="469" y="719" type="line"/>
      <point x="442" y="732"/>
      <point x="393" y="742"/>
      <point x="352" y="742" type="curve" smooth="yes"/>
      <point x="185" y="742"/>
      <point x="77" y="634"/>
      <point x="77" y="465" type="curve" smooth="yes"/>
      <point x="77" y="451" type="line"/>
      <point x="14" y="442" type="line"/>
      <point x="6" y="372" type="line"/>
      <point x="10" y="366" type="line"/>
      <point x="64" y="363"/>
      <point x="75" y="356"/>
      <point x="77" y="326" type="curve"/>
      <point x="77" y="134" type="line" smooth="yes"/>
      <point x="77" y="97"/>
      <point x="63" y="83"/>
      <point x="23" y="79" type="curve"/>
    </contour>
  </outline>
</glyph>
<glyph name="florin" format="2">
  <advance width="453"/>
  <unicode hex="0192"/>
  <outline>
    <contour>
      <point x="73" y="-164" type="curve" smooth="yes"/>
      <point x="148" y="-164"/>
      <point x="217" y="-117"/>
      <point x="258" y="-45" type="curve" smooth="yes"/>
      <point x="282" y="-4"/>
      <point x="296" y="46"/>
      <point x="299" y="99" type="curve" smooth="yes"/>
      <point x="308" y="292" type="line"/>
      <point x="346" y="292"/>
      <point x="384" y="292"/>
      <point x="422" y="292" type="curve"/>
      <point x="432" y="361" type="line"/>
      <point x="427" y="369" type="line"/>
      <point x="389" y="369"/>
      <point x="351" y="369"/>
      <point x="313" y="369" type="curve"/>
      <point x="317" y="412" type="line" smooth="yes"/>
      <point x="321" y="468"/>
      <point x="336" y="490"/>
      <point x="375" y="490" type="curve" smooth="yes"/>
      <point x="398" y="490"/>
      <point x="416" y="480"/>
      <point x="451" y="450" type="curve"/>
      <point x="469" y="453" type="line"/>
      <point x="483" y="475"/>
      <point x="509" y="555"/>
      <point x="509" y="575" type="curve" smooth="yes"/>
      <point x="509" y="587"/>
      <point x="465" y="598"/>
      <point x="415" y="598" type="curve" smooth="yes"/>
      <point x="322" y="598"/>
      <point x="222" y="539"/>
      <point x="174" y="467" type="curve" smooth="yes"/>
      <point x="156" y="440"/>
      <point x="146" y="412"/>
      <point x="146" y="384" type="curve" smooth="yes"/>
      <point x="146" y="370" type="line"/>
      <point x="63" y="357" type="line"/>
      <point x="55" y="298" type="line"/>
      <point x="58" y="292" type="line"/>
      <point x="123" y="292"/>
      <point x="141" y="283"/>
      <point x="143" y="251" type="curve"/>
      <point x="143" y="183"/>
      <point x="144" y="114"/>
      <point x="144" y="46" type="curve" smooth="yes"/>
      <point x="144" y="-30"/>
      <point x="131" y="-58"/>
      <point x="96" y="-58" type="curve" smooth="yes"/>
      <point x="66" y="-58"/>
      <point x="43" y="-32"/>
      <point x="38" y="5" type="curve"/>
      <point x="20" y="5" type="line"/>
      <point x="1" y="-18"/>
      <point x="-24" y="-87"/>
      <point x="-24" y="-114" type="curve" smooth="yes"/>
      <point x="-24" y="-137"/>
      <point x="29" y="-164"/>
    </contour>
  </outline>
</glyph>
<glyph name="ohorn" format="2">
  <advance width="549"/>
  <unicode hex="01A1"/>
  <outline>
    <contour>
      <point x="244" y="-12" type="curve" smooth="yes"/>
      <point x="402" y="-12"/>
      <point x="495" y="85"/>
      <point x="495" y="248" type="curve" smooth="yes"/>
      <point x="495" y="302"/>
      <point x="484" y="349"/>
      <point x="463" y="387" type="curve"/>
      <point x="523" y="389"/>
      <point x="589" y="460"/>
      <point x="589" y="523" type="curve" smooth="yes"/>
      <point x="589" y="563"/>
      <point x="571" y="595"/>
      <point x="539" y="608" type="curve" smooth="yes"/>
      <point x="529" y="612"/>
      <point x="517" y="614"/>
      <point x="504" y="614" type="curve" smooth="yes"/>
      <point x="478" y="614"/>
      <point x="443" y="597"/>
      <point x="412" y="570" type="curve"/>
      <point x="409" y="556" type="line"/>
      <point x="427" y="541"/>
      <point x="438" y="519"/>
      <point x="438" y="500" type="curve" smooth="yes"/>
      <point x="438" y="473"/>
      <point x="426" y="458"/>
      <point x="406" y="458" type="curve" smooth="yes"/>
      <point x="379" y="458"/>
      <point x="330" y="484"/>
      <point x="266" y="484" type="curve" smooth="yes"/>
      <point x="108" y="484"/>
      <point x="14" y="388"/>
      <point x="14" y="225" type="curve" smooth="yes"/>
      <point x="14" y="78"/>
      <point x="102" y="-12"/>
    </contour>
    <contour>
      <point x="256" y="95" type="curve" smooth="yes"/>
      <point x="216" y="95"/>
      <point x="204" y="135"/>
      <point x="204" y="271" type="curve" smooth="yes"/>
      <point x="204" y="342"/>
      <point x="215" y="364"/>
      <point x="250" y="364" type="curve" smooth="yes"/>
      <point x="290" y="364"/>
      <point x="302" y="325"/>
      <point x="302" y="191" type="curve" smooth="yes"/>
      <point x="302" y="117"/>
      <point x="291" y="95"/>
    </contour>
  </outline>
</glyph>
<glyph name="Ezh" format="2">
  <advance width="589"/>
  <unicode hex="01B7"/>
  <anchor x="293" y="0" name="bottom"/>
  <anchor x="304" y="647" name="top"/>
  <outline>
    <contour>
      <point x="238" y="-12" type="curve" smooth="yes"/>
      <point x="458" y="-12"/>
      <point x="570" y="58"/>
      <point x="570" y="197" type="curve" smooth="yes"/>
      <point x="570" y="321"/>
      <point x="482" y="376"/>
      <point x="272" y="386" type="curve"/>
      <point x="206" y="347" type="line"/>
      <point x="200" y="285" type="line"/>
      <point x="212" y="271" type="line"/>
      <point x="314" y="270"/>
      <point x="345" y="247"/>
      <point x="345" y="191" type="curve" smooth="yes"/>
      <point x="345" y="145"/>
      <point x="317" y="121"/>
      <point x="261" y="121" type="curve" smooth="yes"/>
      <point x="200" y="121"/>
      <point x="174" y="149"/>
      <point x="175" y="217" type="curve"/>
      <point x="54" y="209" type="line"/>
      <point x="40" y="194" type="line"/>
      <point x="42" y="98"/>
      <point x="41" y="53"/>
      <point x="36" y="21" type="curve"/>
      <point x="48" y="5" type="line"/>
      <point x="89" y="-5"/>
      <point x="169" y="-12"/>
    </contour>
    <contour>
      <point x="206" y="347" type="line"/>
      <point x="348" y="347" type="line"/>
      <point x="563" y="583" type="line"/>
      <point x="538" y="647" type="line"/>
      <point x="244" y="647" type="line"/>
      <point x="70" y="658" type="line"/>
      <point x="58" y="647" type="line"/>
      <point x="54" y="549"/>
      <point x="49" y="472"/>
      <point x="44" y="431" type="curve"/>
      <point x="179" y="439" type="line"/>
      <point x="187" y="498"/>
      <point x="198" y="510"/>
      <point x="252" y="510" type="curve" smooth="yes"/>
      <point x="427" y="510" type="line"/>
      <point x="438" y="607" type="line"/>
    </contour>
  </outline>
</glyph>
<glyph name="Gstroke" format="2">
  <advance width="651"/>
  <unicode hex="01E4"/>
  <outline>
    <contour>
      <point x="320" y="-11" type="curve" smooth="yes"/>
      <point x="482" y="-11"/>
      <point x="562" y="22"/>
      <point x="562" y="22" type="curve"/>
      <point x="574" y="38" type="line"/>
      <point x="569" y="59"/>
      <point x="567" y="83"/>
      <point x="567" y="124" type="curve" smooth="yes"/>
      <point x="567" y="255"/>
      <point x="573" y="275"/>
      <point x="619" y="301" type="curve"/>
      <point x="609" y="359" type="line"/>
      <point x="609" y="358"/>
      <point x="547" y="354"/>
      <point x="490" y="354" type="curve" smooth="yes"/>
      <point x="439" y="354"/>
      <point x="388" y="354"/>
      <point x="337" y="354" type="curve"/>
      <point x="325" y="259" type="line"/>
      <point x="334" y="245" type="line"/>
      <point x="334" y="245"/>
      <point x="351" y="246"/>
      <point x="367" y="246" type="curve" smooth="yes"/>
      <point x="392" y="246"/>
      <point x="399" y="237"/>
      <point x="399" y="205" type="curve" smooth="yes"/>
      <point x="399" y="134" type="line"/>
      <point x="399" y="134"/>
      <point x="383" y="122"/>
      <point x="347" y="122" type="curve" smooth="yes"/>
      <point x="274" y="122"/>
      <point x="243" y="188"/>
      <point x="243" y="343" type="curve" smooth="yes"/>
      <point x="243" y="478"/>
      <point x="269" y="521"/>
      <point x="351" y="521" type="curve" smooth="yes"/>
      <point x="397" y="521"/>
      <point x="410" y="506"/>
      <point x="410" y="457" type="curve" smooth="yes"/>
      <point x="410" y="425"/>
      <point x="408" y="402"/>
      <point x="408" y="402" type="curve"/>
      <point x="562" y="411" type="line"/>
      <point x="568" y="528"/>
      <point x="590" y="613"/>
      <point x="590" y="613" type="curve"/>
      <point x="579" y="633" type="line"/>
      <point x="579" y="633"/>
      <point x="470" y="659"/>
      <point x="376" y="659" type="curve" smooth="yes"/>
      <point x="141" y="659"/>
      <point x="15" y="538"/>
      <point x="15" y="311" type="curve" smooth="yes"/>
      <point x="15" y="108"/>
      <point x="128" y="-11"/>
    </contour>
    <contour>
      <point x="315" y="153" type="line"/>
      <point x="367" y="153"/>
      <point x="434" y="154"/>
      <point x="461" y="154" type="curve" smooth="yes"/>
      <point x="627" y="154" type="line"/>
      <point x="635" y="208" type="line"/>
      <point x="627" y="224" type="line"/>
      <point x="570" y="222"/>
      <point x="499" y="220"/>
      <point x="470" y="220" type="curve" smooth="yes"/>
      <point x="450" y="220"/>
      <point x="372" y="221"/>
      <point x="318" y="221" type="curve"/>
      <point x="310" y="164" type="line"/>
    </contour>
  </outline>
</glyph>
<glyph name="gstroke" format="2">
  <advance width="527"/>
  <unicode hex="01E5"/>
  <outline>
    <contour>
      <point x="244" y="241" type="curve" smooth="yes"/>
      <point x="210" y="241"/>
      <point x="196" y="263"/>
      <point x="196" y="315" type="curve" smooth="yes"/>
      <point x="196" y="365"/>
      <point x="209" y="385"/>
      <point x="241" y="385" type="curve" smooth="yes"/>
      <point x="276" y="385"/>
      <point x="291" y="363"/>
      <point x="291" y="311" type="curve" smooth="yes"/>
      <point x="291" y="261"/>
      <point x="277" y="241"/>
    </contour>
    <contour>
      <point x="233" y="148" type="curve" smooth="yes"/>
      <point x="374" y="148"/>
      <point x="469" y="214"/>
      <point x="469" y="313" type="curve" smooth="yes"/>
      <point x="469" y="348"/>
      <point x="457" y="376"/>
      <point x="430" y="402" type="curve"/>
      <point x="434" y="407" type="line"/>
      <point x="457" y="407"/>
      <point x="482" y="409"/>
      <point x="494" y="409" type="curve"/>
      <point x="508" y="508" type="line"/>
      <point x="500" y="514" type="line"/>
      <point x="445" y="495"/>
      <point x="385" y="480"/>
      <point x="356" y="478" type="curve"/>
      <point x="320" y="478"/>
      <point x="296" y="486"/>
      <point x="247" y="486" type="curve" smooth="yes"/>
      <point x="105" y="486"/>
      <point x="16" y="419"/>
      <point x="16" y="312" type="curve" smooth="yes"/>
      <point x="16" y="209"/>
      <point x="97" y="148"/>
    </contour>
    <contour>
      <point x="213" y="-242" type="curve" smooth="yes"/>
      <point x="359" y="-242"/>
      <point x="493" y="-140"/>
      <point x="493" y="-33" type="curve" smooth="yes"/>
      <point x="493" y="139"/>
      <point x="151" y="69"/>
      <point x="151" y="141" type="curve" smooth="yes"/>
      <point x="151" y="149"/>
      <point x="155" y="155"/>
      <point x="173" y="172" type="curve"/>
      <point x="97" y="192" type="line"/>
      <point x="97" y="169" type="line"/>
      <point x="64" y="148"/>
      <point x="40" y="128"/>
      <point x="20" y="105" type="curve"/>
      <point x="25" y="49"/>
      <point x="60" y="12"/>
      <point x="119" y="2" type="curve"/>
      <point x="119" y="-7" type="line"/>
      <point x="87" y="-26"/>
      <point x="43" y="-58"/>
      <point x="18" y="-80" type="curve"/>
      <point x="18" y="-176"/>
      <point x="97" y="-242"/>
    </contour>
    <contour>
      <point x="253" y="-147" type="curve" smooth="yes"/>
      <point x="199" y="-147"/>
      <point x="169" y="-123"/>
      <point x="169" y="-83" type="curve" smooth="yes"/>
      <point x="169" y="-60"/>
      <point x="179" y="-31"/>
      <point x="191" y="-16" type="curve"/>
      <point x="316" y="-27"/>
      <point x="351" y="-41"/>
      <point x="351" y="-79" type="curve" smooth="yes"/>
      <point x="351" y="-119"/>
      <point x="310" y="-147"/>
    </contour>
    <contour>
      <point x="-24" y="-113" type="line"/>
      <point x="76" y="-113"/>
      <point x="197" y="-112"/>
      <point x="248" y="-112" type="curve" smooth="yes"/>
      <point x="545" y="-112" type="line"/>
      <point x="550" y="-68" type="line"/>
      <point x="536" y="-52" type="line"/>
      <point x="435" y="-54"/>
      <point x="315" y="-56"/>
      <point x="263" y="-56" type="curve" smooth="yes"/>
      <point x="226" y="-56"/>
      <point x="78" y="-55"/>
      <point x="-26" y="-55" type="curve"/>
      <point x="-34" y="-102" type="line"/>
    </contour>
  </outline>
</glyph>
<glyph name="Aringacute" format="2">
  <advance width="676"/>
  <unicode hex="01FA"/>
  <outline>
    <contour>
      <point x="341" y="-6" type="line"/>
      <point x="341" y="-6"/>
      <point x="437" y="-1"/>
      <point x="532" y="-1" type="curve" smooth="yes"/>
      <point x="587" y="-1"/>
      <point x="673" y="-3"/>
      <point x="673" y="-3" type="curve"/>
      <point x="681" y="76" type="line"/>
      <point x="674" y="86" type="line"/>
      <point x="643" y="89"/>
      <point x="627" y="108"/>
      <point x="615" y="153" type="curve" smooth="yes"/>
      <point x="586" y="261"/>
      <point x="490" y="646"/>
      <point x="490" y="646" type="curve"/>
      <point x="475" y="658" type="line"/>
      <point x="212" y="642" type="line"/>
      <point x="53" y="140" type="line"/>
      <point x="43" y="109"/>
      <point x="26" y="91"/>
      <point x="2" y="85" type="curve"/>
      <point x="-5" y="-2" type="line"/>
      <point x="-5" y="-2"/>
      <point x="66" y="-1"/>
      <point x="128" y="-1" type="curve" smooth="yes"/>
      <point x="189" y="-1"/>
      <point x="282" y="-4"/>
      <point x="282" y="-4" type="curve"/>
      <point x="290" y="79" type="line"/>
      <point x="282" y="89" type="line"/>
      <point x="256" y="89" type="line"/>
      <point x="229" y="89"/>
      <point x="225" y="92"/>
      <point x="225" y="109" type="curve" smooth="yes"/>
      <point x="225" y="113"/>
      <point x="226" y="120"/>
      <point x="228" y="131" type="curve" smooth="yes"/>
      <point x="238" y="175" type="line"/>
      <point x="264" y="177"/>
      <point x="295" y="180"/>
      <point x="318" y="180" type="curve" smooth="yes"/>
      <point x="337" y="180"/>
      <point x="368" y="179"/>
      <point x="395" y="178" type="curve"/>
      <point x="401" y="139" type="line"/>
      <point x="402" y="131"/>
      <point x="403" y="125"/>
      <point x="403" y="121" type="curve" smooth="yes"/>
      <point x="403" y="95"/>
      <point x="400" y="94"/>
      <point x="339" y="87" type="curve"/>
      <point x="333" y="3" type="line"/>
    </contour>
    <contour>
      <point x="270" y="301" type="line"/>
      <point x="317" y="478" type="line"/>
      <point x="339" y="478" type="line"/>
      <point x="373" y="303" type="line"/>
      <point x="355" y="302"/>
      <point x="336" y="301"/>
      <point x="321" y="301" type="curve" smooth="yes"/>
    </contour>
    <contour>
      <point x="337.6" y="677.8000000000001" type="curve" smooth="yes"/>
      <point x="401.5" y="677.8000000000001"/>
      <point x="437.5" y="726.4"/>
      <point x="437.5" y="778.6" type="curve" smooth="yes"/>
      <point x="437.5" y="823.6"/>
      <point x="412.3" y="866.8000000000001"/>
      <point x="345.70000000000005" y="866.8000000000001" type="curve" smooth="yes"/>
      <point x="285.4" y="866.8000000000001"/>
      <point x="246.7" y="825.4"/>
      <point x="246.7" y="770.5" type="curve" smooth="yes"/>
      <point x="246.7" y="715.6"/>
      <point x="279.1" y="677.8000000000001"/>
    </contour>
    <contour>
      <point x="343.9" y="740.8000000000001" type="curve" smooth="yes"/>
      <point x="329.5" y="740.8000000000001"/>
      <point x="308.8" y="748.0"/>
      <point x="308.8" y="773.2" type="curve" smooth="yes"/>
      <point x="308.8" y="790.3000000000001"/>
      <point x="318.70000000000005" y="802.0"/>
      <point x="340.3" y="802.0" type="curve" smooth="yes"/>
      <point x="362.8" y="802.0"/>
      <point x="375.4" y="790.3000000000001"/>
      <point x="375.4" y="770.5" type="curve" smooth="yes"/>
      <point x="375.4" y="746.2"/>
      <point x="355.6" y="740.8000000000001"/>
    </contour>
    <contour>
      <point x="241.2" y="850.9" type="line"/>
      <point x="352.8" y="878.8000000000001"/>
      <point x="469.8" y="900.4"/>
      <point x="469.8" y="900.4" type="curve"/>
      <point x="476.1" y="914.8000000000001" type="line"/>
      <point x="443.7" y="1012.0" type="line"/>
      <point x="429.3" y="1016.5" type="line"/>
      <point x="429.3" y="1016.5"/>
      <point x="315.9" y="967.9"/>
      <point x="205.2" y="926.5" type="curve"/>
      <point x="224.10000000000002" y="862.6" type="line"/>
    </contour>
  </outline>
</glyph>
<glyph name="aringacute" format="2">
  <advance width="494"/>
  <unicode hex="01FB"/>
  <outline>
    <contour>
      <point x="394" y="-12" type="curve"/>
      <point x="428" y="-5"/>
      <point x="476" y="61"/>
      <point x="502" y="109" type="curve"/>
      <point x="485" y="136" type="line"/>
      <point x="477" y="133"/>
      <point x="463" y="128"/>
      <point x="451" y="128" type="curve" smooth="yes"/>
      <point x="434" y="128"/>
      <point x="422" y="142"/>
      <point x="422" y="162" type="curve" smooth="yes"/>
      <point x="422" y="190"/>
      <point x="444" y="307"/>
      <point x="444" y="339" type="curve" smooth="yes"/>
      <point x="444" y="412"/>
      <point x="397" y="484"/>
      <point x="245" y="484" type="curve" smooth="yes"/>
      <point x="207" y="484"/>
      <point x="104" y="437"/>
      <point x="37" y="401" type="curve"/>
      <point x="62" y="321" type="line"/>
      <point x="74" y="315" type="line"/>
      <point x="101" y="333"/>
      <point x="151" y="358"/>
      <point x="189" y="358" type="curve" smooth="yes"/>
      <point x="240" y="358"/>
      <point x="271" y="331"/>
      <point x="271" y="286" type="curve"/>
      <point x="271" y="285" type="line"/>
      <point x="75" y="249" type="line" smooth="yes"/>
      <point x="37" y="241"/>
      <point x="11" y="206"/>
      <point x="11" y="162" type="curve" smooth="yes"/>
      <point x="11" y="67"/>
      <point x="76" y="-8"/>
      <point x="158" y="-8" type="curve" smooth="yes"/>
      <point x="189" y="-8"/>
      <point x="238" y="34"/>
      <point x="269" y="66" type="curve"/>
      <point x="281" y="61" type="line"/>
      <point x="287" y="14"/>
      <point x="328" y="-12"/>
    </contour>
    <contour>
      <point x="219" y="120" type="curve" smooth="yes"/>
      <point x="194" y="120"/>
      <point x="179" y="143"/>
      <point x="179" y="174" type="curve" smooth="yes"/>
      <point x="179" y="188"/>
      <point x="183" y="193"/>
      <point x="197" y="196" type="curve" smooth="yes"/>
      <point x="269" y="212" type="line"/>
      <point x="268" y="126" type="line"/>
      <point x="254" y="123"/>
      <point x="234" y="120"/>
    </contour>
    <contour>
      <point x="249.6" y="503.80000000000007" type="curve" smooth="yes"/>
      <point x="313.5" y="503.80000000000007"/>
      <point x="349.5" y="552.4"/>
      <point x="349.5" y="604.6" type="curve" smooth="yes"/>
      <point x="349.5" y="649.6"/>
      <point x="324.3" y="692.8000000000001"/>
      <point x="257.70000000000005" y="692.8000000000001" type="curve" smooth="yes"/>
      <point x="197.4" y="692.8000000000001"/>
      <point x="158.7" y="651.4"/>
      <point x="158.7" y="596.5" type="curve" smooth="yes"/>
      <point x="158.7" y="541.6"/>
      <point x="191.10000000000002" y="503.80000000000007"/>
    </contour>
    <contour>
      <point x="255.9" y="566.8000000000001" type="curve" smooth="yes"/>
      <point x="241.5" y="566.8000000000001"/>
      <point x="220.8" y="574.0"/>
      <point x="220.8" y="599.2" type="curve" smooth="yes"/>
      <point x="220.8" y="616.3000000000001"/>
      <point x="230.70000000000002" y="628.0"/>
      <point x="252.3" y="628.0" type="curve" smooth="yes"/>
      <point x="274.8" y="628.0"/>
      <point x="287.4" y="616.3000000000001"/>
      <point x="287.4" y="596.5" type="curve" smooth="yes"/>
      <point x="287.4" y="572.2"/>
      <point x="267.6" y="566.8000000000001"/>
    </contour>
    <contour>
      <point x="153.2" y="678.9" type="line"/>
      <point x="264.8" y="706.8000000000001"/>
      <point x="381.8" y="728.4"/>
      <point x="381.8" y="728.4" type="curve"/>
      <point x="388.1" y="742.8000000000001" type="line"/>
      <point x="355.7" y="840.0" type="line"/>
      <point x="341.3" y="844.5" type="line"/>
      <point x="341.3" y="844.5"/>
      <point x="227.9" y="795.9"/>
      <point x="117.2" y="754.5" type="curve"/>
      <point x="136.10000000000002" y="690.6" type="line"/>
    </contour>
  </outline>
</glyph>
<glyph name="ymod" format="2">
  <advance width="359"/>
  <unicode hex="02B8"/>
  <anchor x="239" y="0" name="bottom"/>
  <anchor x="267" y="472" name="top"/>
  <outline>
    <contour>
      <point x="63" y="165" type="curve" smooth="yes"/>
      <point x="125" y="165"/>
      <point x="202" y="238"/>
      <point x="244" y="346" type="curve"/>
      <point x="331" y="557" type="line"/>
      <point x="338" y="573"/>
      <point x="342" y="576"/>
      <point x="361" y="581" type="curve"/>
      <point x="368" y="645" type="line"/>
      <point x="341" y="645"/>
      <point x="320" y="645"/>
      <point x="297" y="645" type="curve" smooth="yes"/>
      <point x="268" y="645"/>
      <point x="219" y="646"/>
      <point x="219" y="646" type="curve"/>
      <point x="211" y="585" type="line"/>
      <point x="214" y="580" type="line"/>
      <point x="222" y="580" type="line" smooth="yes"/>
      <point x="234" y="580"/>
      <point x="235" y="580"/>
      <point x="235" y="571" type="curve" smooth="yes"/>
      <point x="235" y="562"/>
      <point x="221" y="516"/>
      <point x="197" y="453" type="curve"/>
      <point x="184" y="453" type="line"/>
      <point x="184" y="453"/>
      <point x="156" y="548"/>
      <point x="156" y="567" type="curve" smooth="yes"/>
      <point x="156" y="577"/>
      <point x="160" y="580"/>
      <point x="179" y="582" type="curve"/>
      <point x="187" y="646" type="line"/>
      <point x="186" y="650" type="line"/>
      <point x="186" y="648"/>
      <point x="105" y="645"/>
      <point x="50" y="645" type="curve" smooth="yes"/>
      <point x="34" y="645"/>
      <point x="20" y="645"/>
      <point x="2" y="645" type="curve"/>
      <point x="-4" y="584" type="line"/>
      <point x="-3" y="581" type="line"/>
      <point x="12" y="579"/>
      <point x="20" y="574"/>
      <point x="31" y="556" type="curve"/>
      <point x="49" y="523"/>
      <point x="106" y="381"/>
      <point x="133" y="313" type="curve"/>
      <point x="104" y="285"/>
      <point x="56" y="267"/>
      <point x="-12" y="256" type="curve"/>
      <point x="-20" y="242" type="line"/>
      <point x="-20" y="220"/>
      <point x="40" y="165"/>
    </contour>
  </outline>
</glyph>
<glyph name="commaturnedmod" format="2">
  <advance width="263"/>
  <unicode hex="02BB"/>
  <outline>
    <contour>
      <point x="126" y="340" type="curve" smooth="yes"/>
      <point x="161" y="340"/>
      <point x="200" y="363"/>
      <point x="237" y="406" type="curve"/>
      <point x="237" y="420" type="line"/>
      <point x="209" y="441"/>
      <point x="190" y="476"/>
      <point x="190" y="509" type="curve" smooth="yes"/>
      <point x="190" y="541"/>
      <point x="207" y="579"/>
      <point x="233" y="606" type="curve"/>
      <point x="228" y="630" type="line"/>
      <point x="162" y="663" type="line"/>
      <point x="86" y="596"/>
      <point x="39" y="515"/>
      <point x="39" y="452" type="curve" smooth="yes"/>
      <point x="39" y="389"/>
      <point x="77" y="340"/>
    </contour>
  </outline>
</glyph>
<glyph name="ringhalfleft" format="2">
  <advance width="305"/>
  <unicode hex="02BF"/>
  <outline>
    <contour>
      <point x="212" y="652" type="line"/>
      <point x="144" y="652"/>
      <point x="93" y="598"/>
      <point x="93" y="526" type="curve" smooth="yes"/>
      <point x="93" y="458"/>
      <point x="136" y="416"/>
      <point x="207" y="416" type="curve"/>
      <point x="212" y="497" type="line"/>
      <point x="185" y="497"/>
      <point x="170" y="512"/>
      <point x="170" y="537" type="curve" smooth="yes"/>
      <point x="170" y="558"/>
      <point x="185" y="573"/>
      <point x="212" y="573" type="curve"/>
    </contour>
  </outline>
</glyph>
<glyph name="verticallinelowmod" format="2">
  <advance width="300"/>
  <unicode hex="02CC"/>
  <outline>
    <contour>
      <point x="90" y="-230" type="line"/>
      <point x="210" y="-230" type="line"/>
      <point x="210" y="-46" type="line"/>
      <point x="90" y="-46" type="line"/>
    </contour>
  </outline>
</glyph>
<glyph name="smod" format="2">
  <advance width="308"/>
  <unicode hex="02E2"/>
  <outline>
    <contour>
      <point x="125" y="319" type="curve" smooth="yes"/>
      <point x="221" y="319"/>
      <point x="288" y="362"/>
      <point x="288" y="425" type="curve" smooth="yes"/>
      <point x="288" y="475"/>
      <point x="266" y="496"/>
      <point x="179" y="532" type="curve"/>
      <point x="159" y="539"/>
      <point x="150" y="547"/>
      <point x="150" y="557" type="curve" smooth="yes"/>
      <point x="150" y="569"/>
      <point x="159" y="575"/>
      <point x="174" y="575" type="curve" smooth="yes"/>
      <point x="197" y="575"/>
      <point x="209" y="561"/>
      <point x="209" y="531" type="curve" smooth="yes"/>
      <point x="209" y="531"/>
      <point x="209" y="530"/>
      <point x="209" y="530" type="curve"/>
      <point x="268" y="533" type="line"/>
      <point x="273" y="579"/>
      <point x="281" y="627"/>
      <point x="281" y="627" type="curve"/>
      <point x="274" y="639" type="line"/>
      <point x="274" y="639"/>
      <point x="241" y="653"/>
      <point x="186" y="653" type="curve" smooth="yes"/>
      <point x="84" y="653"/>
      <point x="20" y="609"/>
      <point x="20" y="540" type="curve" smooth="yes"/>
      <point x="20" y="494"/>
      <point x="45" y="465"/>
      <point x="103" y="442" type="curve" smooth="yes"/>
      <point x="148" y="426"/>
      <point x="156" y="420"/>
      <point x="156" y="408" type="curve" smooth="yes"/>
      <point x="156" y="399"/>
      <point x="147" y="394"/>
      <point x="133" y="394" type="curve" smooth="yes"/>
      <point x="106" y="394"/>
      <point x="82" y="418"/>
      <point x="81" y="443" type="curve"/>
      <point x="22" y="439" type="line"/>
      <point x="19" y="408"/>
      <point x="15" y="378"/>
      <point x="11" y="353" type="curve"/>
      <point x="19" y="343" type="line"/>
      <point x="19" y="343"/>
      <point x="62" y="319"/>
    </contour>
  </outline>
</glyph>
<glyph name="xmod" format="2">
  <advance width="383"/>
  <unicode hex="02E3"/>
  <anchor x="182" y="0" name="bottom"/>
  <anchor x="199" y="463" name="top"/>
  <outline>
    <contour>
      <point x="15" y="646"/>
      <point x="15" y="646" type="curve"/>
      <point x="10" y="588" type="line"/>
      <point x="12" y="584" type="line"/>
      <point x="38" y="579"/>
      <point x="58" y="572"/>
      <point x="78" y="546" type="curve" smooth="yes"/>
      <point x="117" y="497" type="line"/>
      <point x="67" y="438" type="line" smooth="yes"/>
      <point x="33" y="398"/>
      <point x="19" y="383"/>
      <point x="9" y="380" type="curve"/>
      <point x="3" y="331" type="line"/>
      <point x="6" y="324" type="line"/>
      <point x="6" y="324"/>
      <point x="48" y="327"/>
      <point x="76" y="327" type="curve" smooth="yes"/>
      <point x="93" y="327"/>
      <point x="158" y="324"/>
      <point x="158" y="324" type="curve"/>
      <point x="164" y="372" type="line"/>
      <point x="161" y="378" type="line"/>
      <point x="148" y="378"/>
      <point x="142" y="383"/>
      <point x="142" y="393" type="curve" smooth="yes"/>
      <point x="142" y="404"/>
      <point x="155" y="419"/>
      <point x="166" y="433" type="curve"/>
      <point x="194" y="398" type="line" smooth="yes"/>
      <point x="198" y="392"/>
      <point x="199" y="390"/>
      <point x="199" y="387" type="curve" smooth="yes"/>
      <point x="199" y="381"/>
      <point x="193" y="378"/>
      <point x="179" y="378" type="curve"/>
      <point x="172" y="327" type="line"/>
      <point x="176" y="324" type="line"/>
      <point x="176" y="324"/>
      <point x="276" y="327"/>
      <point x="300" y="327" type="curve" smooth="yes"/>
      <point x="319" y="327"/>
      <point x="373" y="326"/>
      <point x="373" y="326" type="curve"/>
      <point x="381" y="379" type="line"/>
      <point x="378" y="381" type="line"/>
      <point x="353" y="383"/>
      <point x="337" y="395"/>
      <point x="314" y="422" type="curve" smooth="yes"/>
      <point x="276" y="467" type="line"/>
      <point x="324" y="537" type="line" smooth="yes"/>
      <point x="337" y="556"/>
      <point x="357" y="569"/>
      <point x="385" y="587" type="curve"/>
      <point x="388" y="643" type="line"/>
      <point x="386" y="647" type="line"/>
      <point x="386" y="647"/>
      <point x="348" y="645"/>
      <point x="316" y="645" type="curve" smooth="yes"/>
      <point x="238" y="645" type="line"/>
      <point x="234" y="593" type="line"/>
      <point x="235" y="591" type="line"/>
      <point x="249" y="591"/>
      <point x="253" y="588"/>
      <point x="253" y="580" type="curve" smooth="yes"/>
      <point x="253" y="573"/>
      <point x="248" y="567"/>
      <point x="243" y="558" type="curve" smooth="yes"/>
      <point x="224" y="530" type="line"/>
      <point x="208" y="548" type="line" smooth="yes"/>
      <point x="200" y="559"/>
      <point x="195" y="565"/>
      <point x="195" y="577" type="curve" smooth="yes"/>
      <point x="195" y="585"/>
      <point x="202" y="589"/>
      <point x="214" y="589" type="curve"/>
      <point x="219" y="643" type="line"/>
      <point x="216" y="648" type="line"/>
      <point x="216" y="648"/>
      <point x="157" y="645"/>
      <point x="110" y="645" type="curve" smooth="yes"/>
      <point x="46" y="645"/>
    </contour>
  </outline>
</glyph>
<glyph name="gravecomb" format="2">
  <unicode hex="0300"/>
  <anchor x="202" y="472" name="_top"/>
  <anchor x="196" y="760" name="top"/>
  <outline>
    <contour>
      <point x="271" y="525" type="curve"/>
      <point x="293" y="532" type="line"/>
      <point x="334" y="593" type="line"/>
      <point x="240" y="674"/>
      <point x="147" y="760"/>
      <point x="147" y="760" type="curve"/>
      <point x="130" y="760" type="line"/>
      <point x="58" y="659" type="line"/>
      <point x="60" y="642" type="line"/>
      <point x="60" y="642"/>
      <point x="168" y="586"/>
    </contour>
  </outline>
</glyph>
<glyph name="acutecomb" format="2">
  <unicode hex="0301"/>
  <anchor x="237" y="472" name="_top"/>
  <anchor x="237" y="760" name="top"/>
  <outline>
    <contour>
      <point x="165" y="521" type="line"/>
      <point x="265" y="588"/>
      <point x="370" y="649"/>
      <point x="370" y="649" type="curve"/>
      <point x="371" y="666" type="line"/>
      <point x="294" y="763" type="line"/>
      <point x="277" y="762" type="line"/>
      <point x="277" y="762"/>
      <point x="188" y="672"/>
      <point x="99" y="586" type="curve"/>
      <point x="143" y="527" type="line"/>
    </contour>
  </outline>
</glyph>
<glyph name="circumflexcomb" format="2">
  <unicode hex="0302"/>
  <anchor x="193" y="473" name="_top"/>
  <anchor x="198" y="760" name="top"/>
  <outline>
    <contour>
      <point x="87" y="535" type="line"/>
      <point x="126" y="562"/>
      <point x="172" y="589"/>
      <point x="198" y="604" type="curve"/>
      <point x="224" y="589"/>
      <point x="271" y="562"/>
      <point x="310" y="535" type="curve"/>
      <point x="333" y="542" type="line"/>
      <point x="378" y="604" type="line"/>
      <point x="300" y="673"/>
      <point x="212" y="760"/>
      <point x="212" y="760" type="curve"/>
      <point x="185" y="760" type="line"/>
      <point x="185" y="760"/>
      <point x="97" y="673"/>
      <point x="18" y="604" type="curve"/>
      <point x="64" y="542" type="line"/>
    </contour>
  </outline>
</glyph>
<glyph name="tildecomb" format="2">
  <unicode hex="0303"/>
  <anchor x="199" y="472" name="_top"/>
  <anchor x="199" y="664" name="top"/>
  <outline>
    <contour>
      <point x="61" y="525" type="line"/>
      <point x="77" y="525" type="line"/>
      <point x="77" y="525"/>
      <point x="119" y="583"/>
      <point x="144" y="583" type="curve" smooth="yes"/>
      <point x="174" y="583"/>
      <point x="263" y="549"/>
      <point x="298" y="549" type="curve"/>
      <point x="315" y="553" type="line"/>
      <point x="396" y="668" type="line"/>
      <point x="396" y="684" type="line"/>
      <point x="337" y="738" type="line"/>
      <point x="321" y="738" type="line"/>
      <point x="321" y="738"/>
      <point x="278" y="680"/>
      <point x="254" y="680" type="curve" smooth="yes"/>
      <point x="224" y="680"/>
      <point x="135" y="714"/>
      <point x="100" y="714" type="curve"/>
      <point x="83" y="710" type="line"/>
      <point x="2" y="595" type="line"/>
      <point x="2" y="579" type="line"/>
    </contour>
  </outline>
</glyph>
<glyph name="macroncomb" format="2">
  <unicode hex="0304"/>
  <anchor x="204" y="472" name="_top"/>
  <anchor x="204" y="693" name="top"/>
  <outline>
    <contour>
      <point x="66" y="564" type="line"/>
      <point x="66" y="564"/>
      <point x="141" y="565"/>
      <point x="200" y="565" type="curve" smooth="yes"/>
      <point x="340" y="566" type="line"/>
      <point x="358" y="675" type="line"/>
      <point x="347" y="693" type="line"/>
      <point x="347" y="693"/>
      <point x="273" y="687"/>
      <point x="223" y="687" type="curve" smooth="yes"/>
      <point x="164" y="687"/>
      <point x="69" y="688"/>
      <point x="69" y="688" type="curve"/>
      <point x="50" y="579" type="line"/>
    </contour>
  </outline>
</glyph>
<glyph name="dotaccentcomb" format="2">
  <unicode hex="0307"/>
  <anchor x="199" y="472" name="_top"/>
  <anchor x="199" y="659" name="top"/>
  <outline>
    <contour>
      <point x="195" y="530" type="curve" smooth="yes"/>
      <point x="257" y="530"/>
      <point x="296" y="570"/>
      <point x="296" y="634" type="curve" smooth="yes"/>
      <point x="296" y="694"/>
      <point x="262" y="729"/>
      <point x="203" y="729" type="curve" smooth="yes"/>
      <point x="140" y="729"/>
      <point x="101" y="689"/>
      <point x="101" y="625" type="curve" smooth="yes"/>
      <point x="101" y="564"/>
      <point x="134" y="530"/>
    </contour>
  </outline>
</glyph>
<glyph name="hookabovecomb" format="2">
  <unicode hex="0309"/>
  <anchor x="174" y="472" name="_top"/>
  <anchor x="174" y="800" name="top"/>
  <outline>
    <contour>
      <point x="188" y="512" type="line"/>
      <point x="259" y="555" type="line"/>
      <point x="229" y="602" type="line"/>
      <point x="280" y="647"/>
      <point x="296" y="671"/>
      <point x="296" y="702" type="curve" smooth="yes"/>
      <point x="296" y="764"/>
      <point x="244" y="800"/>
      <point x="160" y="800" type="curve"/>
      <point x="110" y="782"/>
      <point x="51" y="725"/>
      <point x="51" y="725" type="curve"/>
      <point x="77" y="684" type="line"/>
      <point x="77" y="684"/>
      <point x="115" y="711"/>
      <point x="147" y="711" type="curve" smooth="yes"/>
      <point x="174" y="711"/>
      <point x="188" y="698"/>
      <point x="188" y="677" type="curve" smooth="yes"/>
      <point x="188" y="652"/>
      <point x="170" y="628"/>
      <point x="129" y="600" type="curve"/>
    </contour>
  </outline>
</glyph>
<glyph name="ringcomb" format="2">
  <unicode hex="030A"/>
  <anchor x="193" y="472" name="_top"/>
  <anchor x="199" y="752" name="top"/>
  <outline>
    <contour>
      <point x="194" y="542" type="curve" smooth="yes"/>
      <point x="258" y="542"/>
      <point x="305" y="589"/>
      <point x="305" y="654" type="curve" smooth="yes"/>
      <point x="305" y="715"/>
      <point x="266" y="752"/>
      <point x="203" y="752" type="curve" smooth="yes"/>
      <point x="138" y="752"/>
      <point x="93" y="708"/>
      <point x="93" y="645" type="curve" smooth="yes"/>
      <point x="93" y="581"/>
      <point x="132" y="542"/>
    </contour>
    <contour>
      <point x="201" y="612" type="curve" smooth="yes"/>
      <point x="178" y="612"/>
      <point x="162" y="627"/>
      <point x="162" y="648" type="curve" smooth="yes"/>
      <point x="162" y="668"/>
      <point x="175" y="680"/>
      <point x="197" y="680" type="curve" smooth="yes"/>
      <point x="222" y="680"/>
      <point x="236" y="667"/>
      <point x="236" y="645" type="curve" smooth="yes"/>
      <point x="236" y="625"/>
      <point x="222" y="612"/>
    </contour>
  </outline>
</glyph>
<glyph name="breveinvertedcomb" format="2">
  <unicode hex="0311"/>
  <anchor x="211" y="472" name="_top"/>
  <anchor x="211" y="720" name="top"/>
  <outline>
    <contour>
      <point x="211" y="585" type="curve" smooth="yes"/>
      <point x="260" y="585"/>
      <point x="302" y="562"/>
      <point x="322" y="515" type="curve"/>
      <point x="349" y="522" type="line"/>
      <point x="389" y="584" type="line"/>
      <point x="368" y="652"/>
      <point x="313" y="720"/>
      <point x="211" y="720" type="curve" smooth="yes"/>
      <point x="109" y="720"/>
      <point x="54" y="652"/>
      <point x="33" y="584" type="curve"/>
      <point x="73" y="522" type="line"/>
      <point x="100" y="515" type="line"/>
      <point x="120" y="562"/>
      <point x="162" y="585"/>
    </contour>
  </outline>
</glyph>
<glyph name="dotbelowcomb" format="2">
  <unicode hex="0323"/>
  <anchor x="123" y="0" name="_bottom"/>
  <anchor x="119" y="-232" name="bottom"/>
  <outline>
    <contour>
      <point x="115" y="-232" type="curve" smooth="yes"/>
      <point x="177" y="-232"/>
      <point x="216" y="-192"/>
      <point x="216" y="-128" type="curve" smooth="yes"/>
      <point x="216" y="-68"/>
      <point x="182" y="-33"/>
      <point x="123" y="-33" type="curve" smooth="yes"/>
      <point x="60" y="-33"/>
      <point x="21" y="-73"/>
      <point x="21" y="-137" type="curve" smooth="yes"/>
      <point x="21" y="-198"/>
      <point x="54" y="-232"/>
    </contour>
  </outline>
</glyph>
<glyph name="commaaccentcomb" format="2">
  <unicode hex="0326"/>
  <anchor x="197" y="0" name="_bottom"/>
  <anchor x="175" y="-345" name="bottom"/>
  <outline>
    <contour>
      <point x="120" y="-345" type="line"/>
      <point x="223" y="-286"/>
      <point x="287" y="-205"/>
      <point x="287" y="-135" type="curve" smooth="yes"/>
      <point x="287" y="-74"/>
      <point x="253" y="-34"/>
      <point x="202" y="-34" type="curve" smooth="yes"/>
      <point x="174" y="-34"/>
      <point x="136" y="-50"/>
      <point x="100" y="-78" type="curve"/>
      <point x="97" y="-92" type="line"/>
      <point x="114" y="-111"/>
      <point x="126" y="-141"/>
      <point x="126" y="-168" type="curve" smooth="yes"/>
      <point x="126" y="-204"/>
      <point x="101" y="-246"/>
      <point x="62" y="-274" type="curve"/>
      <point x="62" y="-299" type="line"/>
    </contour>
  </outline>
</glyph>
<glyph name="strokeshortcomb" format="2">
  <unicode hex="0335"/>
  <anchor x="248" y="257" name="_center"/>
  <outline>
    <contour>
      <point x="43" y="210" type="line"/>
      <point x="43" y="210"/>
      <point x="169" y="211"/>
      <point x="252" y="211" type="curve" smooth="yes"/>
      <point x="458" y="211" type="line"/>
      <point x="464" y="283" type="line"/>
      <point x="447" y="303" type="line"/>
      <point x="447" y="303"/>
      <point x="343" y="298"/>
      <point x="281" y="298" type="curve" smooth="yes"/>
      <point x="190" y="298"/>
      <point x="40" y="299"/>
      <point x="40" y="299" type="curve"/>
      <point x="31" y="223" type="line"/>
    </contour>
  </outline>
</glyph>
<glyph name="lowernumeral-greek" format="2">
  <advance width="176"/>
  <unicode hex="0375"/>
  <outline>
    <contour>
      <point x="19" y="-132" type="line"/>
      <point x="153" y="-118" type="line"/>
      <point x="153" y="-118"/>
      <point x="142" y="0"/>
      <point x="144" y="120" type="curve"/>
      <point x="125" y="126" type="line"/>
      <point x="52" y="101" type="line"/>
      <point x="26" y="-11"/>
      <point x="10" y="-120"/>
      <point x="10" y="-120" type="curve"/>
    </contour>
  </outline>
</glyph>
<glyph name="dieresistonos" format="2">
  <advance width="508"/>
  <unicode hex="0385"/>
  <anchor x="235" y="472" name="_top"/>
  <outline>
    <contour>
      <point x="270" y="519" type="line"/>
      <point x="289" y="531" type="line"/>
      <point x="324" y="732" type="line"/>
      <point x="312" y="743" type="line"/>
      <point x="198" y="749" type="line"/>
      <point x="188" y="738" type="line"/>
      <point x="196" y="666"/>
      <point x="200" y="596"/>
      <point x="202" y="526" type="curve"/>
    </contour>
    <contour>
      <point x="91" y="564" type="curve" smooth="yes"/>
      <point x="139" y="564"/>
      <point x="169" y="595"/>
      <point x="169" y="643" type="curve" smooth="yes"/>
      <point x="169" y="689"/>
      <point x="143" y="715"/>
      <point x="98" y="715" type="curve" smooth="yes"/>
      <point x="50" y="715"/>
      <point x="20" y="684"/>
      <point x="20" y="636" type="curve" smooth="yes"/>
      <point x="20" y="589"/>
      <point x="45" y="564"/>
    </contour>
    <contour>
      <point x="411" y="564" type="curve" smooth="yes"/>
      <point x="459" y="564"/>
      <point x="488" y="595"/>
      <point x="488" y="643" type="curve" smooth="yes"/>
      <point x="488" y="689"/>
      <point x="462" y="715"/>
      <point x="417" y="715" type="curve" smooth="yes"/>
      <point x="369" y="715"/>
      <point x="339" y="684"/>
      <point x="339" y="636" type="curve" smooth="yes"/>
      <point x="339" y="589"/>
      <point x="364" y="564"/>
    </contour>
  </outline>
</glyph>
<glyph name="Delta" format="2">
  <advance width="675"/>
  <unicode hex="0394"/>
  <outline>
    <contour>
      <point x="24" y="0" type="line"/>
      <point x="654" y="0" type="line"/>
      <point x="663" y="7" type="line"/>
      <point x="608" y="176"/>
      <point x="534" y="450"/>
      <point x="488" y="659" type="curve"/>
      <point x="478" y="659" type="line"/>
      <point x="212" y="642" type="line"/>
      <point x="12" y="13" type="line"/>
    </contour>
    <contour>
      <point x="314" y="131" type="line"/>
      <point x="233" y="134" type="line"/>
      <point x="227" y="142" type="line"/>
      <point x="316" y="497" type="line"/>
      <point x="339" y="497" type="line"/>
      <point x="405" y="146" type="line"/>
      <point x="398" y="134" type="line"/>
    </contour>
  </outline>
</glyph>
<glyph name="Sigma" format="2">
  <advance width="630"/>
  <unicode hex="03A3"/>
  <outline>
    <contour>
      <point x="56" y="-7" type="line"/>
      <point x="148" y="3" type="line"/>
      <point x="566" y="-3" type="line"/>
      <point x="587" y="19" type="line"/>
      <point x="587" y="67"/>
      <point x="594" y="160"/>
      <point x="603" y="247" type="curve"/>
      <point x="597" y="254" type="line"/>
      <point x="478" y="245" type="line"/>
      <point x="468" y="180"/>
      <point x="444" y="157"/>
      <point x="386" y="157" type="curve" smooth="yes"/>
      <point x="253" y="157" type="line"/>
      <point x="408" y="321" type="line"/>
      <point x="408" y="350" type="line"/>
      <point x="282" y="539" type="line"/>
      <point x="381" y="539" type="line" smooth="yes"/>
      <point x="443" y="539"/>
      <point x="470" y="507"/>
      <point x="473" y="428" type="curve"/>
      <point x="593" y="445" type="line"/>
      <point x="588" y="546"/>
      <point x="585" y="611"/>
      <point x="584" y="648" type="curve"/>
      <point x="573" y="659" type="line"/>
      <point x="506" y="652"/>
      <point x="447" y="648"/>
      <point x="392" y="648" type="curve" smooth="yes"/>
      <point x="56" y="647" type="line"/>
      <point x="38" y="590" type="line"/>
      <point x="229" y="302" type="line"/>
      <point x="20" y="81" type="line"/>
    </contour>
  </outline>
</glyph>
<glyph name="Psi" format="2">
  <advance width="807"/>
  <unicode hex="03A8"/>
  <anchor x="354" y="0" name="bottom"/>
  <anchor x="507" y="40" name="ogonek"/>
  <anchor x="402" y="647" name="top"/>
  <outline>
    <contour>
      <point x="220" y="-5" type="line"/>
      <point x="291" y="-2"/>
      <point x="360" y="0"/>
      <point x="396" y="0" type="curve" smooth="yes"/>
      <point x="428" y="0"/>
      <point x="515" y="-2"/>
      <point x="573" y="-4" type="curve"/>
      <point x="582" y="80" type="line"/>
      <point x="574" y="90" type="line"/>
      <point x="562" y="88"/>
      <point x="545" y="87"/>
      <point x="532" y="87" type="curve" smooth="yes"/>
      <point x="506" y="87"/>
      <point x="500" y="100"/>
      <point x="500" y="156" type="curve" smooth="yes"/>
      <point x="500" y="275"/>
      <point x="504" y="406"/>
      <point x="510" y="510" type="curve" smooth="yes"/>
      <point x="512" y="547"/>
      <point x="521" y="555"/>
      <point x="565" y="562" type="curve"/>
      <point x="572" y="652" type="line"/>
      <point x="483" y="649"/>
      <point x="424" y="647"/>
      <point x="402" y="647" type="curve" smooth="yes"/>
      <point x="348" y="647"/>
      <point x="295" y="647"/>
      <point x="243" y="647" type="curve"/>
      <point x="236" y="572" type="line"/>
      <point x="244" y="558" type="line"/>
      <point x="250" y="558"/>
      <point x="262" y="559"/>
      <point x="269" y="559" type="curve" smooth="yes"/>
      <point x="296" y="559"/>
      <point x="303" y="549"/>
      <point x="303" y="508" type="curve" smooth="yes"/>
      <point x="303" y="162" type="line" smooth="yes"/>
      <point x="303" y="107"/>
      <point x="290" y="87"/>
      <point x="228" y="80" type="curve"/>
    </contour>
    <contour>
      <point x="380" y="218" type="curve"/>
      <point x="380" y="327" type="line"/>
      <point x="256" y="327"/>
      <point x="222" y="336"/>
      <point x="212" y="600" type="curve"/>
      <point x="199" y="610" type="line"/>
      <point x="9" y="591" type="line"/>
      <point x="9" y="517" type="line"/>
      <point x="41" y="517"/>
      <point x="61" y="507"/>
      <point x="64" y="469" type="curve" smooth="yes"/>
      <point x="83" y="254"/>
      <point x="168" y="218"/>
    </contour>
    <contour>
      <point x="430" y="218" type="line"/>
      <point x="625" y="218"/>
      <point x="711" y="260"/>
      <point x="740" y="469" type="curve" smooth="yes"/>
      <point x="745" y="507"/>
      <point x="769" y="517"/>
      <point x="801" y="517" type="curve"/>
      <point x="801" y="591" type="line"/>
      <point x="611" y="610" type="line"/>
      <point x="598" y="600" type="line"/>
      <point x="588" y="336"/>
      <point x="554" y="327"/>
      <point x="430" y="327" type="curve"/>
    </contour>
  </outline>
</glyph>
<glyph name="beta" format="2">
  <advance width="511"/>
  <unicode hex="03B2"/>
  <outline>
    <contour>
      <point x="50" y="-239" type="line"/>
      <point x="111" y="-234"/>
      <point x="170" y="-219"/>
      <point x="226" y="-192" type="curve"/>
      <point x="166" y="87" type="line"/>
      <point x="171" y="371" type="line" smooth="yes"/>
      <point x="173" y="486"/>
      <point x="248" y="588"/>
      <point x="325" y="588" type="curve" smooth="yes"/>
      <point x="340" y="588"/>
      <point x="346" y="583"/>
      <point x="346" y="570" type="curve" smooth="yes"/>
      <point x="346" y="536"/>
      <point x="289" y="459"/>
      <point x="198" y="365" type="curve"/>
      <point x="266" y="250" type="line"/>
      <point x="408" y="372"/>
      <point x="454" y="440"/>
      <point x="454" y="522" type="curve" smooth="yes"/>
      <point x="454" y="642"/>
      <point x="352" y="741"/>
      <point x="225" y="741" type="curve" smooth="yes"/>
      <point x="120" y="741"/>
      <point x="77" y="674"/>
      <point x="68" y="502" type="curve" smooth="yes"/>
      <point x="27" y="-222" type="line"/>
    </contour>
    <contour>
      <point x="283" y="-6" type="curve"/>
      <point x="420" y="-6"/>
      <point x="504" y="62"/>
      <point x="504" y="172" type="curve" smooth="yes"/>
      <point x="504" y="331"/>
      <point x="316" y="465"/>
      <point x="188" y="397" type="curve"/>
      <point x="182" y="383" type="line"/>
      <point x="205" y="333"/>
      <point x="222" y="302"/>
      <point x="252" y="250" type="curve"/>
      <point x="266" y="250" type="line"/>
      <point x="338" y="295"/>
      <point x="392" y="298"/>
      <point x="392" y="256" type="curve" smooth="yes"/>
      <point x="392" y="184"/>
      <point x="225" y="137"/>
      <point x="108" y="175" type="curve"/>
      <point x="108" y="20" type="line"/>
      <point x="179" y="70" type="line"/>
      <point x="210" y="42"/>
      <point x="245" y="17"/>
    </contour>
  </outline>
</glyph>
<glyph name="eta" format="2">
  <advance width="508"/>
  <unicode hex="03B7"/>
  <anchor x="130" y="0" name="bottom"/>
  <anchor x="273" y="472" name="top"/>
  <outline>
    <contour>
      <point x="462" y="-232" type="curve"/>
      <point x="474" y="-217" type="line"/>
      <point x="474" y="201" type="line" smooth="yes"/>
      <point x="474" y="334"/>
      <point x="429" y="460"/>
      <point x="375" y="480" type="curve"/>
      <point x="315" y="459"/>
      <point x="263" y="425"/>
      <point x="217" y="376" type="curve"/>
      <point x="198" y="381" type="line"/>
      <point x="57" y="46" type="line"/>
      <point x="120" y="12"/>
      <point x="171" y="-3"/>
      <point x="228" y="-7" type="curve"/>
      <point x="218" y="98" type="line"/>
      <point x="252" y="188"/>
      <point x="322" y="273"/>
      <point x="365" y="273" type="curve" smooth="yes"/>
      <point x="369" y="273"/>
      <point x="371" y="271"/>
      <point x="371" y="267" type="curve" smooth="yes"/>
      <point x="371" y="221"/>
      <point x="308" y="-19"/>
      <point x="254" y="-172" type="curve"/>
      <point x="317" y="-205"/>
      <point x="387" y="-227"/>
    </contour>
    <contour>
      <point x="228" y="-7" type="line"/>
      <point x="245" y="16" type="line"/>
      <point x="205" y="364" type="line" smooth="yes"/>
      <point x="195" y="447"/>
      <point x="163" y="480"/>
      <point x="89" y="480" type="curve"/>
      <point x="29" y="435"/>
      <point x="0" y="374"/>
      <point x="-6" y="298" type="curve"/>
      <point x="8" y="282" type="line"/>
      <point x="100" y="308"/>
      <point x="157" y="304"/>
      <point x="158" y="268" type="curve" smooth="yes"/>
      <point x="162" y="40" type="line"/>
    </contour>
  </outline>
</glyph>
<glyph name="iota" format="2">
  <advance width="273"/>
  <unicode hex="03B9"/>
  <anchor x="113" y="472" name="top"/>
  <outline>
    <contour>
      <point x="171" y="-8" type="curve"/>
      <point x="226" y="38"/>
      <point x="263" y="99"/>
      <point x="276" y="165" type="curve"/>
      <point x="260" y="184" type="line"/>
      <point x="192" y="171"/>
      <point x="170" y="165"/>
      <point x="177" y="195" type="curve" smooth="yes"/>
      <point x="232" y="433" type="line"/>
      <point x="174" y="454"/>
      <point x="114" y="471"/>
      <point x="54" y="484" type="curve"/>
      <point x="33" y="470" type="line"/>
      <point x="43" y="131" type="line" smooth="yes"/>
      <point x="46" y="39"/>
      <point x="89" y="-8"/>
    </contour>
  </outline>
</glyph>
<glyph name="nu" format="2">
  <advance width="420"/>
  <unicode hex="03BD"/>
  <outline>
    <contour>
      <point x="227" y="-9" type="curve"/>
      <point x="246" y="-6" type="line"/>
      <point x="348" y="103"/>
      <point x="406" y="231"/>
      <point x="415" y="383" type="curve"/>
      <point x="387" y="427"/>
      <point x="349" y="460"/>
      <point x="296" y="484" type="curve"/>
      <point x="270" y="474" type="line"/>
      <point x="282" y="428"/>
      <point x="290" y="380"/>
      <point x="295" y="331" type="curve"/>
      <point x="255" y="234"/>
      <point x="188" y="155"/>
      <point x="90" y="95" type="curve"/>
      <point x="92" y="73" type="line"/>
      <point x="134" y="44"/>
      <point x="176" y="17"/>
    </contour>
    <contour>
      <point x="90" y="95" type="curve"/>
      <point x="254" y="201" type="line"/>
      <point x="196" y="209" type="line"/>
      <point x="225" y="432"/>
      <point x="199" y="480"/>
      <point x="76" y="480" type="curve"/>
      <point x="37" y="437"/>
      <point x="7" y="380"/>
      <point x="-7" y="319" type="curve"/>
      <point x="12" y="299" type="line"/>
      <point x="102" y="312"/>
      <point x="119" y="308"/>
      <point x="119" y="261" type="curve" smooth="yes"/>
      <point x="119" y="204"/>
      <point x="111" y="159"/>
    </contour>
  </outline>
</glyph>
